%
M48
M72
T01C0.0320
T02C0.0360
T03C0.0394
T04C0.0433
%
T01
X42180Y34216
X44180Y34216
X58680Y34216
X60680Y34216
T02
X48680Y38716
X47680Y38716
X46680Y38716
X45680Y38716
T03
X1680Y2716
X20680Y9216
X26180Y11216
X31180Y11716
X26180Y14216
X31180Y16216
X26180Y19216
X20680Y18216
X14180Y21716
X14180Y23716
X20680Y23216
X26180Y22216
X31180Y25216
X26180Y27716
X31180Y29716
X26180Y30716
X20680Y32216
X14180Y32216
X14180Y34216
X3680Y34216
X3680Y32216
X1680Y40216
X26180Y38716
X31180Y38716
X26180Y35716
X36180Y31216
X37680Y34216
X39680Y34216
X45180Y31216
X42680Y28216
X38680Y28216
X49180Y25216
X49180Y23216
X55680Y23216
X55680Y25216
X60180Y25216
X68680Y27716
X62180Y31216
X56180Y34216
X54180Y34216
X53180Y31216
X54680Y38716
X55680Y38716
X56680Y38716
X68680Y34216
X68680Y32216
X79680Y40216
X39680Y38716
X38680Y38716
X37680Y38716
X3680Y23716
X3680Y21716
X26180Y6216
X26180Y3216
X31180Y2716
X51680Y10216
X55680Y10216
X55680Y12216
X60180Y12216
X60180Y16216
X55680Y17216
X55680Y19216
X51680Y19216
X42680Y19216
X38680Y19216
X68680Y18716
X60180Y3216
X79680Y2716
T04
X78680Y20173
X78680Y22259
X78680Y30173
X78680Y32259
X8680Y32259
X8680Y30173
X8680Y21759
X8680Y19673
X8680Y11759
X8680Y9673
M30
