G75*
%MOIN*%
%OFA0B0*%
%FSLAX24Y24*%
%IPPOS*%
%LPD*%
%AMOC8*
5,1,8,0,0,1.08239X$1,22.5*
%
%ADD10C,0.0060*%
%ADD11C,0.0200*%
%ADD12R,0.0300X0.4200*%
%ADD13R,0.0200X0.0750*%
%ADD14R,0.0200X0.1300*%
%ADD15R,0.1500X0.0250*%
%ADD16R,0.0320X0.0760*%
%ADD17R,0.4200X0.0300*%
%ADD18R,0.0750X0.0200*%
%ADD19R,0.0300X0.0200*%
%ADD20R,0.1300X0.0200*%
%ADD21R,0.0760X0.0320*%
%ADD22C,0.0120*%
%ADD23R,0.0900X0.0250*%
%ADD24C,0.0050*%
D10*
X019630Y010466D02*
X021730Y010466D01*
X021753Y010468D01*
X021776Y010473D01*
X021798Y010482D01*
X021818Y010495D01*
X021836Y010510D01*
X021851Y010528D01*
X021864Y010548D01*
X021873Y010570D01*
X021878Y010593D01*
X021880Y010616D01*
X021880Y010966D01*
X021780Y011066D01*
X021780Y016366D01*
X021880Y016466D01*
X021880Y016816D01*
X021878Y016839D01*
X021873Y016862D01*
X021864Y016884D01*
X021851Y016904D01*
X021836Y016922D01*
X021818Y016937D01*
X021798Y016950D01*
X021776Y016959D01*
X021753Y016964D01*
X021730Y016966D01*
X019630Y016966D01*
X019607Y016964D01*
X019584Y016959D01*
X019562Y016950D01*
X019542Y016937D01*
X019524Y016922D01*
X019509Y016904D01*
X019496Y016884D01*
X019487Y016862D01*
X019482Y016839D01*
X019480Y016816D01*
X019480Y016466D01*
X019580Y016366D01*
X019580Y011066D01*
X019480Y010966D01*
X019480Y010616D01*
X019482Y010593D01*
X019487Y010570D01*
X019496Y010548D01*
X019509Y010528D01*
X019524Y010510D01*
X019542Y010495D01*
X019562Y010482D01*
X019584Y010473D01*
X019607Y010468D01*
X019630Y010466D01*
X025430Y012816D02*
X025430Y013066D01*
X026180Y013066D01*
X026930Y013066D01*
X026930Y012816D01*
X025430Y012816D01*
X022930Y012716D02*
X022932Y012829D01*
X022938Y012943D01*
X022948Y013056D01*
X022962Y013168D01*
X022979Y013280D01*
X023001Y013392D01*
X023027Y013502D01*
X023056Y013612D01*
X023089Y013720D01*
X023126Y013828D01*
X023167Y013933D01*
X023211Y014038D01*
X023259Y014141D01*
X023310Y014242D01*
X023365Y014341D01*
X023424Y014438D01*
X023486Y014533D01*
X023551Y014626D01*
X023619Y014717D01*
X023690Y014805D01*
X023765Y014891D01*
X023842Y014974D01*
X023922Y015054D01*
X024005Y015131D01*
X024091Y015206D01*
X024179Y015277D01*
X024270Y015345D01*
X024363Y015410D01*
X024458Y015472D01*
X024555Y015531D01*
X024654Y015586D01*
X024755Y015637D01*
X024858Y015685D01*
X024963Y015729D01*
X025068Y015770D01*
X025176Y015807D01*
X025284Y015840D01*
X025394Y015869D01*
X025504Y015895D01*
X025616Y015917D01*
X025728Y015934D01*
X025840Y015948D01*
X025953Y015958D01*
X026067Y015964D01*
X026180Y015966D01*
X026293Y015964D01*
X026407Y015958D01*
X026520Y015948D01*
X026632Y015934D01*
X026744Y015917D01*
X026856Y015895D01*
X026966Y015869D01*
X027076Y015840D01*
X027184Y015807D01*
X027292Y015770D01*
X027397Y015729D01*
X027502Y015685D01*
X027605Y015637D01*
X027706Y015586D01*
X027805Y015531D01*
X027902Y015472D01*
X027997Y015410D01*
X028090Y015345D01*
X028181Y015277D01*
X028269Y015206D01*
X028355Y015131D01*
X028438Y015054D01*
X028518Y014974D01*
X028595Y014891D01*
X028670Y014805D01*
X028741Y014717D01*
X028809Y014626D01*
X028874Y014533D01*
X028936Y014438D01*
X028995Y014341D01*
X029050Y014242D01*
X029101Y014141D01*
X029149Y014038D01*
X029193Y013933D01*
X029234Y013828D01*
X029271Y013720D01*
X029304Y013612D01*
X029333Y013502D01*
X029359Y013392D01*
X029381Y013280D01*
X029398Y013168D01*
X029412Y013056D01*
X029422Y012943D01*
X029428Y012829D01*
X029430Y012716D01*
X029428Y012603D01*
X029422Y012489D01*
X029412Y012376D01*
X029398Y012264D01*
X029381Y012152D01*
X029359Y012040D01*
X029333Y011930D01*
X029304Y011820D01*
X029271Y011712D01*
X029234Y011604D01*
X029193Y011499D01*
X029149Y011394D01*
X029101Y011291D01*
X029050Y011190D01*
X028995Y011091D01*
X028936Y010994D01*
X028874Y010899D01*
X028809Y010806D01*
X028741Y010715D01*
X028670Y010627D01*
X028595Y010541D01*
X028518Y010458D01*
X028438Y010378D01*
X028355Y010301D01*
X028269Y010226D01*
X028181Y010155D01*
X028090Y010087D01*
X027997Y010022D01*
X027902Y009960D01*
X027805Y009901D01*
X027706Y009846D01*
X027605Y009795D01*
X027502Y009747D01*
X027397Y009703D01*
X027292Y009662D01*
X027184Y009625D01*
X027076Y009592D01*
X026966Y009563D01*
X026856Y009537D01*
X026744Y009515D01*
X026632Y009498D01*
X026520Y009484D01*
X026407Y009474D01*
X026293Y009468D01*
X026180Y009466D01*
X026067Y009468D01*
X025953Y009474D01*
X025840Y009484D01*
X025728Y009498D01*
X025616Y009515D01*
X025504Y009537D01*
X025394Y009563D01*
X025284Y009592D01*
X025176Y009625D01*
X025068Y009662D01*
X024963Y009703D01*
X024858Y009747D01*
X024755Y009795D01*
X024654Y009846D01*
X024555Y009901D01*
X024458Y009960D01*
X024363Y010022D01*
X024270Y010087D01*
X024179Y010155D01*
X024091Y010226D01*
X024005Y010301D01*
X023922Y010378D01*
X023842Y010458D01*
X023765Y010541D01*
X023690Y010627D01*
X023619Y010715D01*
X023551Y010806D01*
X023486Y010899D01*
X023424Y010994D01*
X023365Y011091D01*
X023310Y011190D01*
X023259Y011291D01*
X023211Y011394D01*
X023167Y011499D01*
X023126Y011604D01*
X023089Y011712D01*
X023056Y011820D01*
X023027Y011930D01*
X023001Y012040D01*
X022979Y012152D01*
X022962Y012264D01*
X022948Y012376D01*
X022938Y012489D01*
X022932Y012603D01*
X022930Y012716D01*
X026180Y012466D02*
X026180Y011916D01*
X026180Y013066D02*
X026180Y013516D01*
X026180Y015066D02*
X026180Y015666D01*
X025880Y015366D02*
X026480Y015366D01*
X030130Y017466D02*
X032230Y017466D01*
X032253Y017468D01*
X032276Y017473D01*
X032298Y017482D01*
X032318Y017495D01*
X032336Y017510D01*
X032351Y017528D01*
X032364Y017548D01*
X032373Y017570D01*
X032378Y017593D01*
X032380Y017616D01*
X032380Y017966D01*
X032280Y018066D01*
X032280Y023366D01*
X032380Y023466D01*
X032380Y023816D01*
X032378Y023839D01*
X032373Y023862D01*
X032364Y023884D01*
X032351Y023904D01*
X032336Y023922D01*
X032318Y023937D01*
X032298Y023950D01*
X032276Y023959D01*
X032253Y023964D01*
X032230Y023966D01*
X030130Y023966D01*
X030107Y023964D01*
X030084Y023959D01*
X030062Y023950D01*
X030042Y023937D01*
X030024Y023922D01*
X030009Y023904D01*
X029996Y023884D01*
X029987Y023862D01*
X029982Y023839D01*
X029980Y023816D01*
X029980Y023466D01*
X030080Y023366D01*
X030080Y018066D01*
X029980Y017966D01*
X029980Y017616D01*
X029982Y017593D01*
X029987Y017570D01*
X029996Y017548D01*
X030009Y017528D01*
X030024Y017510D01*
X030042Y017495D01*
X030062Y017482D01*
X030084Y017473D01*
X030107Y017468D01*
X030130Y017466D01*
X026180Y019916D02*
X026180Y020466D01*
X022930Y020716D02*
X022932Y020829D01*
X022938Y020943D01*
X022948Y021056D01*
X022962Y021168D01*
X022979Y021280D01*
X023001Y021392D01*
X023027Y021502D01*
X023056Y021612D01*
X023089Y021720D01*
X023126Y021828D01*
X023167Y021933D01*
X023211Y022038D01*
X023259Y022141D01*
X023310Y022242D01*
X023365Y022341D01*
X023424Y022438D01*
X023486Y022533D01*
X023551Y022626D01*
X023619Y022717D01*
X023690Y022805D01*
X023765Y022891D01*
X023842Y022974D01*
X023922Y023054D01*
X024005Y023131D01*
X024091Y023206D01*
X024179Y023277D01*
X024270Y023345D01*
X024363Y023410D01*
X024458Y023472D01*
X024555Y023531D01*
X024654Y023586D01*
X024755Y023637D01*
X024858Y023685D01*
X024963Y023729D01*
X025068Y023770D01*
X025176Y023807D01*
X025284Y023840D01*
X025394Y023869D01*
X025504Y023895D01*
X025616Y023917D01*
X025728Y023934D01*
X025840Y023948D01*
X025953Y023958D01*
X026067Y023964D01*
X026180Y023966D01*
X026293Y023964D01*
X026407Y023958D01*
X026520Y023948D01*
X026632Y023934D01*
X026744Y023917D01*
X026856Y023895D01*
X026966Y023869D01*
X027076Y023840D01*
X027184Y023807D01*
X027292Y023770D01*
X027397Y023729D01*
X027502Y023685D01*
X027605Y023637D01*
X027706Y023586D01*
X027805Y023531D01*
X027902Y023472D01*
X027997Y023410D01*
X028090Y023345D01*
X028181Y023277D01*
X028269Y023206D01*
X028355Y023131D01*
X028438Y023054D01*
X028518Y022974D01*
X028595Y022891D01*
X028670Y022805D01*
X028741Y022717D01*
X028809Y022626D01*
X028874Y022533D01*
X028936Y022438D01*
X028995Y022341D01*
X029050Y022242D01*
X029101Y022141D01*
X029149Y022038D01*
X029193Y021933D01*
X029234Y021828D01*
X029271Y021720D01*
X029304Y021612D01*
X029333Y021502D01*
X029359Y021392D01*
X029381Y021280D01*
X029398Y021168D01*
X029412Y021056D01*
X029422Y020943D01*
X029428Y020829D01*
X029430Y020716D01*
X029428Y020603D01*
X029422Y020489D01*
X029412Y020376D01*
X029398Y020264D01*
X029381Y020152D01*
X029359Y020040D01*
X029333Y019930D01*
X029304Y019820D01*
X029271Y019712D01*
X029234Y019604D01*
X029193Y019499D01*
X029149Y019394D01*
X029101Y019291D01*
X029050Y019190D01*
X028995Y019091D01*
X028936Y018994D01*
X028874Y018899D01*
X028809Y018806D01*
X028741Y018715D01*
X028670Y018627D01*
X028595Y018541D01*
X028518Y018458D01*
X028438Y018378D01*
X028355Y018301D01*
X028269Y018226D01*
X028181Y018155D01*
X028090Y018087D01*
X027997Y018022D01*
X027902Y017960D01*
X027805Y017901D01*
X027706Y017846D01*
X027605Y017795D01*
X027502Y017747D01*
X027397Y017703D01*
X027292Y017662D01*
X027184Y017625D01*
X027076Y017592D01*
X026966Y017563D01*
X026856Y017537D01*
X026744Y017515D01*
X026632Y017498D01*
X026520Y017484D01*
X026407Y017474D01*
X026293Y017468D01*
X026180Y017466D01*
X026067Y017468D01*
X025953Y017474D01*
X025840Y017484D01*
X025728Y017498D01*
X025616Y017515D01*
X025504Y017537D01*
X025394Y017563D01*
X025284Y017592D01*
X025176Y017625D01*
X025068Y017662D01*
X024963Y017703D01*
X024858Y017747D01*
X024755Y017795D01*
X024654Y017846D01*
X024555Y017901D01*
X024458Y017960D01*
X024363Y018022D01*
X024270Y018087D01*
X024179Y018155D01*
X024091Y018226D01*
X024005Y018301D01*
X023922Y018378D01*
X023842Y018458D01*
X023765Y018541D01*
X023690Y018627D01*
X023619Y018715D01*
X023551Y018806D01*
X023486Y018899D01*
X023424Y018994D01*
X023365Y019091D01*
X023310Y019190D01*
X023259Y019291D01*
X023211Y019394D01*
X023167Y019499D01*
X023126Y019604D01*
X023089Y019712D01*
X023056Y019820D01*
X023027Y019930D01*
X023001Y020040D01*
X022979Y020152D01*
X022962Y020264D01*
X022948Y020376D01*
X022938Y020489D01*
X022932Y020603D01*
X022930Y020716D01*
X025430Y020816D02*
X026930Y020816D01*
X026930Y021066D01*
X026180Y021066D01*
X025430Y021066D01*
X025430Y020816D01*
X026180Y021066D02*
X026180Y021516D01*
X026180Y023066D02*
X026180Y023666D01*
X025880Y023366D02*
X026480Y023366D01*
X021880Y024616D02*
X021880Y024966D01*
X021780Y025066D01*
X021780Y030366D01*
X021880Y030466D01*
X021880Y030816D01*
X021878Y030839D01*
X021873Y030862D01*
X021864Y030884D01*
X021851Y030904D01*
X021836Y030922D01*
X021818Y030937D01*
X021798Y030950D01*
X021776Y030959D01*
X021753Y030964D01*
X021730Y030966D01*
X019630Y030966D01*
X019607Y030964D01*
X019584Y030959D01*
X019562Y030950D01*
X019542Y030937D01*
X019524Y030922D01*
X019509Y030904D01*
X019496Y030884D01*
X019487Y030862D01*
X019482Y030839D01*
X019480Y030816D01*
X019480Y030466D01*
X019580Y030366D01*
X019580Y025066D01*
X019480Y024966D01*
X019480Y024616D01*
X019482Y024593D01*
X019487Y024570D01*
X019496Y024548D01*
X019509Y024528D01*
X019524Y024510D01*
X019542Y024495D01*
X019562Y024482D01*
X019584Y024473D01*
X019607Y024468D01*
X019630Y024466D01*
X021730Y024466D01*
X021753Y024468D01*
X021776Y024473D01*
X021798Y024482D01*
X021818Y024495D01*
X021836Y024510D01*
X021851Y024528D01*
X021864Y024548D01*
X021873Y024570D01*
X021878Y024593D01*
X021880Y024616D01*
X014880Y024566D02*
X014880Y020866D01*
X014780Y020766D01*
X013630Y020716D01*
X013630Y024716D02*
X014780Y024666D01*
X014880Y024566D01*
X004230Y024716D02*
X003080Y024666D01*
X002980Y024566D01*
X002980Y020866D01*
X003080Y020766D01*
X004230Y020716D01*
X004230Y031216D02*
X003080Y031266D01*
X002980Y031366D01*
X002980Y035066D01*
X003080Y035166D01*
X004230Y035216D01*
X013630Y035216D02*
X014780Y035166D01*
X014880Y035066D01*
X014880Y031366D01*
X014780Y031266D01*
X013630Y031216D01*
X025430Y029566D02*
X025430Y029316D01*
X026930Y029316D01*
X026930Y029566D01*
X026180Y029566D01*
X025430Y029566D01*
X026180Y029566D02*
X026180Y030016D01*
X022930Y029216D02*
X022932Y029329D01*
X022938Y029443D01*
X022948Y029556D01*
X022962Y029668D01*
X022979Y029780D01*
X023001Y029892D01*
X023027Y030002D01*
X023056Y030112D01*
X023089Y030220D01*
X023126Y030328D01*
X023167Y030433D01*
X023211Y030538D01*
X023259Y030641D01*
X023310Y030742D01*
X023365Y030841D01*
X023424Y030938D01*
X023486Y031033D01*
X023551Y031126D01*
X023619Y031217D01*
X023690Y031305D01*
X023765Y031391D01*
X023842Y031474D01*
X023922Y031554D01*
X024005Y031631D01*
X024091Y031706D01*
X024179Y031777D01*
X024270Y031845D01*
X024363Y031910D01*
X024458Y031972D01*
X024555Y032031D01*
X024654Y032086D01*
X024755Y032137D01*
X024858Y032185D01*
X024963Y032229D01*
X025068Y032270D01*
X025176Y032307D01*
X025284Y032340D01*
X025394Y032369D01*
X025504Y032395D01*
X025616Y032417D01*
X025728Y032434D01*
X025840Y032448D01*
X025953Y032458D01*
X026067Y032464D01*
X026180Y032466D01*
X026293Y032464D01*
X026407Y032458D01*
X026520Y032448D01*
X026632Y032434D01*
X026744Y032417D01*
X026856Y032395D01*
X026966Y032369D01*
X027076Y032340D01*
X027184Y032307D01*
X027292Y032270D01*
X027397Y032229D01*
X027502Y032185D01*
X027605Y032137D01*
X027706Y032086D01*
X027805Y032031D01*
X027902Y031972D01*
X027997Y031910D01*
X028090Y031845D01*
X028181Y031777D01*
X028269Y031706D01*
X028355Y031631D01*
X028438Y031554D01*
X028518Y031474D01*
X028595Y031391D01*
X028670Y031305D01*
X028741Y031217D01*
X028809Y031126D01*
X028874Y031033D01*
X028936Y030938D01*
X028995Y030841D01*
X029050Y030742D01*
X029101Y030641D01*
X029149Y030538D01*
X029193Y030433D01*
X029234Y030328D01*
X029271Y030220D01*
X029304Y030112D01*
X029333Y030002D01*
X029359Y029892D01*
X029381Y029780D01*
X029398Y029668D01*
X029412Y029556D01*
X029422Y029443D01*
X029428Y029329D01*
X029430Y029216D01*
X029428Y029103D01*
X029422Y028989D01*
X029412Y028876D01*
X029398Y028764D01*
X029381Y028652D01*
X029359Y028540D01*
X029333Y028430D01*
X029304Y028320D01*
X029271Y028212D01*
X029234Y028104D01*
X029193Y027999D01*
X029149Y027894D01*
X029101Y027791D01*
X029050Y027690D01*
X028995Y027591D01*
X028936Y027494D01*
X028874Y027399D01*
X028809Y027306D01*
X028741Y027215D01*
X028670Y027127D01*
X028595Y027041D01*
X028518Y026958D01*
X028438Y026878D01*
X028355Y026801D01*
X028269Y026726D01*
X028181Y026655D01*
X028090Y026587D01*
X027997Y026522D01*
X027902Y026460D01*
X027805Y026401D01*
X027706Y026346D01*
X027605Y026295D01*
X027502Y026247D01*
X027397Y026203D01*
X027292Y026162D01*
X027184Y026125D01*
X027076Y026092D01*
X026966Y026063D01*
X026856Y026037D01*
X026744Y026015D01*
X026632Y025998D01*
X026520Y025984D01*
X026407Y025974D01*
X026293Y025968D01*
X026180Y025966D01*
X026067Y025968D01*
X025953Y025974D01*
X025840Y025984D01*
X025728Y025998D01*
X025616Y026015D01*
X025504Y026037D01*
X025394Y026063D01*
X025284Y026092D01*
X025176Y026125D01*
X025068Y026162D01*
X024963Y026203D01*
X024858Y026247D01*
X024755Y026295D01*
X024654Y026346D01*
X024555Y026401D01*
X024458Y026460D01*
X024363Y026522D01*
X024270Y026587D01*
X024179Y026655D01*
X024091Y026726D01*
X024005Y026801D01*
X023922Y026878D01*
X023842Y026958D01*
X023765Y027041D01*
X023690Y027127D01*
X023619Y027215D01*
X023551Y027306D01*
X023486Y027399D01*
X023424Y027494D01*
X023365Y027591D01*
X023310Y027690D01*
X023259Y027791D01*
X023211Y027894D01*
X023167Y027999D01*
X023126Y028104D01*
X023089Y028212D01*
X023056Y028320D01*
X023027Y028430D01*
X023001Y028540D01*
X022979Y028652D01*
X022962Y028764D01*
X022948Y028876D01*
X022938Y028989D01*
X022932Y029103D01*
X022930Y029216D01*
X026180Y028966D02*
X026180Y028416D01*
X030130Y030966D02*
X032230Y030966D01*
X032253Y030968D01*
X032276Y030973D01*
X032298Y030982D01*
X032318Y030995D01*
X032336Y031010D01*
X032351Y031028D01*
X032364Y031048D01*
X032373Y031070D01*
X032378Y031093D01*
X032380Y031116D01*
X032380Y031466D01*
X032280Y031566D01*
X032280Y036866D01*
X032380Y036966D01*
X032380Y037316D01*
X032378Y037339D01*
X032373Y037362D01*
X032364Y037384D01*
X032351Y037404D01*
X032336Y037422D01*
X032318Y037437D01*
X032298Y037450D01*
X032276Y037459D01*
X032253Y037464D01*
X032230Y037466D01*
X030130Y037466D01*
X030107Y037464D01*
X030084Y037459D01*
X030062Y037450D01*
X030042Y037437D01*
X030024Y037422D01*
X030009Y037404D01*
X029996Y037384D01*
X029987Y037362D01*
X029982Y037339D01*
X029980Y037316D01*
X029980Y036966D01*
X030080Y036866D01*
X030080Y031566D01*
X029980Y031466D01*
X029980Y031116D01*
X029982Y031093D01*
X029987Y031070D01*
X029996Y031048D01*
X030009Y031028D01*
X030024Y031010D01*
X030042Y030995D01*
X030062Y030982D01*
X030084Y030973D01*
X030107Y030968D01*
X030130Y030966D01*
X026480Y031866D02*
X025880Y031866D01*
X026180Y032166D02*
X026180Y031566D01*
X026180Y036416D02*
X026180Y036966D01*
X022930Y037216D02*
X022932Y037329D01*
X022938Y037443D01*
X022948Y037556D01*
X022962Y037668D01*
X022979Y037780D01*
X023001Y037892D01*
X023027Y038002D01*
X023056Y038112D01*
X023089Y038220D01*
X023126Y038328D01*
X023167Y038433D01*
X023211Y038538D01*
X023259Y038641D01*
X023310Y038742D01*
X023365Y038841D01*
X023424Y038938D01*
X023486Y039033D01*
X023551Y039126D01*
X023619Y039217D01*
X023690Y039305D01*
X023765Y039391D01*
X023842Y039474D01*
X023922Y039554D01*
X024005Y039631D01*
X024091Y039706D01*
X024179Y039777D01*
X024270Y039845D01*
X024363Y039910D01*
X024458Y039972D01*
X024555Y040031D01*
X024654Y040086D01*
X024755Y040137D01*
X024858Y040185D01*
X024963Y040229D01*
X025068Y040270D01*
X025176Y040307D01*
X025284Y040340D01*
X025394Y040369D01*
X025504Y040395D01*
X025616Y040417D01*
X025728Y040434D01*
X025840Y040448D01*
X025953Y040458D01*
X026067Y040464D01*
X026180Y040466D01*
X026293Y040464D01*
X026407Y040458D01*
X026520Y040448D01*
X026632Y040434D01*
X026744Y040417D01*
X026856Y040395D01*
X026966Y040369D01*
X027076Y040340D01*
X027184Y040307D01*
X027292Y040270D01*
X027397Y040229D01*
X027502Y040185D01*
X027605Y040137D01*
X027706Y040086D01*
X027805Y040031D01*
X027902Y039972D01*
X027997Y039910D01*
X028090Y039845D01*
X028181Y039777D01*
X028269Y039706D01*
X028355Y039631D01*
X028438Y039554D01*
X028518Y039474D01*
X028595Y039391D01*
X028670Y039305D01*
X028741Y039217D01*
X028809Y039126D01*
X028874Y039033D01*
X028936Y038938D01*
X028995Y038841D01*
X029050Y038742D01*
X029101Y038641D01*
X029149Y038538D01*
X029193Y038433D01*
X029234Y038328D01*
X029271Y038220D01*
X029304Y038112D01*
X029333Y038002D01*
X029359Y037892D01*
X029381Y037780D01*
X029398Y037668D01*
X029412Y037556D01*
X029422Y037443D01*
X029428Y037329D01*
X029430Y037216D01*
X029428Y037103D01*
X029422Y036989D01*
X029412Y036876D01*
X029398Y036764D01*
X029381Y036652D01*
X029359Y036540D01*
X029333Y036430D01*
X029304Y036320D01*
X029271Y036212D01*
X029234Y036104D01*
X029193Y035999D01*
X029149Y035894D01*
X029101Y035791D01*
X029050Y035690D01*
X028995Y035591D01*
X028936Y035494D01*
X028874Y035399D01*
X028809Y035306D01*
X028741Y035215D01*
X028670Y035127D01*
X028595Y035041D01*
X028518Y034958D01*
X028438Y034878D01*
X028355Y034801D01*
X028269Y034726D01*
X028181Y034655D01*
X028090Y034587D01*
X027997Y034522D01*
X027902Y034460D01*
X027805Y034401D01*
X027706Y034346D01*
X027605Y034295D01*
X027502Y034247D01*
X027397Y034203D01*
X027292Y034162D01*
X027184Y034125D01*
X027076Y034092D01*
X026966Y034063D01*
X026856Y034037D01*
X026744Y034015D01*
X026632Y033998D01*
X026520Y033984D01*
X026407Y033974D01*
X026293Y033968D01*
X026180Y033966D01*
X026067Y033968D01*
X025953Y033974D01*
X025840Y033984D01*
X025728Y033998D01*
X025616Y034015D01*
X025504Y034037D01*
X025394Y034063D01*
X025284Y034092D01*
X025176Y034125D01*
X025068Y034162D01*
X024963Y034203D01*
X024858Y034247D01*
X024755Y034295D01*
X024654Y034346D01*
X024555Y034401D01*
X024458Y034460D01*
X024363Y034522D01*
X024270Y034587D01*
X024179Y034655D01*
X024091Y034726D01*
X024005Y034801D01*
X023922Y034878D01*
X023842Y034958D01*
X023765Y035041D01*
X023690Y035127D01*
X023619Y035215D01*
X023551Y035306D01*
X023486Y035399D01*
X023424Y035494D01*
X023365Y035591D01*
X023310Y035690D01*
X023259Y035791D01*
X023211Y035894D01*
X023167Y035999D01*
X023126Y036104D01*
X023089Y036212D01*
X023056Y036320D01*
X023027Y036430D01*
X023001Y036540D01*
X022979Y036652D01*
X022962Y036764D01*
X022948Y036876D01*
X022938Y036989D01*
X022932Y037103D01*
X022930Y037216D01*
X025430Y037316D02*
X026930Y037316D01*
X026930Y037566D01*
X026180Y037566D01*
X025430Y037566D01*
X025430Y037316D01*
X026180Y037566D02*
X026180Y038016D01*
X026180Y039566D02*
X026180Y040166D01*
X025880Y039866D02*
X026480Y039866D01*
X036680Y039266D02*
X036730Y038116D01*
X036830Y038016D01*
X040530Y038016D01*
X040630Y038116D01*
X040680Y039266D01*
X045280Y039316D02*
X045280Y038016D01*
X045280Y037716D01*
X045580Y037716D01*
X045580Y037666D01*
X045780Y037666D01*
X045780Y037716D01*
X046080Y037716D01*
X046080Y037766D01*
X046280Y037766D01*
X046280Y037716D01*
X046580Y037716D01*
X046580Y037666D01*
X046780Y037666D01*
X046780Y037716D01*
X047080Y037716D01*
X047080Y037766D01*
X047280Y037766D01*
X047280Y037716D01*
X047580Y037716D01*
X047580Y037666D01*
X047780Y037666D01*
X047780Y037716D01*
X048080Y037716D01*
X048080Y037766D01*
X048280Y037766D01*
X048280Y037716D01*
X048580Y037716D01*
X048580Y037666D01*
X048780Y037666D01*
X048780Y037716D01*
X049080Y037716D01*
X049080Y038016D01*
X048330Y038016D01*
X048280Y038066D01*
X048280Y039316D01*
X048080Y039316D01*
X048080Y038066D01*
X048030Y038016D01*
X047280Y038016D01*
X047280Y039316D01*
X047080Y039316D01*
X047080Y038016D01*
X046330Y038016D01*
X046280Y038066D01*
X046280Y039316D01*
X046080Y039316D01*
X046080Y038066D01*
X046030Y038016D02*
X045280Y038016D01*
X046030Y038016D02*
X046180Y038166D01*
X046280Y038066D01*
X047080Y038016D02*
X047280Y038016D01*
X048080Y038066D02*
X048180Y038166D01*
X048280Y038066D01*
X049080Y038016D02*
X049080Y039316D01*
X049080Y039416D01*
X048930Y039416D01*
X048930Y039316D01*
X048930Y039216D01*
X048430Y039216D01*
X048430Y039316D01*
X048280Y039316D01*
X048430Y039316D02*
X048430Y039416D01*
X047930Y039416D01*
X047930Y039316D01*
X048080Y039316D01*
X047930Y039316D02*
X047930Y039216D01*
X047430Y039216D01*
X047430Y039316D01*
X047280Y039316D01*
X047430Y039316D02*
X047430Y039416D01*
X046930Y039416D01*
X046930Y039316D01*
X047080Y039316D01*
X046930Y039316D02*
X046930Y039216D01*
X046430Y039216D01*
X046430Y039316D01*
X046280Y039316D01*
X046430Y039316D02*
X046430Y039416D01*
X045930Y039416D01*
X045930Y039316D01*
X045930Y039216D01*
X045430Y039216D01*
X045430Y039316D01*
X045280Y039316D01*
X045280Y039416D01*
X045430Y039416D01*
X045430Y039316D01*
X045280Y039416D02*
X045280Y039616D01*
X046080Y039616D01*
X046080Y039566D01*
X046280Y039566D01*
X046280Y039616D01*
X047080Y039616D01*
X047080Y039566D01*
X047280Y039566D01*
X047280Y039616D01*
X048080Y039616D01*
X048080Y039566D01*
X048280Y039566D01*
X048280Y039616D01*
X049080Y039616D01*
X049080Y039416D01*
X049080Y039316D02*
X048930Y039316D01*
X046080Y039316D02*
X045930Y039316D01*
X053680Y039266D02*
X053730Y038116D01*
X053830Y038016D01*
X057530Y038016D01*
X057630Y038116D01*
X057680Y039266D01*
X057030Y034916D02*
X053330Y034916D01*
X053230Y034816D01*
X053180Y033666D01*
X054430Y032266D02*
X054430Y030166D01*
X054432Y030143D01*
X054437Y030120D01*
X054446Y030098D01*
X054459Y030078D01*
X054474Y030060D01*
X054492Y030045D01*
X054512Y030032D01*
X054534Y030023D01*
X054557Y030018D01*
X054580Y030016D01*
X054930Y030016D01*
X055030Y030116D01*
X060330Y030116D01*
X060430Y030016D01*
X060780Y030016D01*
X060803Y030018D01*
X060826Y030023D01*
X060848Y030032D01*
X060868Y030045D01*
X060886Y030060D01*
X060901Y030078D01*
X060914Y030098D01*
X060923Y030120D01*
X060928Y030143D01*
X060930Y030166D01*
X060930Y032266D01*
X060928Y032289D01*
X060923Y032312D01*
X060914Y032334D01*
X060901Y032354D01*
X060886Y032372D01*
X060868Y032387D01*
X060848Y032400D01*
X060826Y032409D01*
X060803Y032414D01*
X060780Y032416D01*
X060430Y032416D01*
X060330Y032316D01*
X055030Y032316D01*
X054930Y032416D01*
X054580Y032416D01*
X054557Y032414D01*
X054534Y032409D01*
X054512Y032400D01*
X054492Y032387D01*
X054474Y032372D01*
X054459Y032354D01*
X054446Y032334D01*
X054437Y032312D01*
X054432Y032289D01*
X054430Y032266D01*
X057180Y033666D02*
X057130Y034816D01*
X057030Y034916D01*
X058230Y034816D02*
X058230Y033616D01*
X058232Y033599D01*
X058236Y033582D01*
X058243Y033566D01*
X058253Y033552D01*
X058266Y033539D01*
X058280Y033529D01*
X058296Y033522D01*
X058313Y033518D01*
X058330Y033516D01*
X061030Y033516D01*
X061047Y033518D01*
X061064Y033522D01*
X061080Y033529D01*
X061094Y033539D01*
X061107Y033552D01*
X061117Y033566D01*
X061124Y033582D01*
X061128Y033599D01*
X061130Y033616D01*
X061130Y034816D01*
X061128Y034833D01*
X061124Y034850D01*
X061117Y034866D01*
X061107Y034880D01*
X061094Y034893D01*
X061080Y034903D01*
X061064Y034910D01*
X061047Y034914D01*
X061030Y034916D01*
X058330Y034916D01*
X058313Y034914D01*
X058296Y034910D01*
X058280Y034903D01*
X058266Y034893D01*
X058253Y034880D01*
X058243Y034866D01*
X058236Y034850D01*
X058232Y034833D01*
X058230Y034816D01*
X059080Y034216D02*
X059560Y034216D01*
X059810Y034216D02*
X060280Y034216D01*
X067980Y035066D02*
X067980Y031366D01*
X068080Y031266D01*
X069230Y031216D01*
X069230Y035216D02*
X068080Y035166D01*
X067980Y035066D01*
X067630Y026466D02*
X069730Y026466D01*
X069753Y026464D01*
X069776Y026459D01*
X069798Y026450D01*
X069818Y026437D01*
X069836Y026422D01*
X069851Y026404D01*
X069864Y026384D01*
X069873Y026362D01*
X069878Y026339D01*
X069880Y026316D01*
X069880Y025966D01*
X069780Y025866D01*
X069780Y020566D01*
X069880Y020466D01*
X069880Y020116D01*
X069878Y020093D01*
X069873Y020070D01*
X069864Y020048D01*
X069851Y020028D01*
X069836Y020010D01*
X069818Y019995D01*
X069798Y019982D01*
X069776Y019973D01*
X069753Y019968D01*
X069730Y019966D01*
X067630Y019966D01*
X067607Y019968D01*
X067584Y019973D01*
X067562Y019982D01*
X067542Y019995D01*
X067524Y020010D01*
X067509Y020028D01*
X067496Y020048D01*
X067487Y020070D01*
X067482Y020093D01*
X067480Y020116D01*
X067480Y020466D01*
X067580Y020566D01*
X067580Y025866D01*
X067480Y025966D01*
X067480Y026316D01*
X067482Y026339D01*
X067487Y026362D01*
X067496Y026384D01*
X067509Y026404D01*
X067524Y026422D01*
X067542Y026437D01*
X067562Y026450D01*
X067584Y026459D01*
X067607Y026464D01*
X067630Y026466D01*
X061380Y023816D02*
X061380Y023466D01*
X061280Y023366D01*
X061280Y018066D01*
X061380Y017966D01*
X061380Y017616D01*
X061378Y017593D01*
X061373Y017570D01*
X061364Y017548D01*
X061351Y017528D01*
X061336Y017510D01*
X061318Y017495D01*
X061298Y017482D01*
X061276Y017473D01*
X061253Y017468D01*
X061230Y017466D01*
X059130Y017466D01*
X059107Y017468D01*
X059084Y017473D01*
X059062Y017482D01*
X059042Y017495D01*
X059024Y017510D01*
X059009Y017528D01*
X058996Y017548D01*
X058987Y017570D01*
X058982Y017593D01*
X058980Y017616D01*
X058980Y017966D01*
X059080Y018066D01*
X059080Y023366D01*
X058980Y023466D01*
X058980Y023816D01*
X058982Y023839D01*
X058987Y023862D01*
X058996Y023884D01*
X059009Y023904D01*
X059024Y023922D01*
X059042Y023937D01*
X059062Y023950D01*
X059084Y023959D01*
X059107Y023964D01*
X059130Y023966D01*
X061230Y023966D01*
X061253Y023964D01*
X061276Y023959D01*
X061298Y023950D01*
X061318Y023937D01*
X061336Y023922D01*
X061351Y023904D01*
X061364Y023884D01*
X061373Y023862D01*
X061378Y023839D01*
X061380Y023816D01*
X056480Y025516D02*
X056180Y025516D01*
X056330Y025666D02*
X056330Y025366D01*
X056130Y024566D02*
X055680Y024566D01*
X055230Y024566D01*
X055230Y024316D01*
X056130Y024316D01*
X056130Y024566D01*
X055680Y024566D02*
X055680Y024666D01*
X053930Y024216D02*
X053932Y024299D01*
X053938Y024382D01*
X053948Y024465D01*
X053962Y024547D01*
X053979Y024629D01*
X054001Y024709D01*
X054026Y024788D01*
X054055Y024866D01*
X054088Y024943D01*
X054125Y025018D01*
X054164Y025091D01*
X054208Y025162D01*
X054254Y025231D01*
X054304Y025298D01*
X054357Y025362D01*
X054413Y025424D01*
X054472Y025483D01*
X054534Y025539D01*
X054598Y025592D01*
X054665Y025642D01*
X054734Y025688D01*
X054805Y025732D01*
X054878Y025771D01*
X054953Y025808D01*
X055030Y025841D01*
X055108Y025870D01*
X055187Y025895D01*
X055267Y025917D01*
X055349Y025934D01*
X055431Y025948D01*
X055514Y025958D01*
X055597Y025964D01*
X055680Y025966D01*
X055763Y025964D01*
X055846Y025958D01*
X055929Y025948D01*
X056011Y025934D01*
X056093Y025917D01*
X056173Y025895D01*
X056252Y025870D01*
X056330Y025841D01*
X056407Y025808D01*
X056482Y025771D01*
X056555Y025732D01*
X056626Y025688D01*
X056695Y025642D01*
X056762Y025592D01*
X056826Y025539D01*
X056888Y025483D01*
X056947Y025424D01*
X057003Y025362D01*
X057056Y025298D01*
X057106Y025231D01*
X057152Y025162D01*
X057196Y025091D01*
X057235Y025018D01*
X057272Y024943D01*
X057305Y024866D01*
X057334Y024788D01*
X057359Y024709D01*
X057381Y024629D01*
X057398Y024547D01*
X057412Y024465D01*
X057422Y024382D01*
X057428Y024299D01*
X057430Y024216D01*
X057428Y024133D01*
X057422Y024050D01*
X057412Y023967D01*
X057398Y023885D01*
X057381Y023803D01*
X057359Y023723D01*
X057334Y023644D01*
X057305Y023566D01*
X057272Y023489D01*
X057235Y023414D01*
X057196Y023341D01*
X057152Y023270D01*
X057106Y023201D01*
X057056Y023134D01*
X057003Y023070D01*
X056947Y023008D01*
X056888Y022949D01*
X056826Y022893D01*
X056762Y022840D01*
X056695Y022790D01*
X056626Y022744D01*
X056555Y022700D01*
X056482Y022661D01*
X056407Y022624D01*
X056330Y022591D01*
X056252Y022562D01*
X056173Y022537D01*
X056093Y022515D01*
X056011Y022498D01*
X055929Y022484D01*
X055846Y022474D01*
X055763Y022468D01*
X055680Y022466D01*
X055597Y022468D01*
X055514Y022474D01*
X055431Y022484D01*
X055349Y022498D01*
X055267Y022515D01*
X055187Y022537D01*
X055108Y022562D01*
X055030Y022591D01*
X054953Y022624D01*
X054878Y022661D01*
X054805Y022700D01*
X054734Y022744D01*
X054665Y022790D01*
X054598Y022840D01*
X054534Y022893D01*
X054472Y022949D01*
X054413Y023008D01*
X054357Y023070D01*
X054304Y023134D01*
X054254Y023201D01*
X054208Y023270D01*
X054164Y023341D01*
X054125Y023414D01*
X054088Y023489D01*
X054055Y023566D01*
X054026Y023644D01*
X054001Y023723D01*
X053979Y023803D01*
X053962Y023885D01*
X053948Y023967D01*
X053938Y024050D01*
X053932Y024133D01*
X053930Y024216D01*
X055680Y023966D02*
X055680Y023766D01*
X049730Y022216D02*
X048580Y022266D01*
X048480Y022366D01*
X048480Y026066D01*
X048580Y026166D01*
X049730Y026216D01*
X043880Y026466D02*
X043780Y026366D01*
X043780Y021066D01*
X043880Y020966D01*
X043880Y020616D01*
X043878Y020593D01*
X043873Y020570D01*
X043864Y020548D01*
X043851Y020528D01*
X043836Y020510D01*
X043818Y020495D01*
X043798Y020482D01*
X043776Y020473D01*
X043753Y020468D01*
X043730Y020466D01*
X041630Y020466D01*
X041607Y020468D01*
X041584Y020473D01*
X041562Y020482D01*
X041542Y020495D01*
X041524Y020510D01*
X041509Y020528D01*
X041496Y020548D01*
X041487Y020570D01*
X041482Y020593D01*
X041480Y020616D01*
X041480Y020966D01*
X041580Y021066D01*
X041580Y026366D01*
X041480Y026466D01*
X041480Y026816D01*
X041482Y026839D01*
X041487Y026862D01*
X041496Y026884D01*
X041509Y026904D01*
X041524Y026922D01*
X041542Y026937D01*
X041562Y026950D01*
X041584Y026959D01*
X041607Y026964D01*
X041630Y026966D01*
X043730Y026966D01*
X043753Y026964D01*
X043776Y026959D01*
X043798Y026950D01*
X043818Y026937D01*
X043836Y026922D01*
X043851Y026904D01*
X043864Y026884D01*
X043873Y026862D01*
X043878Y026839D01*
X043880Y026816D01*
X043880Y026466D01*
X039880Y026466D02*
X039880Y026816D01*
X039878Y026839D01*
X039873Y026862D01*
X039864Y026884D01*
X039851Y026904D01*
X039836Y026922D01*
X039818Y026937D01*
X039798Y026950D01*
X039776Y026959D01*
X039753Y026964D01*
X039730Y026966D01*
X037630Y026966D01*
X037607Y026964D01*
X037584Y026959D01*
X037562Y026950D01*
X037542Y026937D01*
X037524Y026922D01*
X037509Y026904D01*
X037496Y026884D01*
X037487Y026862D01*
X037482Y026839D01*
X037480Y026816D01*
X037480Y026466D01*
X037580Y026366D01*
X037580Y021066D01*
X037480Y020966D01*
X037480Y020616D01*
X037482Y020593D01*
X037487Y020570D01*
X037496Y020548D01*
X037509Y020528D01*
X037524Y020510D01*
X037542Y020495D01*
X037562Y020482D01*
X037584Y020473D01*
X037607Y020468D01*
X037630Y020466D01*
X039730Y020466D01*
X039753Y020468D01*
X039776Y020473D01*
X039798Y020482D01*
X039818Y020495D01*
X039836Y020510D01*
X039851Y020528D01*
X039864Y020548D01*
X039873Y020570D01*
X039878Y020593D01*
X039880Y020616D01*
X039880Y020966D01*
X039780Y021066D01*
X039780Y026366D01*
X039880Y026466D01*
X037930Y030016D02*
X037580Y030016D01*
X037557Y030018D01*
X037534Y030023D01*
X037512Y030032D01*
X037492Y030045D01*
X037474Y030060D01*
X037459Y030078D01*
X037446Y030098D01*
X037437Y030120D01*
X037432Y030143D01*
X037430Y030166D01*
X037430Y032266D01*
X037432Y032289D01*
X037437Y032312D01*
X037446Y032334D01*
X037459Y032354D01*
X037474Y032372D01*
X037492Y032387D01*
X037512Y032400D01*
X037534Y032409D01*
X037557Y032414D01*
X037580Y032416D01*
X037930Y032416D01*
X038030Y032316D01*
X043330Y032316D01*
X043430Y032416D01*
X043780Y032416D01*
X043803Y032414D01*
X043826Y032409D01*
X043848Y032400D01*
X043868Y032387D01*
X043886Y032372D01*
X043901Y032354D01*
X043914Y032334D01*
X043923Y032312D01*
X043928Y032289D01*
X043930Y032266D01*
X043930Y030166D01*
X043928Y030143D01*
X043923Y030120D01*
X043914Y030098D01*
X043901Y030078D01*
X043886Y030060D01*
X043868Y030045D01*
X043848Y030032D01*
X043826Y030023D01*
X043803Y030018D01*
X043780Y030016D01*
X043430Y030016D01*
X043330Y030116D01*
X038030Y030116D01*
X037930Y030016D01*
X041830Y033516D02*
X044530Y033516D01*
X044547Y033518D01*
X044564Y033522D01*
X044580Y033529D01*
X044594Y033539D01*
X044607Y033552D01*
X044617Y033566D01*
X044624Y033582D01*
X044628Y033599D01*
X044630Y033616D01*
X044630Y034816D01*
X044628Y034833D01*
X044624Y034850D01*
X044617Y034866D01*
X044607Y034880D01*
X044594Y034893D01*
X044580Y034903D01*
X044564Y034910D01*
X044547Y034914D01*
X044530Y034916D01*
X041830Y034916D01*
X041813Y034914D01*
X041796Y034910D01*
X041780Y034903D01*
X041766Y034893D01*
X041753Y034880D01*
X041743Y034866D01*
X041736Y034850D01*
X041732Y034833D01*
X041730Y034816D01*
X041730Y033616D01*
X041732Y033599D01*
X041736Y033582D01*
X041743Y033566D01*
X041753Y033552D01*
X041766Y033539D01*
X041780Y033529D01*
X041796Y033522D01*
X041813Y033518D01*
X041830Y033516D01*
X040680Y033666D02*
X040630Y034816D01*
X040530Y034916D01*
X036830Y034916D01*
X036730Y034816D01*
X036680Y033666D01*
X042580Y034216D02*
X043060Y034216D01*
X043310Y034216D02*
X043780Y034216D01*
X056330Y019666D02*
X056330Y019366D01*
X056480Y019516D02*
X056180Y019516D01*
X056130Y018566D02*
X055680Y018566D01*
X055230Y018566D01*
X055230Y018316D01*
X056130Y018316D01*
X056130Y018566D01*
X055680Y018566D02*
X055680Y018666D01*
X053930Y018216D02*
X053932Y018299D01*
X053938Y018382D01*
X053948Y018465D01*
X053962Y018547D01*
X053979Y018629D01*
X054001Y018709D01*
X054026Y018788D01*
X054055Y018866D01*
X054088Y018943D01*
X054125Y019018D01*
X054164Y019091D01*
X054208Y019162D01*
X054254Y019231D01*
X054304Y019298D01*
X054357Y019362D01*
X054413Y019424D01*
X054472Y019483D01*
X054534Y019539D01*
X054598Y019592D01*
X054665Y019642D01*
X054734Y019688D01*
X054805Y019732D01*
X054878Y019771D01*
X054953Y019808D01*
X055030Y019841D01*
X055108Y019870D01*
X055187Y019895D01*
X055267Y019917D01*
X055349Y019934D01*
X055431Y019948D01*
X055514Y019958D01*
X055597Y019964D01*
X055680Y019966D01*
X055763Y019964D01*
X055846Y019958D01*
X055929Y019948D01*
X056011Y019934D01*
X056093Y019917D01*
X056173Y019895D01*
X056252Y019870D01*
X056330Y019841D01*
X056407Y019808D01*
X056482Y019771D01*
X056555Y019732D01*
X056626Y019688D01*
X056695Y019642D01*
X056762Y019592D01*
X056826Y019539D01*
X056888Y019483D01*
X056947Y019424D01*
X057003Y019362D01*
X057056Y019298D01*
X057106Y019231D01*
X057152Y019162D01*
X057196Y019091D01*
X057235Y019018D01*
X057272Y018943D01*
X057305Y018866D01*
X057334Y018788D01*
X057359Y018709D01*
X057381Y018629D01*
X057398Y018547D01*
X057412Y018465D01*
X057422Y018382D01*
X057428Y018299D01*
X057430Y018216D01*
X057428Y018133D01*
X057422Y018050D01*
X057412Y017967D01*
X057398Y017885D01*
X057381Y017803D01*
X057359Y017723D01*
X057334Y017644D01*
X057305Y017566D01*
X057272Y017489D01*
X057235Y017414D01*
X057196Y017341D01*
X057152Y017270D01*
X057106Y017201D01*
X057056Y017134D01*
X057003Y017070D01*
X056947Y017008D01*
X056888Y016949D01*
X056826Y016893D01*
X056762Y016840D01*
X056695Y016790D01*
X056626Y016744D01*
X056555Y016700D01*
X056482Y016661D01*
X056407Y016624D01*
X056330Y016591D01*
X056252Y016562D01*
X056173Y016537D01*
X056093Y016515D01*
X056011Y016498D01*
X055929Y016484D01*
X055846Y016474D01*
X055763Y016468D01*
X055680Y016466D01*
X055597Y016468D01*
X055514Y016474D01*
X055431Y016484D01*
X055349Y016498D01*
X055267Y016515D01*
X055187Y016537D01*
X055108Y016562D01*
X055030Y016591D01*
X054953Y016624D01*
X054878Y016661D01*
X054805Y016700D01*
X054734Y016744D01*
X054665Y016790D01*
X054598Y016840D01*
X054534Y016893D01*
X054472Y016949D01*
X054413Y017008D01*
X054357Y017070D01*
X054304Y017134D01*
X054254Y017201D01*
X054208Y017270D01*
X054164Y017341D01*
X054125Y017414D01*
X054088Y017489D01*
X054055Y017566D01*
X054026Y017644D01*
X054001Y017723D01*
X053979Y017803D01*
X053962Y017885D01*
X053948Y017967D01*
X053938Y018050D01*
X053932Y018133D01*
X053930Y018216D01*
X052880Y017816D02*
X052880Y017466D01*
X052780Y017366D01*
X052780Y012066D01*
X052880Y011966D01*
X052880Y011616D01*
X052878Y011593D01*
X052873Y011570D01*
X052864Y011548D01*
X052851Y011528D01*
X052836Y011510D01*
X052818Y011495D01*
X052798Y011482D01*
X052776Y011473D01*
X052753Y011468D01*
X052730Y011466D01*
X050630Y011466D01*
X050607Y011468D01*
X050584Y011473D01*
X050562Y011482D01*
X050542Y011495D01*
X050524Y011510D01*
X050509Y011528D01*
X050496Y011548D01*
X050487Y011570D01*
X050482Y011593D01*
X050480Y011616D01*
X050480Y011966D01*
X050580Y012066D01*
X050580Y017366D01*
X050480Y017466D01*
X050480Y017816D01*
X050482Y017839D01*
X050487Y017862D01*
X050496Y017884D01*
X050509Y017904D01*
X050524Y017922D01*
X050542Y017937D01*
X050562Y017950D01*
X050584Y017959D01*
X050607Y017964D01*
X050630Y017966D01*
X052730Y017966D01*
X052753Y017964D01*
X052776Y017959D01*
X052798Y017950D01*
X052818Y017937D01*
X052836Y017922D01*
X052851Y017904D01*
X052864Y017884D01*
X052873Y017862D01*
X052878Y017839D01*
X052880Y017816D01*
X055680Y017766D02*
X055680Y017966D01*
X056330Y012666D02*
X056330Y012366D01*
X056480Y012516D02*
X056180Y012516D01*
X056130Y011566D02*
X055680Y011566D01*
X055230Y011566D01*
X055230Y011316D01*
X056130Y011316D01*
X056130Y011566D01*
X055680Y011566D02*
X055680Y011666D01*
X053930Y011216D02*
X053932Y011299D01*
X053938Y011382D01*
X053948Y011465D01*
X053962Y011547D01*
X053979Y011629D01*
X054001Y011709D01*
X054026Y011788D01*
X054055Y011866D01*
X054088Y011943D01*
X054125Y012018D01*
X054164Y012091D01*
X054208Y012162D01*
X054254Y012231D01*
X054304Y012298D01*
X054357Y012362D01*
X054413Y012424D01*
X054472Y012483D01*
X054534Y012539D01*
X054598Y012592D01*
X054665Y012642D01*
X054734Y012688D01*
X054805Y012732D01*
X054878Y012771D01*
X054953Y012808D01*
X055030Y012841D01*
X055108Y012870D01*
X055187Y012895D01*
X055267Y012917D01*
X055349Y012934D01*
X055431Y012948D01*
X055514Y012958D01*
X055597Y012964D01*
X055680Y012966D01*
X055763Y012964D01*
X055846Y012958D01*
X055929Y012948D01*
X056011Y012934D01*
X056093Y012917D01*
X056173Y012895D01*
X056252Y012870D01*
X056330Y012841D01*
X056407Y012808D01*
X056482Y012771D01*
X056555Y012732D01*
X056626Y012688D01*
X056695Y012642D01*
X056762Y012592D01*
X056826Y012539D01*
X056888Y012483D01*
X056947Y012424D01*
X057003Y012362D01*
X057056Y012298D01*
X057106Y012231D01*
X057152Y012162D01*
X057196Y012091D01*
X057235Y012018D01*
X057272Y011943D01*
X057305Y011866D01*
X057334Y011788D01*
X057359Y011709D01*
X057381Y011629D01*
X057398Y011547D01*
X057412Y011465D01*
X057422Y011382D01*
X057428Y011299D01*
X057430Y011216D01*
X057428Y011133D01*
X057422Y011050D01*
X057412Y010967D01*
X057398Y010885D01*
X057381Y010803D01*
X057359Y010723D01*
X057334Y010644D01*
X057305Y010566D01*
X057272Y010489D01*
X057235Y010414D01*
X057196Y010341D01*
X057152Y010270D01*
X057106Y010201D01*
X057056Y010134D01*
X057003Y010070D01*
X056947Y010008D01*
X056888Y009949D01*
X056826Y009893D01*
X056762Y009840D01*
X056695Y009790D01*
X056626Y009744D01*
X056555Y009700D01*
X056482Y009661D01*
X056407Y009624D01*
X056330Y009591D01*
X056252Y009562D01*
X056173Y009537D01*
X056093Y009515D01*
X056011Y009498D01*
X055929Y009484D01*
X055846Y009474D01*
X055763Y009468D01*
X055680Y009466D01*
X055597Y009468D01*
X055514Y009474D01*
X055431Y009484D01*
X055349Y009498D01*
X055267Y009515D01*
X055187Y009537D01*
X055108Y009562D01*
X055030Y009591D01*
X054953Y009624D01*
X054878Y009661D01*
X054805Y009700D01*
X054734Y009744D01*
X054665Y009790D01*
X054598Y009840D01*
X054534Y009893D01*
X054472Y009949D01*
X054413Y010008D01*
X054357Y010070D01*
X054304Y010134D01*
X054254Y010201D01*
X054208Y010270D01*
X054164Y010341D01*
X054125Y010414D01*
X054088Y010489D01*
X054055Y010566D01*
X054026Y010644D01*
X054001Y010723D01*
X053979Y010803D01*
X053962Y010885D01*
X053948Y010967D01*
X053938Y011050D01*
X053932Y011133D01*
X053930Y011216D01*
X055680Y010966D02*
X055680Y010766D01*
X058980Y010816D02*
X058980Y010466D01*
X059080Y010366D01*
X059080Y005066D01*
X058980Y004966D01*
X058980Y004616D01*
X058982Y004593D01*
X058987Y004570D01*
X058996Y004548D01*
X059009Y004528D01*
X059024Y004510D01*
X059042Y004495D01*
X059062Y004482D01*
X059084Y004473D01*
X059107Y004468D01*
X059130Y004466D01*
X061230Y004466D01*
X061253Y004468D01*
X061276Y004473D01*
X061298Y004482D01*
X061318Y004495D01*
X061336Y004510D01*
X061351Y004528D01*
X061364Y004548D01*
X061373Y004570D01*
X061378Y004593D01*
X061380Y004616D01*
X061380Y004966D01*
X061280Y005066D01*
X061280Y010366D01*
X061380Y010466D01*
X061380Y010816D01*
X061378Y010839D01*
X061373Y010862D01*
X061364Y010884D01*
X061351Y010904D01*
X061336Y010922D01*
X061318Y010937D01*
X061298Y010950D01*
X061276Y010959D01*
X061253Y010964D01*
X061230Y010966D01*
X059130Y010966D01*
X059107Y010964D01*
X059084Y010959D01*
X059062Y010950D01*
X059042Y010937D01*
X059024Y010922D01*
X059009Y010904D01*
X058996Y010884D01*
X058987Y010862D01*
X058982Y010839D01*
X058980Y010816D01*
X032380Y010316D02*
X032380Y009966D01*
X032280Y009866D01*
X032280Y004566D01*
X032380Y004466D01*
X032380Y004116D01*
X032378Y004093D01*
X032373Y004070D01*
X032364Y004048D01*
X032351Y004028D01*
X032336Y004010D01*
X032318Y003995D01*
X032298Y003982D01*
X032276Y003973D01*
X032253Y003968D01*
X032230Y003966D01*
X030130Y003966D01*
X030107Y003968D01*
X030084Y003973D01*
X030062Y003982D01*
X030042Y003995D01*
X030024Y004010D01*
X030009Y004028D01*
X029996Y004048D01*
X029987Y004070D01*
X029982Y004093D01*
X029980Y004116D01*
X029980Y004466D01*
X030080Y004566D01*
X030080Y009866D01*
X029980Y009966D01*
X029980Y010316D01*
X029982Y010339D01*
X029987Y010362D01*
X029996Y010384D01*
X030009Y010404D01*
X030024Y010422D01*
X030042Y010437D01*
X030062Y010450D01*
X030084Y010459D01*
X030107Y010464D01*
X030130Y010466D01*
X032230Y010466D01*
X032253Y010464D01*
X032276Y010459D01*
X032298Y010450D01*
X032318Y010437D01*
X032336Y010422D01*
X032351Y010404D01*
X032364Y010384D01*
X032373Y010362D01*
X032378Y010339D01*
X032380Y010316D01*
X026480Y007366D02*
X025880Y007366D01*
X026180Y007666D02*
X026180Y007066D01*
X026180Y005516D02*
X026180Y005066D01*
X025430Y005066D01*
X025430Y004816D01*
X026930Y004816D01*
X026930Y005066D01*
X026180Y005066D01*
X022930Y004716D02*
X022932Y004829D01*
X022938Y004943D01*
X022948Y005056D01*
X022962Y005168D01*
X022979Y005280D01*
X023001Y005392D01*
X023027Y005502D01*
X023056Y005612D01*
X023089Y005720D01*
X023126Y005828D01*
X023167Y005933D01*
X023211Y006038D01*
X023259Y006141D01*
X023310Y006242D01*
X023365Y006341D01*
X023424Y006438D01*
X023486Y006533D01*
X023551Y006626D01*
X023619Y006717D01*
X023690Y006805D01*
X023765Y006891D01*
X023842Y006974D01*
X023922Y007054D01*
X024005Y007131D01*
X024091Y007206D01*
X024179Y007277D01*
X024270Y007345D01*
X024363Y007410D01*
X024458Y007472D01*
X024555Y007531D01*
X024654Y007586D01*
X024755Y007637D01*
X024858Y007685D01*
X024963Y007729D01*
X025068Y007770D01*
X025176Y007807D01*
X025284Y007840D01*
X025394Y007869D01*
X025504Y007895D01*
X025616Y007917D01*
X025728Y007934D01*
X025840Y007948D01*
X025953Y007958D01*
X026067Y007964D01*
X026180Y007966D01*
X026293Y007964D01*
X026407Y007958D01*
X026520Y007948D01*
X026632Y007934D01*
X026744Y007917D01*
X026856Y007895D01*
X026966Y007869D01*
X027076Y007840D01*
X027184Y007807D01*
X027292Y007770D01*
X027397Y007729D01*
X027502Y007685D01*
X027605Y007637D01*
X027706Y007586D01*
X027805Y007531D01*
X027902Y007472D01*
X027997Y007410D01*
X028090Y007345D01*
X028181Y007277D01*
X028269Y007206D01*
X028355Y007131D01*
X028438Y007054D01*
X028518Y006974D01*
X028595Y006891D01*
X028670Y006805D01*
X028741Y006717D01*
X028809Y006626D01*
X028874Y006533D01*
X028936Y006438D01*
X028995Y006341D01*
X029050Y006242D01*
X029101Y006141D01*
X029149Y006038D01*
X029193Y005933D01*
X029234Y005828D01*
X029271Y005720D01*
X029304Y005612D01*
X029333Y005502D01*
X029359Y005392D01*
X029381Y005280D01*
X029398Y005168D01*
X029412Y005056D01*
X029422Y004943D01*
X029428Y004829D01*
X029430Y004716D01*
X029428Y004603D01*
X029422Y004489D01*
X029412Y004376D01*
X029398Y004264D01*
X029381Y004152D01*
X029359Y004040D01*
X029333Y003930D01*
X029304Y003820D01*
X029271Y003712D01*
X029234Y003604D01*
X029193Y003499D01*
X029149Y003394D01*
X029101Y003291D01*
X029050Y003190D01*
X028995Y003091D01*
X028936Y002994D01*
X028874Y002899D01*
X028809Y002806D01*
X028741Y002715D01*
X028670Y002627D01*
X028595Y002541D01*
X028518Y002458D01*
X028438Y002378D01*
X028355Y002301D01*
X028269Y002226D01*
X028181Y002155D01*
X028090Y002087D01*
X027997Y002022D01*
X027902Y001960D01*
X027805Y001901D01*
X027706Y001846D01*
X027605Y001795D01*
X027502Y001747D01*
X027397Y001703D01*
X027292Y001662D01*
X027184Y001625D01*
X027076Y001592D01*
X026966Y001563D01*
X026856Y001537D01*
X026744Y001515D01*
X026632Y001498D01*
X026520Y001484D01*
X026407Y001474D01*
X026293Y001468D01*
X026180Y001466D01*
X026067Y001468D01*
X025953Y001474D01*
X025840Y001484D01*
X025728Y001498D01*
X025616Y001515D01*
X025504Y001537D01*
X025394Y001563D01*
X025284Y001592D01*
X025176Y001625D01*
X025068Y001662D01*
X024963Y001703D01*
X024858Y001747D01*
X024755Y001795D01*
X024654Y001846D01*
X024555Y001901D01*
X024458Y001960D01*
X024363Y002022D01*
X024270Y002087D01*
X024179Y002155D01*
X024091Y002226D01*
X024005Y002301D01*
X023922Y002378D01*
X023842Y002458D01*
X023765Y002541D01*
X023690Y002627D01*
X023619Y002715D01*
X023551Y002806D01*
X023486Y002899D01*
X023424Y002994D01*
X023365Y003091D01*
X023310Y003190D01*
X023259Y003291D01*
X023211Y003394D01*
X023167Y003499D01*
X023126Y003604D01*
X023089Y003712D01*
X023056Y003820D01*
X023027Y003930D01*
X023001Y004040D01*
X022979Y004152D01*
X022962Y004264D01*
X022948Y004376D01*
X022938Y004489D01*
X022932Y004603D01*
X022930Y004716D01*
X026180Y004466D02*
X026180Y003916D01*
D11*
X014640Y020946D03*
X003220Y024486D03*
X014640Y031446D03*
X003220Y034986D03*
X036910Y038256D03*
X040450Y034676D03*
X053910Y038256D03*
X056950Y034676D03*
X068220Y034986D03*
X048720Y025986D03*
D12*
X050030Y024216D03*
X069530Y033216D03*
X013330Y033216D03*
X004530Y033216D03*
X004530Y022716D03*
X013330Y022716D03*
D13*
X013580Y024441D03*
X013580Y020991D03*
X004280Y020991D03*
X004280Y024441D03*
X004280Y031491D03*
X004280Y034941D03*
X013580Y034941D03*
X013580Y031491D03*
X049780Y025941D03*
X049780Y022491D03*
X069280Y031491D03*
X069280Y034941D03*
D14*
X069280Y033216D03*
X049780Y024216D03*
X013580Y022716D03*
X004280Y022716D03*
X004280Y033216D03*
X013580Y033216D03*
D15*
X026180Y036991D03*
X026180Y028991D03*
X026180Y020491D03*
X026180Y012491D03*
X026180Y004491D03*
D16*
X031180Y003586D03*
X020680Y010086D03*
X031180Y010846D03*
X031180Y017086D03*
X038680Y020086D03*
X042680Y020086D03*
X051680Y018346D03*
X060180Y017086D03*
X068680Y019586D03*
X060180Y024346D03*
X068680Y026846D03*
X042680Y027346D03*
X038680Y027346D03*
X031180Y024346D03*
X020680Y024086D03*
X020680Y017346D03*
X031180Y030586D03*
X020680Y031346D03*
X031180Y037846D03*
X060180Y011346D03*
X051680Y011086D03*
X060180Y004086D03*
D17*
X055180Y033366D03*
X055680Y039566D03*
X038680Y039566D03*
X038680Y033366D03*
D18*
X036955Y033616D03*
X040405Y033616D03*
X040405Y039316D03*
X036955Y039316D03*
X053455Y033616D03*
X056905Y033616D03*
X057405Y039316D03*
X053955Y039316D03*
D19*
X055180Y039316D03*
X056180Y039316D03*
X039180Y039316D03*
X038180Y039316D03*
D20*
X038680Y033616D03*
X055180Y033616D03*
D21*
X054050Y031216D03*
X061310Y031216D03*
X044310Y031216D03*
X037050Y031216D03*
D22*
X043060Y033966D02*
X043060Y034216D01*
X043060Y034466D01*
X043310Y034466D02*
X043310Y034216D01*
X043310Y033966D01*
X059560Y033966D02*
X059560Y034216D01*
X059560Y034466D01*
X059810Y034466D02*
X059810Y034216D01*
X059810Y033966D01*
D23*
X055680Y023991D03*
X055680Y017991D03*
X055680Y010991D03*
D24*
X048845Y038012D02*
X048845Y038239D01*
X048845Y038125D02*
X048505Y038125D01*
X048618Y038012D01*
M02*
