M48
INCH
T01C0.0393
%
T01
X-030000Y+003500
X-030000Y+002500
X-030000Y+001500
X-030000Y+000500
X-025000Y+007500
X-025000Y+009500
X-021500Y+007500
X-021500Y+009500
X-025000Y-005500
X-025000Y-003500
X-021500Y-005500
X-021500Y-003500
X-012000Y+022000
X-012000Y+018850
X-012000Y+013000
X-012000Y+009850
X-012000Y+004000
X-012000Y+000850
X-012000Y-005000
X-012000Y-008149
X-012000Y-013500
X-012000Y-016649
X-016500Y+016000
X-007500Y+016000
X-016500Y+007000
X-007500Y+007000
X-016500Y-002000
X-007500Y-002000
X-016500Y-011000
X-007500Y-011000
X-016500Y-019500
X-007500Y-019500
X+005000Y+023500
X+005000Y+022000
X+005000Y+020500
X+003000Y+005500
X+003000Y+014500
X+007000Y+005500
X+007000Y+014500
X+005000Y+003000
X+005000Y+001000
X+005000Y-003000
X+005000Y-005000
X+005000Y-010500
X+005000Y-012500
X+005000Y-017500
X+005000Y-019500
X+009500Y-001000
X+000500Y-001000
X+009500Y-008000
X+000500Y-008000
X+009500Y-015000
X+000500Y-015000
X+009000Y+022000
X+011000Y+022000
X+015000Y+019500
X+009000Y+019500
X-002000Y+017000
X+007000Y+017000
X+017000Y+002500
X+017000Y+001000
X+017000Y-000500
X+017000Y-008000
X+017000Y-006000
X+017000Y-010500
X+017000Y-019500
X+021500Y+001000
X+023500Y+001000
X+027500Y-001500
X+021500Y-001500
X+026000Y-003500
X+017000Y-003500
X+024000Y-009000
X+024000Y-010000
X+024000Y-011000
X+024000Y-012000
X+024000Y+012500
X+024000Y+011500
X+024000Y+010500
X+024000Y+009500
M30
