M48
INCH
T01C0.0393
T02C0.0400
%
T01
X-002000Y-030000
X+001000Y-030000
X-006791Y-028729
X-004500Y-029000
X-026515Y+008500
X-025515Y+008500
X-028000Y+005500
X-028000Y+001500
X-022500Y+001500
X-022500Y+005500
X-028000Y-001500
X-026000Y-001500
X-023500Y-001500
X-021500Y-001500
X-026500Y-004500
X-027500Y-004500
X-025000Y-004500
X-024000Y-004500
X+000500Y+008500
X+001500Y+008500
X+000500Y+005500
X+000500Y+001500
X-001000Y+005500
X-001000Y+001500
X+002500Y+001500
X+002500Y+005500
X+004000Y+001500
X+004000Y+005500
X-001000Y-001500
X+001000Y-001500
X+003500Y-001500
X+005500Y-001500
X+000500Y-004500
X-000500Y-004500
X+018000Y+008500
X+019000Y+008500
X+018000Y+005500
X+018000Y+001500
X+016500Y+005500
X+016500Y+001500
X+020000Y+001500
X+020000Y+005500
X+021500Y+001500
X+021500Y+005500
X+016500Y-001500
X+018500Y-001500
X+021000Y-001500
X+023000Y-001500
X+018000Y-004500
X+017000Y-004500
X-026500Y+005500
X-026500Y+001500
X-024000Y+001500
X-024000Y+005500
X-027500Y-007500
X-026500Y-007500
X-025500Y-007500
X-022500Y-019000
X-021500Y-019000
X-020500Y-019000
X-019500Y-019000
X-019500Y-016000
X-020500Y-016000
X-021500Y-016000
X-022500Y-016000
X-012500Y-019000
X-011500Y-019000
X-010500Y-019000
X-009500Y-019000
X-009500Y-016000
X-010500Y-016000
X-011500Y-016000
X-012500Y-016000
X-019500Y-021500
X-015500Y-021500
X-026500Y-024500
X-022500Y-024500
X-026500Y-016000
X-026500Y-020000
X-025500Y-023000
X-024500Y-023000
X-020500Y-014500
X-019500Y-014500
X-022500Y-015000
X-026500Y-015000
X-025000Y-013500
X-024000Y-013500
X-020500Y-020000
X-016500Y-020000
X-016500Y-023000
X-012500Y-023000
X-014200Y-019000
X-015000Y-019000
X-015800Y-019000
X-013500Y-020500
X-009500Y-020500
X-011500Y-015000
X-011500Y-011000
X-008000Y-019000
X-004000Y-019000
X-014000Y-017500
X-018000Y-017500
X-010500Y-013500
X-009500Y-013500
X-020500Y-025000
X-016500Y-025000
X-020500Y-026500
X-016500Y-026500
X-017700Y-029000
X-018500Y-029000
X-019300Y-029000
X-011500Y-027500
X-015500Y-027500
X-011500Y-026000
X-015500Y-026000
X-010500Y-026000
X-010500Y-022000
X-008000Y-026000
X-004000Y-026000
X-008000Y-018000
X-004000Y-018000
X+000800Y-027500
X+000000Y-027500
X-000800Y-027500
X-008000Y-016000
X-007000Y-016000
X-007000Y-020500
X-008000Y-020500
X-026500Y-009500
X-025500Y-009500
X-024800Y-029500
X-024000Y-029500
X-023200Y-029500
X-028000Y-027500
X-024000Y-027500
X-020000Y-033000
X-024000Y-033000
X-007800Y-024500
X-007000Y-024500
X-006200Y-024500
X-004500Y-020500
X-004500Y-024500
X-008000Y-031500
X-008000Y-027500
X+007500Y-019500
X+008500Y-019500
X+009500Y-019500
X+010500Y-019500
X+010500Y-016500
X+009500Y-016500
X+008500Y-016500
X+007500Y-016500
X+009500Y-012500
X+008500Y-012500
X+002500Y-019000
X-001500Y-019000
X+001000Y-020000
X+000000Y-020000
X+009500Y-014500
X+013500Y-014500
X+013500Y-020500
X+013500Y-016500
X+015500Y-020500
X+015500Y-016500
X+018500Y-019500
X+019500Y-019500
X+020500Y-019500
X+021500Y-019500
X+021500Y-016500
X+020500Y-016500
X+019500Y-016500
X+018500Y-016500
X+020500Y-012500
X+019500Y-012500
X+020500Y-015500
X+024500Y-015500
X+024500Y-020500
X+024500Y-016500
X+026500Y-020500
X+026500Y-016500
X+009000Y-022000
X+005000Y-022000
X+007500Y-023500
X+006500Y-023500
X+017000Y-007500
X+018000Y-007500
X+019000Y-007500
X-000500Y-007500
X+000500Y-007500
X+001500Y-007500
X-014000Y-012000
X-014000Y-016000
X-029000Y-021000
X-025000Y-021000
X+005500Y-030000
X+009500Y-030000
X+006500Y-031000
X+010500Y-031000
X+027000Y-033000
X+026000Y-033000
X+025000Y-033000
X+024000Y-033000
X+023000Y-033000
X+022000Y-033000
X+021000Y-033000
X+020000Y-033000
X+019000Y-033000
X+018000Y-033000
T02
X-012500Y-033000
X-013500Y-033000
X-014500Y-033000
X-015500Y-033000
X+003000Y-033000
X+002000Y-033000
X+001000Y-033000
X+000000Y-033000
X-009000Y-027500
X-009000Y-023500
M30
