G75*
G70*
%OFA0B0*%
%FSLAX24Y24*%
%IPPOS*%
%LPD*%
%AMOC8*
5,1,8,0,0,1.08239X$1,22.5*
%
%ADD10C,0.0000*%
D10*
X000101Y000106D02*
X000101Y035476D01*
X068594Y035476D01*
X068594Y000106D01*
X000101Y000106D01*
X001798Y002291D02*
X001800Y002341D01*
X001807Y002391D01*
X001818Y002440D01*
X001834Y002487D01*
X001854Y002533D01*
X001878Y002577D01*
X001906Y002619D01*
X001938Y002658D01*
X001973Y002694D01*
X002011Y002726D01*
X002052Y002755D01*
X002096Y002780D01*
X002141Y002801D01*
X002188Y002818D01*
X002237Y002830D01*
X002286Y002838D01*
X002336Y002842D01*
X002387Y002841D01*
X002436Y002835D01*
X002486Y002825D01*
X002534Y002810D01*
X002580Y002791D01*
X002624Y002768D01*
X002667Y002741D01*
X002706Y002710D01*
X002743Y002676D01*
X002776Y002639D01*
X002806Y002598D01*
X002832Y002556D01*
X002854Y002511D01*
X002872Y002464D01*
X002886Y002415D01*
X002895Y002366D01*
X002899Y002316D01*
X002899Y002266D01*
X002895Y002216D01*
X002886Y002167D01*
X002872Y002118D01*
X002854Y002071D01*
X002832Y002026D01*
X002806Y001984D01*
X002776Y001943D01*
X002743Y001906D01*
X002706Y001872D01*
X002667Y001841D01*
X002625Y001814D01*
X002580Y001791D01*
X002534Y001772D01*
X002486Y001757D01*
X002436Y001747D01*
X002387Y001741D01*
X002336Y001740D01*
X002286Y001744D01*
X002237Y001752D01*
X002188Y001764D01*
X002141Y001781D01*
X002096Y001802D01*
X002052Y001827D01*
X002011Y001856D01*
X001973Y001888D01*
X001938Y001924D01*
X001906Y001963D01*
X001878Y002005D01*
X001854Y002049D01*
X001834Y002095D01*
X001818Y002142D01*
X001807Y002191D01*
X001800Y002241D01*
X001798Y002291D01*
X001798Y033291D02*
X001800Y033341D01*
X001807Y033391D01*
X001818Y033440D01*
X001834Y033487D01*
X001854Y033533D01*
X001878Y033577D01*
X001906Y033619D01*
X001938Y033658D01*
X001973Y033694D01*
X002011Y033726D01*
X002052Y033755D01*
X002096Y033780D01*
X002141Y033801D01*
X002188Y033818D01*
X002237Y033830D01*
X002286Y033838D01*
X002336Y033842D01*
X002387Y033841D01*
X002436Y033835D01*
X002486Y033825D01*
X002534Y033810D01*
X002580Y033791D01*
X002624Y033768D01*
X002667Y033741D01*
X002706Y033710D01*
X002743Y033676D01*
X002776Y033639D01*
X002806Y033598D01*
X002832Y033556D01*
X002854Y033511D01*
X002872Y033464D01*
X002886Y033415D01*
X002895Y033366D01*
X002899Y033316D01*
X002899Y033266D01*
X002895Y033216D01*
X002886Y033167D01*
X002872Y033118D01*
X002854Y033071D01*
X002832Y033026D01*
X002806Y032984D01*
X002776Y032943D01*
X002743Y032906D01*
X002706Y032872D01*
X002667Y032841D01*
X002625Y032814D01*
X002580Y032791D01*
X002534Y032772D01*
X002486Y032757D01*
X002436Y032747D01*
X002387Y032741D01*
X002336Y032740D01*
X002286Y032744D01*
X002237Y032752D01*
X002188Y032764D01*
X002141Y032781D01*
X002096Y032802D01*
X002052Y032827D01*
X002011Y032856D01*
X001973Y032888D01*
X001938Y032924D01*
X001906Y032963D01*
X001878Y033005D01*
X001854Y033049D01*
X001834Y033095D01*
X001818Y033142D01*
X001807Y033191D01*
X001800Y033241D01*
X001798Y033291D01*
X065798Y033291D02*
X065800Y033341D01*
X065807Y033391D01*
X065818Y033440D01*
X065834Y033487D01*
X065854Y033533D01*
X065878Y033577D01*
X065906Y033619D01*
X065938Y033658D01*
X065973Y033694D01*
X066011Y033726D01*
X066052Y033755D01*
X066096Y033780D01*
X066141Y033801D01*
X066188Y033818D01*
X066237Y033830D01*
X066286Y033838D01*
X066336Y033842D01*
X066387Y033841D01*
X066436Y033835D01*
X066486Y033825D01*
X066534Y033810D01*
X066580Y033791D01*
X066624Y033768D01*
X066667Y033741D01*
X066706Y033710D01*
X066743Y033676D01*
X066776Y033639D01*
X066806Y033598D01*
X066832Y033556D01*
X066854Y033511D01*
X066872Y033464D01*
X066886Y033415D01*
X066895Y033366D01*
X066899Y033316D01*
X066899Y033266D01*
X066895Y033216D01*
X066886Y033167D01*
X066872Y033118D01*
X066854Y033071D01*
X066832Y033026D01*
X066806Y032984D01*
X066776Y032943D01*
X066743Y032906D01*
X066706Y032872D01*
X066667Y032841D01*
X066625Y032814D01*
X066580Y032791D01*
X066534Y032772D01*
X066486Y032757D01*
X066436Y032747D01*
X066387Y032741D01*
X066336Y032740D01*
X066286Y032744D01*
X066237Y032752D01*
X066188Y032764D01*
X066141Y032781D01*
X066096Y032802D01*
X066052Y032827D01*
X066011Y032856D01*
X065973Y032888D01*
X065938Y032924D01*
X065906Y032963D01*
X065878Y033005D01*
X065854Y033049D01*
X065834Y033095D01*
X065818Y033142D01*
X065807Y033191D01*
X065800Y033241D01*
X065798Y033291D01*
X065798Y002291D02*
X065800Y002341D01*
X065807Y002391D01*
X065818Y002440D01*
X065834Y002487D01*
X065854Y002533D01*
X065878Y002577D01*
X065906Y002619D01*
X065938Y002658D01*
X065973Y002694D01*
X066011Y002726D01*
X066052Y002755D01*
X066096Y002780D01*
X066141Y002801D01*
X066188Y002818D01*
X066237Y002830D01*
X066286Y002838D01*
X066336Y002842D01*
X066387Y002841D01*
X066436Y002835D01*
X066486Y002825D01*
X066534Y002810D01*
X066580Y002791D01*
X066624Y002768D01*
X066667Y002741D01*
X066706Y002710D01*
X066743Y002676D01*
X066776Y002639D01*
X066806Y002598D01*
X066832Y002556D01*
X066854Y002511D01*
X066872Y002464D01*
X066886Y002415D01*
X066895Y002366D01*
X066899Y002316D01*
X066899Y002266D01*
X066895Y002216D01*
X066886Y002167D01*
X066872Y002118D01*
X066854Y002071D01*
X066832Y002026D01*
X066806Y001984D01*
X066776Y001943D01*
X066743Y001906D01*
X066706Y001872D01*
X066667Y001841D01*
X066625Y001814D01*
X066580Y001791D01*
X066534Y001772D01*
X066486Y001757D01*
X066436Y001747D01*
X066387Y001741D01*
X066336Y001740D01*
X066286Y001744D01*
X066237Y001752D01*
X066188Y001764D01*
X066141Y001781D01*
X066096Y001802D01*
X066052Y001827D01*
X066011Y001856D01*
X065973Y001888D01*
X065938Y001924D01*
X065906Y001963D01*
X065878Y002005D01*
X065854Y002049D01*
X065834Y002095D01*
X065818Y002142D01*
X065807Y002191D01*
X065800Y002241D01*
X065798Y002291D01*
M02*
