G75*
G70*
%OFA0B0*%
%FSLAX24Y24*%
%IPPOS*%
%LPD*%
%AMOC8*
5,1,8,0,0,1.08239X$1,22.5*
%
%ADD10OC8,0.0520*%
%ADD11C,0.1000*%
%ADD12OC8,0.1000*%
%ADD13C,0.0660*%
%ADD14OC8,0.0600*%
%ADD15C,0.2000*%
%ADD16O,0.1040X0.0520*%
%ADD17O,0.1200X0.0600*%
%ADD18OC8,0.0700*%
%ADD19C,0.0500*%
%ADD20C,0.0860*%
%ADD21C,0.0396*%
D10*
X039349Y013291D03*
X039349Y014291D03*
X045349Y014291D03*
X045349Y013291D03*
X051849Y009791D03*
X052849Y009791D03*
X054349Y011291D03*
X054349Y015291D03*
X054349Y017791D03*
X054349Y021791D03*
X052849Y021791D03*
X051849Y021791D03*
X053349Y023291D03*
X053349Y024791D03*
X049349Y024791D03*
X049349Y023291D03*
X045349Y019291D03*
X045349Y018291D03*
X039349Y018291D03*
X039349Y019291D03*
X057849Y025291D03*
X061849Y025291D03*
X062849Y025291D03*
X062849Y021291D03*
D11*
X051349Y017291D03*
X051349Y012291D03*
X042349Y012791D03*
X036349Y012791D03*
X036349Y017791D03*
X042349Y017791D03*
D12*
X042349Y019791D03*
X036349Y019791D03*
X036349Y014791D03*
X042349Y014791D03*
X051349Y014291D03*
X051349Y019291D03*
D13*
X033349Y017291D03*
X031849Y017291D03*
X031849Y016291D03*
X033349Y016291D03*
X033349Y012291D03*
X031849Y012291D03*
X031849Y021291D03*
X033349Y021291D03*
D14*
X048939Y030291D03*
X050019Y030291D03*
X051099Y030291D03*
X052179Y030291D03*
X053259Y030291D03*
X052719Y031291D03*
X051639Y031291D03*
X050559Y031291D03*
X049479Y031291D03*
D15*
X046169Y030791D03*
X056029Y030791D03*
D16*
X058349Y023291D03*
X058349Y022291D03*
X058349Y021291D03*
X058349Y020291D03*
X061349Y020291D03*
X061349Y021291D03*
X061349Y022291D03*
X061349Y023291D03*
D17*
X047349Y019791D03*
X047349Y018791D03*
X047349Y017791D03*
X047349Y014291D03*
X047349Y013291D03*
X047349Y012291D03*
D18*
X005849Y015291D03*
X002849Y015791D03*
X002849Y017791D03*
X005849Y018291D03*
X029849Y016791D03*
X029849Y012291D03*
X029849Y021291D03*
X064849Y017291D03*
X064849Y015291D03*
X064849Y013291D03*
X064849Y011291D03*
D19*
X055849Y016291D02*
X055849Y018791D01*
X055849Y025791D01*
X054849Y026791D01*
X051849Y021791D02*
X048849Y021791D01*
X048849Y018291D01*
X055849Y018791D02*
X059849Y018791D01*
D20*
X059849Y018791D03*
X055849Y016291D03*
X048849Y018291D03*
X048849Y021791D03*
D21*
X054849Y026791D03*
M02*
