%
M48
M72
T01C0.0236
T02C0.0320
T03C0.0394
T04C0.0400
T05C0.0440
T06C0.1102
T07C0.1300
%
T01
X5848Y15285
X2848Y15785
X2848Y17785
X5848Y18285
X29848Y16785
X29848Y12285
X29848Y21285
X54348Y27285
X64848Y17285
X64848Y15285
X64848Y13285
X64848Y11285
T02
X54348Y11285
X52848Y9785
X51848Y9785
X45348Y13285
X45348Y14285
X39348Y14285
X39348Y13285
X39348Y18285
X39348Y19285
X45348Y19285
X45348Y18285
X51848Y21785
X52848Y21785
X54348Y21785
X53348Y23285
X53348Y24785
X49348Y24785
X49348Y23285
X57848Y25285
X58348Y23285
X58348Y22285
X58348Y21285
X58348Y20285
X61348Y20285
X61348Y21285
X61348Y22285
X62848Y21285
X61348Y23285
X61848Y25285
X62848Y25285
X54348Y17785
X54348Y15285
T03
X55848Y16285
X59848Y18785
X48848Y18285
X48848Y21785
T04
X47348Y19785
X47348Y18785
X47348Y17785
X51348Y17285
X51348Y19285
X51348Y14285
X51348Y12285
X47348Y12285
X47348Y13285
X47348Y14285
X42348Y14785
X42348Y12785
X36348Y12785
X36348Y14785
X36348Y17785
X36348Y19785
X42348Y19785
X42348Y17785
X48938Y30285
X50018Y30285
X51098Y30285
X52178Y30285
X53258Y30285
X52718Y31285
X51638Y31285
X50558Y31285
X49478Y31285
T05
X33348Y21285
X31848Y21285
X31848Y17285
X33348Y17285
X33348Y16285
X31848Y16285
X31848Y12285
X33348Y12285
T06
X2348Y2285
X2348Y33285
X66348Y33285
X66348Y2285
T07
X56028Y30785
X46168Y30785
M30
