G75*
%MOIN*%
%OFA0B0*%
%FSLAX24Y24*%
%IPPOS*%
%LPD*%
%AMOC8*
5,1,8,0,0,1.08239X$1,22.5*
%
%ADD10OC8,0.0520*%
%ADD11C,0.1000*%
%ADD12OC8,0.1000*%
%ADD13C,0.0660*%
%ADD14OC8,0.0600*%
%ADD15C,0.2000*%
%ADD16C,0.0520*%
%ADD17C,0.0600*%
%ADD18OC8,0.0700*%
%ADD19C,0.0500*%
%ADD20C,0.0860*%
%ADD21C,0.0396*%
D10*
X039348Y013285D03*
X039348Y014285D03*
X045348Y014285D03*
X045348Y013285D03*
X051848Y009785D03*
X052848Y009785D03*
X054348Y011285D03*
X054348Y015285D03*
X054348Y017785D03*
X054348Y021785D03*
X052848Y021785D03*
X051848Y021785D03*
X053348Y023285D03*
X053348Y024785D03*
X049348Y024785D03*
X049348Y023285D03*
X045348Y019285D03*
X045348Y018285D03*
X039348Y018285D03*
X039348Y019285D03*
X057848Y025285D03*
X061848Y025285D03*
X062848Y025285D03*
X062848Y021285D03*
D11*
X051348Y017285D03*
X051348Y012285D03*
X042348Y012785D03*
X036348Y012785D03*
X036348Y017785D03*
X042348Y017785D03*
D12*
X042348Y019785D03*
X036348Y019785D03*
X036348Y014785D03*
X042348Y014785D03*
X051348Y014285D03*
X051348Y019285D03*
D13*
X033348Y017285D03*
X031848Y017285D03*
X031848Y016285D03*
X033348Y016285D03*
X033348Y012285D03*
X031848Y012285D03*
X031848Y021285D03*
X033348Y021285D03*
D14*
X048938Y030285D03*
X050018Y030285D03*
X051098Y030285D03*
X052178Y030285D03*
X053258Y030285D03*
X052718Y031285D03*
X051638Y031285D03*
X050558Y031285D03*
X049478Y031285D03*
D15*
X046168Y030785D03*
X056028Y030785D03*
D16*
X058088Y023285D02*
X058608Y023285D01*
X058608Y022285D02*
X058088Y022285D01*
X058088Y021285D02*
X058608Y021285D01*
X058608Y020285D02*
X058088Y020285D01*
X061088Y020285D02*
X061608Y020285D01*
X061608Y021285D02*
X061088Y021285D01*
X061088Y022285D02*
X061608Y022285D01*
X061608Y023285D02*
X061088Y023285D01*
D17*
X047648Y019785D02*
X047048Y019785D01*
X047048Y018785D02*
X047648Y018785D01*
X047648Y017785D02*
X047048Y017785D01*
X047048Y014285D02*
X047648Y014285D01*
X047648Y013285D02*
X047048Y013285D01*
X047048Y012285D02*
X047648Y012285D01*
D18*
X005848Y015285D03*
X002848Y015785D03*
X002848Y017785D03*
X005848Y018285D03*
X029848Y016785D03*
X029848Y012285D03*
X029848Y021285D03*
X064848Y017285D03*
X064848Y015285D03*
X064848Y013285D03*
X064848Y011285D03*
D19*
X055848Y016285D02*
X055848Y018785D01*
X055848Y025785D01*
X054348Y027285D01*
X053348Y024785D02*
X051848Y023285D01*
X049348Y023285D01*
X048848Y021785D02*
X048848Y018285D01*
X048848Y021785D02*
X051848Y021785D01*
X055848Y018785D02*
X059848Y018785D01*
D20*
X059848Y018785D03*
X055848Y016285D03*
X048848Y018285D03*
X048848Y021785D03*
D21*
X054348Y027285D03*
M02*
