G75*
%MOIN*%
%OFA0B0*%
%FSLAX24Y24*%
%IPPOS*%
%LPD*%
%AMOC8*
5,1,8,0,0,1.08239X$1,22.5*
%
%ADD10C,0.0000*%
D10*
X000100Y000100D02*
X000100Y035470D01*
X068592Y035470D01*
X068592Y000100D01*
X000100Y000100D01*
X001797Y002285D02*
X001799Y002332D01*
X001805Y002378D01*
X001815Y002424D01*
X001828Y002469D01*
X001846Y002512D01*
X001867Y002554D01*
X001891Y002594D01*
X001919Y002631D01*
X001950Y002666D01*
X001984Y002699D01*
X002020Y002728D01*
X002059Y002754D01*
X002100Y002777D01*
X002143Y002796D01*
X002187Y002812D01*
X002232Y002824D01*
X002278Y002832D01*
X002325Y002836D01*
X002371Y002836D01*
X002418Y002832D01*
X002464Y002824D01*
X002509Y002812D01*
X002553Y002796D01*
X002596Y002777D01*
X002637Y002754D01*
X002676Y002728D01*
X002712Y002699D01*
X002746Y002666D01*
X002777Y002631D01*
X002805Y002594D01*
X002829Y002554D01*
X002850Y002512D01*
X002868Y002469D01*
X002881Y002424D01*
X002891Y002378D01*
X002897Y002332D01*
X002899Y002285D01*
X002897Y002238D01*
X002891Y002192D01*
X002881Y002146D01*
X002868Y002101D01*
X002850Y002058D01*
X002829Y002016D01*
X002805Y001976D01*
X002777Y001939D01*
X002746Y001904D01*
X002712Y001871D01*
X002676Y001842D01*
X002637Y001816D01*
X002596Y001793D01*
X002553Y001774D01*
X002509Y001758D01*
X002464Y001746D01*
X002418Y001738D01*
X002371Y001734D01*
X002325Y001734D01*
X002278Y001738D01*
X002232Y001746D01*
X002187Y001758D01*
X002143Y001774D01*
X002100Y001793D01*
X002059Y001816D01*
X002020Y001842D01*
X001984Y001871D01*
X001950Y001904D01*
X001919Y001939D01*
X001891Y001976D01*
X001867Y002016D01*
X001846Y002058D01*
X001828Y002101D01*
X001815Y002146D01*
X001805Y002192D01*
X001799Y002238D01*
X001797Y002285D01*
X001797Y033285D02*
X001799Y033332D01*
X001805Y033378D01*
X001815Y033424D01*
X001828Y033469D01*
X001846Y033512D01*
X001867Y033554D01*
X001891Y033594D01*
X001919Y033631D01*
X001950Y033666D01*
X001984Y033699D01*
X002020Y033728D01*
X002059Y033754D01*
X002100Y033777D01*
X002143Y033796D01*
X002187Y033812D01*
X002232Y033824D01*
X002278Y033832D01*
X002325Y033836D01*
X002371Y033836D01*
X002418Y033832D01*
X002464Y033824D01*
X002509Y033812D01*
X002553Y033796D01*
X002596Y033777D01*
X002637Y033754D01*
X002676Y033728D01*
X002712Y033699D01*
X002746Y033666D01*
X002777Y033631D01*
X002805Y033594D01*
X002829Y033554D01*
X002850Y033512D01*
X002868Y033469D01*
X002881Y033424D01*
X002891Y033378D01*
X002897Y033332D01*
X002899Y033285D01*
X002897Y033238D01*
X002891Y033192D01*
X002881Y033146D01*
X002868Y033101D01*
X002850Y033058D01*
X002829Y033016D01*
X002805Y032976D01*
X002777Y032939D01*
X002746Y032904D01*
X002712Y032871D01*
X002676Y032842D01*
X002637Y032816D01*
X002596Y032793D01*
X002553Y032774D01*
X002509Y032758D01*
X002464Y032746D01*
X002418Y032738D01*
X002371Y032734D01*
X002325Y032734D01*
X002278Y032738D01*
X002232Y032746D01*
X002187Y032758D01*
X002143Y032774D01*
X002100Y032793D01*
X002059Y032816D01*
X002020Y032842D01*
X001984Y032871D01*
X001950Y032904D01*
X001919Y032939D01*
X001891Y032976D01*
X001867Y033016D01*
X001846Y033058D01*
X001828Y033101D01*
X001815Y033146D01*
X001805Y033192D01*
X001799Y033238D01*
X001797Y033285D01*
X065797Y033285D02*
X065799Y033332D01*
X065805Y033378D01*
X065815Y033424D01*
X065828Y033469D01*
X065846Y033512D01*
X065867Y033554D01*
X065891Y033594D01*
X065919Y033631D01*
X065950Y033666D01*
X065984Y033699D01*
X066020Y033728D01*
X066059Y033754D01*
X066100Y033777D01*
X066143Y033796D01*
X066187Y033812D01*
X066232Y033824D01*
X066278Y033832D01*
X066325Y033836D01*
X066371Y033836D01*
X066418Y033832D01*
X066464Y033824D01*
X066509Y033812D01*
X066553Y033796D01*
X066596Y033777D01*
X066637Y033754D01*
X066676Y033728D01*
X066712Y033699D01*
X066746Y033666D01*
X066777Y033631D01*
X066805Y033594D01*
X066829Y033554D01*
X066850Y033512D01*
X066868Y033469D01*
X066881Y033424D01*
X066891Y033378D01*
X066897Y033332D01*
X066899Y033285D01*
X066897Y033238D01*
X066891Y033192D01*
X066881Y033146D01*
X066868Y033101D01*
X066850Y033058D01*
X066829Y033016D01*
X066805Y032976D01*
X066777Y032939D01*
X066746Y032904D01*
X066712Y032871D01*
X066676Y032842D01*
X066637Y032816D01*
X066596Y032793D01*
X066553Y032774D01*
X066509Y032758D01*
X066464Y032746D01*
X066418Y032738D01*
X066371Y032734D01*
X066325Y032734D01*
X066278Y032738D01*
X066232Y032746D01*
X066187Y032758D01*
X066143Y032774D01*
X066100Y032793D01*
X066059Y032816D01*
X066020Y032842D01*
X065984Y032871D01*
X065950Y032904D01*
X065919Y032939D01*
X065891Y032976D01*
X065867Y033016D01*
X065846Y033058D01*
X065828Y033101D01*
X065815Y033146D01*
X065805Y033192D01*
X065799Y033238D01*
X065797Y033285D01*
X065797Y002285D02*
X065799Y002332D01*
X065805Y002378D01*
X065815Y002424D01*
X065828Y002469D01*
X065846Y002512D01*
X065867Y002554D01*
X065891Y002594D01*
X065919Y002631D01*
X065950Y002666D01*
X065984Y002699D01*
X066020Y002728D01*
X066059Y002754D01*
X066100Y002777D01*
X066143Y002796D01*
X066187Y002812D01*
X066232Y002824D01*
X066278Y002832D01*
X066325Y002836D01*
X066371Y002836D01*
X066418Y002832D01*
X066464Y002824D01*
X066509Y002812D01*
X066553Y002796D01*
X066596Y002777D01*
X066637Y002754D01*
X066676Y002728D01*
X066712Y002699D01*
X066746Y002666D01*
X066777Y002631D01*
X066805Y002594D01*
X066829Y002554D01*
X066850Y002512D01*
X066868Y002469D01*
X066881Y002424D01*
X066891Y002378D01*
X066897Y002332D01*
X066899Y002285D01*
X066897Y002238D01*
X066891Y002192D01*
X066881Y002146D01*
X066868Y002101D01*
X066850Y002058D01*
X066829Y002016D01*
X066805Y001976D01*
X066777Y001939D01*
X066746Y001904D01*
X066712Y001871D01*
X066676Y001842D01*
X066637Y001816D01*
X066596Y001793D01*
X066553Y001774D01*
X066509Y001758D01*
X066464Y001746D01*
X066418Y001738D01*
X066371Y001734D01*
X066325Y001734D01*
X066278Y001738D01*
X066232Y001746D01*
X066187Y001758D01*
X066143Y001774D01*
X066100Y001793D01*
X066059Y001816D01*
X066020Y001842D01*
X065984Y001871D01*
X065950Y001904D01*
X065919Y001939D01*
X065891Y001976D01*
X065867Y002016D01*
X065846Y002058D01*
X065828Y002101D01*
X065815Y002146D01*
X065805Y002192D01*
X065799Y002238D01*
X065797Y002285D01*
M02*
