G75*
%MOIN*%
%OFA0B0*%
%FSLAX24Y24*%
%IPPOS*%
%LPD*%
%AMOC8*
5,1,8,0,0,1.08239X$1,22.5*
%
%ADD10C,0.0060*%
%ADD11R,0.0240X0.0340*%
%ADD12C,0.0120*%
%ADD13R,0.0900X0.0250*%
%ADD14C,0.0006*%
%ADD15C,0.0010*%
%ADD16R,0.1000X0.0200*%
%ADD17R,0.0300X0.0750*%
%ADD18C,0.0050*%
%ADD19R,0.7300X0.0300*%
%ADD20R,1.2200X0.0200*%
%ADD21R,0.0320X0.2850*%
%ADD22R,0.0320X0.1850*%
%ADD23R,0.0340X0.0240*%
%ADD24C,0.0200*%
%ADD25R,0.0500X0.0750*%
%ADD26R,0.0300X0.0700*%
%ADD27R,0.0500X0.0300*%
%ADD28C,0.0080*%
D10*
X001198Y002285D02*
X001200Y002352D01*
X001206Y002420D01*
X001216Y002487D01*
X001230Y002553D01*
X001247Y002618D01*
X001269Y002682D01*
X001294Y002745D01*
X001323Y002806D01*
X001355Y002865D01*
X001391Y002922D01*
X001430Y002977D01*
X001472Y003030D01*
X001517Y003080D01*
X001565Y003127D01*
X001616Y003172D01*
X001669Y003213D01*
X001725Y003252D01*
X001783Y003287D01*
X001843Y003318D01*
X001904Y003346D01*
X001967Y003370D01*
X002031Y003391D01*
X002097Y003407D01*
X002163Y003420D01*
X002230Y003429D01*
X002297Y003434D01*
X002365Y003435D01*
X002432Y003432D01*
X002499Y003425D01*
X002566Y003414D01*
X002632Y003399D01*
X002697Y003381D01*
X002761Y003358D01*
X002823Y003332D01*
X002884Y003303D01*
X002942Y003269D01*
X002999Y003233D01*
X003054Y003193D01*
X003106Y003150D01*
X003155Y003104D01*
X003202Y003055D01*
X003246Y003004D01*
X003286Y002950D01*
X003324Y002894D01*
X003358Y002835D01*
X003388Y002775D01*
X003415Y002713D01*
X003439Y002650D01*
X003458Y002585D01*
X003474Y002520D01*
X003486Y002453D01*
X003494Y002386D01*
X003498Y002319D01*
X003498Y002251D01*
X003494Y002184D01*
X003486Y002117D01*
X003474Y002050D01*
X003458Y001985D01*
X003439Y001920D01*
X003415Y001857D01*
X003388Y001795D01*
X003358Y001735D01*
X003324Y001676D01*
X003286Y001620D01*
X003246Y001566D01*
X003202Y001515D01*
X003155Y001466D01*
X003106Y001420D01*
X003054Y001377D01*
X002999Y001337D01*
X002942Y001301D01*
X002884Y001267D01*
X002823Y001238D01*
X002761Y001212D01*
X002697Y001189D01*
X002632Y001171D01*
X002566Y001156D01*
X002499Y001145D01*
X002432Y001138D01*
X002365Y001135D01*
X002297Y001136D01*
X002230Y001141D01*
X002163Y001150D01*
X002097Y001163D01*
X002031Y001179D01*
X001967Y001200D01*
X001904Y001224D01*
X001843Y001252D01*
X001783Y001283D01*
X001725Y001318D01*
X001669Y001357D01*
X001616Y001398D01*
X001565Y001443D01*
X001517Y001490D01*
X001472Y001540D01*
X001430Y001593D01*
X001391Y001648D01*
X001355Y001705D01*
X001323Y001764D01*
X001294Y001825D01*
X001269Y001888D01*
X001247Y001952D01*
X001230Y002017D01*
X001216Y002083D01*
X001206Y002150D01*
X001200Y002218D01*
X001198Y002285D01*
X031348Y013485D02*
X032348Y013485D01*
X032348Y015085D01*
X031348Y015085D01*
X031348Y013485D01*
X031848Y014035D02*
X031848Y014285D01*
X032098Y014285D01*
X031848Y014285D02*
X031598Y014285D01*
X031848Y014285D02*
X031598Y014685D01*
X032098Y014685D01*
X031848Y014285D01*
X031848Y014885D01*
X032848Y015085D02*
X033848Y015085D01*
X033848Y013485D01*
X032848Y013485D01*
X032848Y015085D01*
X033348Y014535D02*
X033348Y014285D01*
X033098Y014285D01*
X033348Y014285D02*
X033598Y014285D01*
X033348Y014285D02*
X033598Y013885D01*
X033098Y013885D01*
X033348Y014285D01*
X033348Y013685D01*
X035898Y013685D02*
X035898Y013435D01*
X036348Y013435D01*
X036798Y013435D01*
X036798Y013685D01*
X035898Y013685D01*
X034348Y013785D02*
X034350Y013874D01*
X034356Y013963D01*
X034366Y014052D01*
X034380Y014140D01*
X034397Y014227D01*
X034419Y014313D01*
X034445Y014399D01*
X034474Y014483D01*
X034507Y014566D01*
X034543Y014647D01*
X034584Y014727D01*
X034627Y014804D01*
X034674Y014880D01*
X034725Y014953D01*
X034778Y015024D01*
X034835Y015093D01*
X034895Y015159D01*
X034958Y015223D01*
X035023Y015283D01*
X035091Y015341D01*
X035162Y015395D01*
X035235Y015446D01*
X035310Y015494D01*
X035387Y015539D01*
X035466Y015580D01*
X035547Y015617D01*
X035629Y015651D01*
X035713Y015682D01*
X035798Y015708D01*
X035884Y015731D01*
X035971Y015749D01*
X036059Y015764D01*
X036148Y015775D01*
X036237Y015782D01*
X036326Y015785D01*
X036415Y015784D01*
X036504Y015779D01*
X036592Y015770D01*
X036681Y015757D01*
X036768Y015740D01*
X036855Y015720D01*
X036941Y015695D01*
X037025Y015667D01*
X037108Y015635D01*
X037190Y015599D01*
X037270Y015560D01*
X037348Y015517D01*
X037424Y015471D01*
X037498Y015421D01*
X037570Y015368D01*
X037639Y015312D01*
X037706Y015253D01*
X037770Y015191D01*
X037831Y015127D01*
X037890Y015059D01*
X037945Y014989D01*
X037997Y014917D01*
X038046Y014842D01*
X038091Y014766D01*
X038133Y014687D01*
X038171Y014607D01*
X038206Y014525D01*
X038237Y014441D01*
X038265Y014356D01*
X038288Y014270D01*
X038308Y014183D01*
X038324Y014096D01*
X038336Y014007D01*
X038344Y013919D01*
X038348Y013830D01*
X038348Y013740D01*
X038344Y013651D01*
X038336Y013563D01*
X038324Y013474D01*
X038308Y013387D01*
X038288Y013300D01*
X038265Y013214D01*
X038237Y013129D01*
X038206Y013045D01*
X038171Y012963D01*
X038133Y012883D01*
X038091Y012804D01*
X038046Y012728D01*
X037997Y012653D01*
X037945Y012581D01*
X037890Y012511D01*
X037831Y012443D01*
X037770Y012379D01*
X037706Y012317D01*
X037639Y012258D01*
X037570Y012202D01*
X037498Y012149D01*
X037424Y012099D01*
X037348Y012053D01*
X037270Y012010D01*
X037190Y011971D01*
X037108Y011935D01*
X037025Y011903D01*
X036941Y011875D01*
X036855Y011850D01*
X036768Y011830D01*
X036681Y011813D01*
X036592Y011800D01*
X036504Y011791D01*
X036415Y011786D01*
X036326Y011785D01*
X036237Y011788D01*
X036148Y011795D01*
X036059Y011806D01*
X035971Y011821D01*
X035884Y011839D01*
X035798Y011862D01*
X035713Y011888D01*
X035629Y011919D01*
X035547Y011953D01*
X035466Y011990D01*
X035387Y012031D01*
X035310Y012076D01*
X035235Y012124D01*
X035162Y012175D01*
X035091Y012229D01*
X035023Y012287D01*
X034958Y012347D01*
X034895Y012411D01*
X034835Y012477D01*
X034778Y012546D01*
X034725Y012617D01*
X034674Y012690D01*
X034627Y012766D01*
X034584Y012843D01*
X034543Y012923D01*
X034507Y013004D01*
X034474Y013087D01*
X034445Y013171D01*
X034419Y013257D01*
X034397Y013343D01*
X034380Y013430D01*
X034366Y013518D01*
X034356Y013607D01*
X034350Y013696D01*
X034348Y013785D01*
X036348Y014035D02*
X036348Y014235D01*
X036348Y013435D02*
X036348Y013335D01*
X035848Y012435D02*
X035848Y012135D01*
X035698Y012285D02*
X035998Y012285D01*
X038898Y013135D02*
X038898Y014435D01*
X038900Y014461D01*
X038905Y014487D01*
X038913Y014512D01*
X038925Y014535D01*
X038939Y014557D01*
X038957Y014576D01*
X038976Y014594D01*
X038998Y014608D01*
X039021Y014620D01*
X039046Y014628D01*
X039072Y014633D01*
X039098Y014635D01*
X039598Y014635D01*
X039624Y014633D01*
X039650Y014628D01*
X039675Y014620D01*
X039698Y014608D01*
X039720Y014594D01*
X039739Y014576D01*
X039757Y014557D01*
X039771Y014535D01*
X039783Y014512D01*
X039791Y014487D01*
X039796Y014461D01*
X039798Y014435D01*
X039798Y013135D01*
X039796Y013109D01*
X039791Y013083D01*
X039783Y013058D01*
X039771Y013035D01*
X039757Y013013D01*
X039739Y012994D01*
X039720Y012976D01*
X039698Y012962D01*
X039675Y012950D01*
X039650Y012942D01*
X039624Y012937D01*
X039598Y012935D01*
X039098Y012935D01*
X039072Y012937D01*
X039046Y012942D01*
X039021Y012950D01*
X038998Y012962D01*
X038976Y012976D01*
X038957Y012994D01*
X038939Y013013D01*
X038925Y013035D01*
X038913Y013058D01*
X038905Y013083D01*
X038900Y013109D01*
X038898Y013135D01*
X041698Y012285D02*
X041998Y012285D01*
X041848Y012435D02*
X041848Y012135D01*
X042348Y013335D02*
X042348Y013435D01*
X041898Y013435D01*
X041898Y013685D01*
X042798Y013685D01*
X042798Y013435D01*
X042348Y013435D01*
X040348Y013785D02*
X040350Y013874D01*
X040356Y013963D01*
X040366Y014052D01*
X040380Y014140D01*
X040397Y014227D01*
X040419Y014313D01*
X040445Y014399D01*
X040474Y014483D01*
X040507Y014566D01*
X040543Y014647D01*
X040584Y014727D01*
X040627Y014804D01*
X040674Y014880D01*
X040725Y014953D01*
X040778Y015024D01*
X040835Y015093D01*
X040895Y015159D01*
X040958Y015223D01*
X041023Y015283D01*
X041091Y015341D01*
X041162Y015395D01*
X041235Y015446D01*
X041310Y015494D01*
X041387Y015539D01*
X041466Y015580D01*
X041547Y015617D01*
X041629Y015651D01*
X041713Y015682D01*
X041798Y015708D01*
X041884Y015731D01*
X041971Y015749D01*
X042059Y015764D01*
X042148Y015775D01*
X042237Y015782D01*
X042326Y015785D01*
X042415Y015784D01*
X042504Y015779D01*
X042592Y015770D01*
X042681Y015757D01*
X042768Y015740D01*
X042855Y015720D01*
X042941Y015695D01*
X043025Y015667D01*
X043108Y015635D01*
X043190Y015599D01*
X043270Y015560D01*
X043348Y015517D01*
X043424Y015471D01*
X043498Y015421D01*
X043570Y015368D01*
X043639Y015312D01*
X043706Y015253D01*
X043770Y015191D01*
X043831Y015127D01*
X043890Y015059D01*
X043945Y014989D01*
X043997Y014917D01*
X044046Y014842D01*
X044091Y014766D01*
X044133Y014687D01*
X044171Y014607D01*
X044206Y014525D01*
X044237Y014441D01*
X044265Y014356D01*
X044288Y014270D01*
X044308Y014183D01*
X044324Y014096D01*
X044336Y014007D01*
X044344Y013919D01*
X044348Y013830D01*
X044348Y013740D01*
X044344Y013651D01*
X044336Y013563D01*
X044324Y013474D01*
X044308Y013387D01*
X044288Y013300D01*
X044265Y013214D01*
X044237Y013129D01*
X044206Y013045D01*
X044171Y012963D01*
X044133Y012883D01*
X044091Y012804D01*
X044046Y012728D01*
X043997Y012653D01*
X043945Y012581D01*
X043890Y012511D01*
X043831Y012443D01*
X043770Y012379D01*
X043706Y012317D01*
X043639Y012258D01*
X043570Y012202D01*
X043498Y012149D01*
X043424Y012099D01*
X043348Y012053D01*
X043270Y012010D01*
X043190Y011971D01*
X043108Y011935D01*
X043025Y011903D01*
X042941Y011875D01*
X042855Y011850D01*
X042768Y011830D01*
X042681Y011813D01*
X042592Y011800D01*
X042504Y011791D01*
X042415Y011786D01*
X042326Y011785D01*
X042237Y011788D01*
X042148Y011795D01*
X042059Y011806D01*
X041971Y011821D01*
X041884Y011839D01*
X041798Y011862D01*
X041713Y011888D01*
X041629Y011919D01*
X041547Y011953D01*
X041466Y011990D01*
X041387Y012031D01*
X041310Y012076D01*
X041235Y012124D01*
X041162Y012175D01*
X041091Y012229D01*
X041023Y012287D01*
X040958Y012347D01*
X040895Y012411D01*
X040835Y012477D01*
X040778Y012546D01*
X040725Y012617D01*
X040674Y012690D01*
X040627Y012766D01*
X040584Y012843D01*
X040543Y012923D01*
X040507Y013004D01*
X040474Y013087D01*
X040445Y013171D01*
X040419Y013257D01*
X040397Y013343D01*
X040380Y013430D01*
X040366Y013518D01*
X040356Y013607D01*
X040350Y013696D01*
X040348Y013785D01*
X042348Y014035D02*
X042348Y014235D01*
X044898Y014435D02*
X044898Y013135D01*
X044900Y013109D01*
X044905Y013083D01*
X044913Y013058D01*
X044925Y013035D01*
X044939Y013013D01*
X044957Y012994D01*
X044976Y012976D01*
X044998Y012962D01*
X045021Y012950D01*
X045046Y012942D01*
X045072Y012937D01*
X045098Y012935D01*
X045598Y012935D01*
X045624Y012937D01*
X045650Y012942D01*
X045675Y012950D01*
X045698Y012962D01*
X045720Y012976D01*
X045739Y012994D01*
X045757Y013013D01*
X045771Y013035D01*
X045783Y013058D01*
X045791Y013083D01*
X045796Y013109D01*
X045798Y013135D01*
X045798Y014435D01*
X045796Y014461D01*
X045791Y014487D01*
X045783Y014512D01*
X045771Y014535D01*
X045757Y014557D01*
X045739Y014576D01*
X045720Y014594D01*
X045698Y014608D01*
X045675Y014620D01*
X045650Y014628D01*
X045624Y014633D01*
X045598Y014635D01*
X045098Y014635D01*
X045072Y014633D01*
X045046Y014628D01*
X045021Y014620D01*
X044998Y014608D01*
X044976Y014594D01*
X044957Y014576D01*
X044939Y014557D01*
X044925Y014535D01*
X044913Y014512D01*
X044905Y014487D01*
X044900Y014461D01*
X044898Y014435D01*
X046798Y015285D02*
X047948Y015285D01*
X048048Y015185D01*
X048048Y011385D01*
X047948Y011285D01*
X046798Y011285D01*
X050698Y011785D02*
X050998Y011785D01*
X050848Y011935D02*
X050848Y011635D01*
X051348Y012835D02*
X051348Y012935D01*
X050898Y012935D01*
X050898Y013185D01*
X051798Y013185D01*
X051798Y012935D01*
X051348Y012935D01*
X049348Y013285D02*
X049350Y013374D01*
X049356Y013463D01*
X049366Y013552D01*
X049380Y013640D01*
X049397Y013727D01*
X049419Y013813D01*
X049445Y013899D01*
X049474Y013983D01*
X049507Y014066D01*
X049543Y014147D01*
X049584Y014227D01*
X049627Y014304D01*
X049674Y014380D01*
X049725Y014453D01*
X049778Y014524D01*
X049835Y014593D01*
X049895Y014659D01*
X049958Y014723D01*
X050023Y014783D01*
X050091Y014841D01*
X050162Y014895D01*
X050235Y014946D01*
X050310Y014994D01*
X050387Y015039D01*
X050466Y015080D01*
X050547Y015117D01*
X050629Y015151D01*
X050713Y015182D01*
X050798Y015208D01*
X050884Y015231D01*
X050971Y015249D01*
X051059Y015264D01*
X051148Y015275D01*
X051237Y015282D01*
X051326Y015285D01*
X051415Y015284D01*
X051504Y015279D01*
X051592Y015270D01*
X051681Y015257D01*
X051768Y015240D01*
X051855Y015220D01*
X051941Y015195D01*
X052025Y015167D01*
X052108Y015135D01*
X052190Y015099D01*
X052270Y015060D01*
X052348Y015017D01*
X052424Y014971D01*
X052498Y014921D01*
X052570Y014868D01*
X052639Y014812D01*
X052706Y014753D01*
X052770Y014691D01*
X052831Y014627D01*
X052890Y014559D01*
X052945Y014489D01*
X052997Y014417D01*
X053046Y014342D01*
X053091Y014266D01*
X053133Y014187D01*
X053171Y014107D01*
X053206Y014025D01*
X053237Y013941D01*
X053265Y013856D01*
X053288Y013770D01*
X053308Y013683D01*
X053324Y013596D01*
X053336Y013507D01*
X053344Y013419D01*
X053348Y013330D01*
X053348Y013240D01*
X053344Y013151D01*
X053336Y013063D01*
X053324Y012974D01*
X053308Y012887D01*
X053288Y012800D01*
X053265Y012714D01*
X053237Y012629D01*
X053206Y012545D01*
X053171Y012463D01*
X053133Y012383D01*
X053091Y012304D01*
X053046Y012228D01*
X052997Y012153D01*
X052945Y012081D01*
X052890Y012011D01*
X052831Y011943D01*
X052770Y011879D01*
X052706Y011817D01*
X052639Y011758D01*
X052570Y011702D01*
X052498Y011649D01*
X052424Y011599D01*
X052348Y011553D01*
X052270Y011510D01*
X052190Y011471D01*
X052108Y011435D01*
X052025Y011403D01*
X051941Y011375D01*
X051855Y011350D01*
X051768Y011330D01*
X051681Y011313D01*
X051592Y011300D01*
X051504Y011291D01*
X051415Y011286D01*
X051326Y011285D01*
X051237Y011288D01*
X051148Y011295D01*
X051059Y011306D01*
X050971Y011321D01*
X050884Y011339D01*
X050798Y011362D01*
X050713Y011388D01*
X050629Y011419D01*
X050547Y011453D01*
X050466Y011490D01*
X050387Y011531D01*
X050310Y011576D01*
X050235Y011624D01*
X050162Y011675D01*
X050091Y011729D01*
X050023Y011787D01*
X049958Y011847D01*
X049895Y011911D01*
X049835Y011977D01*
X049778Y012046D01*
X049725Y012117D01*
X049674Y012190D01*
X049627Y012266D01*
X049584Y012343D01*
X049543Y012423D01*
X049507Y012504D01*
X049474Y012587D01*
X049445Y012671D01*
X049419Y012757D01*
X049397Y012843D01*
X049380Y012930D01*
X049366Y013018D01*
X049356Y013107D01*
X049350Y013196D01*
X049348Y013285D01*
X051348Y013535D02*
X051348Y013735D01*
X053898Y014285D02*
X053898Y014435D01*
X053900Y014452D01*
X053904Y014469D01*
X053911Y014485D01*
X053921Y014499D01*
X053934Y014512D01*
X053948Y014522D01*
X053964Y014529D01*
X053981Y014533D01*
X053998Y014535D01*
X054698Y014535D01*
X054715Y014533D01*
X054732Y014529D01*
X054748Y014522D01*
X054762Y014512D01*
X054775Y014499D01*
X054785Y014485D01*
X054792Y014469D01*
X054796Y014452D01*
X054798Y014435D01*
X054798Y014285D01*
X054748Y014235D01*
X054748Y012335D01*
X054798Y012285D01*
X054798Y012135D01*
X054796Y012118D01*
X054792Y012101D01*
X054785Y012085D01*
X054775Y012071D01*
X054762Y012058D01*
X054748Y012048D01*
X054732Y012041D01*
X054715Y012037D01*
X054698Y012035D01*
X053998Y012035D01*
X053981Y012037D01*
X053964Y012041D01*
X053948Y012048D01*
X053934Y012058D01*
X053921Y012071D01*
X053911Y012085D01*
X053904Y012101D01*
X053900Y012118D01*
X053898Y012135D01*
X053898Y012285D01*
X053948Y012335D01*
X053948Y014235D01*
X053898Y014285D01*
X050848Y016635D02*
X050848Y016935D01*
X050698Y016785D02*
X050998Y016785D01*
X051348Y017835D02*
X051348Y017935D01*
X050898Y017935D01*
X050898Y018185D01*
X051798Y018185D01*
X051798Y017935D01*
X051348Y017935D01*
X049348Y018285D02*
X049350Y018374D01*
X049356Y018463D01*
X049366Y018552D01*
X049380Y018640D01*
X049397Y018727D01*
X049419Y018813D01*
X049445Y018899D01*
X049474Y018983D01*
X049507Y019066D01*
X049543Y019147D01*
X049584Y019227D01*
X049627Y019304D01*
X049674Y019380D01*
X049725Y019453D01*
X049778Y019524D01*
X049835Y019593D01*
X049895Y019659D01*
X049958Y019723D01*
X050023Y019783D01*
X050091Y019841D01*
X050162Y019895D01*
X050235Y019946D01*
X050310Y019994D01*
X050387Y020039D01*
X050466Y020080D01*
X050547Y020117D01*
X050629Y020151D01*
X050713Y020182D01*
X050798Y020208D01*
X050884Y020231D01*
X050971Y020249D01*
X051059Y020264D01*
X051148Y020275D01*
X051237Y020282D01*
X051326Y020285D01*
X051415Y020284D01*
X051504Y020279D01*
X051592Y020270D01*
X051681Y020257D01*
X051768Y020240D01*
X051855Y020220D01*
X051941Y020195D01*
X052025Y020167D01*
X052108Y020135D01*
X052190Y020099D01*
X052270Y020060D01*
X052348Y020017D01*
X052424Y019971D01*
X052498Y019921D01*
X052570Y019868D01*
X052639Y019812D01*
X052706Y019753D01*
X052770Y019691D01*
X052831Y019627D01*
X052890Y019559D01*
X052945Y019489D01*
X052997Y019417D01*
X053046Y019342D01*
X053091Y019266D01*
X053133Y019187D01*
X053171Y019107D01*
X053206Y019025D01*
X053237Y018941D01*
X053265Y018856D01*
X053288Y018770D01*
X053308Y018683D01*
X053324Y018596D01*
X053336Y018507D01*
X053344Y018419D01*
X053348Y018330D01*
X053348Y018240D01*
X053344Y018151D01*
X053336Y018063D01*
X053324Y017974D01*
X053308Y017887D01*
X053288Y017800D01*
X053265Y017714D01*
X053237Y017629D01*
X053206Y017545D01*
X053171Y017463D01*
X053133Y017383D01*
X053091Y017304D01*
X053046Y017228D01*
X052997Y017153D01*
X052945Y017081D01*
X052890Y017011D01*
X052831Y016943D01*
X052770Y016879D01*
X052706Y016817D01*
X052639Y016758D01*
X052570Y016702D01*
X052498Y016649D01*
X052424Y016599D01*
X052348Y016553D01*
X052270Y016510D01*
X052190Y016471D01*
X052108Y016435D01*
X052025Y016403D01*
X051941Y016375D01*
X051855Y016350D01*
X051768Y016330D01*
X051681Y016313D01*
X051592Y016300D01*
X051504Y016291D01*
X051415Y016286D01*
X051326Y016285D01*
X051237Y016288D01*
X051148Y016295D01*
X051059Y016306D01*
X050971Y016321D01*
X050884Y016339D01*
X050798Y016362D01*
X050713Y016388D01*
X050629Y016419D01*
X050547Y016453D01*
X050466Y016490D01*
X050387Y016531D01*
X050310Y016576D01*
X050235Y016624D01*
X050162Y016675D01*
X050091Y016729D01*
X050023Y016787D01*
X049958Y016847D01*
X049895Y016911D01*
X049835Y016977D01*
X049778Y017046D01*
X049725Y017117D01*
X049674Y017190D01*
X049627Y017266D01*
X049584Y017343D01*
X049543Y017423D01*
X049507Y017504D01*
X049474Y017587D01*
X049445Y017671D01*
X049419Y017757D01*
X049397Y017843D01*
X049380Y017930D01*
X049366Y018018D01*
X049356Y018107D01*
X049350Y018196D01*
X049348Y018285D01*
X051348Y018535D02*
X051348Y018735D01*
X053898Y018785D02*
X053948Y018835D01*
X053948Y020735D01*
X053898Y020785D01*
X053898Y020935D01*
X053900Y020952D01*
X053904Y020969D01*
X053911Y020985D01*
X053921Y020999D01*
X053934Y021012D01*
X053948Y021022D01*
X053964Y021029D01*
X053981Y021033D01*
X053998Y021035D01*
X054698Y021035D01*
X054715Y021033D01*
X054732Y021029D01*
X054748Y021022D01*
X054762Y021012D01*
X054775Y020999D01*
X054785Y020985D01*
X054792Y020969D01*
X054796Y020952D01*
X054798Y020935D01*
X054798Y020785D01*
X054748Y020735D01*
X054748Y018835D01*
X054798Y018785D01*
X054798Y018635D01*
X054796Y018618D01*
X054792Y018601D01*
X054785Y018585D01*
X054775Y018571D01*
X054762Y018558D01*
X054748Y018548D01*
X054732Y018541D01*
X054715Y018537D01*
X054698Y018535D01*
X053998Y018535D01*
X053981Y018537D01*
X053964Y018541D01*
X053948Y018548D01*
X053934Y018558D01*
X053921Y018571D01*
X053911Y018585D01*
X053904Y018601D01*
X053900Y018618D01*
X053898Y018635D01*
X053898Y018785D01*
X058698Y019785D02*
X060998Y019785D01*
X060998Y023785D01*
X060248Y023785D01*
X060246Y023746D01*
X060240Y023707D01*
X060231Y023669D01*
X060218Y023632D01*
X060201Y023596D01*
X060181Y023563D01*
X060157Y023531D01*
X060131Y023502D01*
X060102Y023476D01*
X060070Y023452D01*
X060037Y023432D01*
X060001Y023415D01*
X059964Y023402D01*
X059926Y023393D01*
X059887Y023387D01*
X059848Y023385D01*
X059809Y023387D01*
X059770Y023393D01*
X059732Y023402D01*
X059695Y023415D01*
X059659Y023432D01*
X059626Y023452D01*
X059594Y023476D01*
X059565Y023502D01*
X059539Y023531D01*
X059515Y023563D01*
X059495Y023596D01*
X059478Y023632D01*
X059465Y023669D01*
X059456Y023707D01*
X059450Y023746D01*
X059448Y023785D01*
X058698Y023785D01*
X058698Y019785D01*
X062398Y022135D02*
X062398Y022285D01*
X062448Y022335D01*
X062448Y024235D01*
X062398Y024285D01*
X062398Y024435D01*
X062400Y024452D01*
X062404Y024469D01*
X062411Y024485D01*
X062421Y024499D01*
X062434Y024512D01*
X062448Y024522D01*
X062464Y024529D01*
X062481Y024533D01*
X062498Y024535D01*
X063198Y024535D01*
X063215Y024533D01*
X063232Y024529D01*
X063248Y024522D01*
X063262Y024512D01*
X063275Y024499D01*
X063285Y024485D01*
X063292Y024469D01*
X063296Y024452D01*
X063298Y024435D01*
X063298Y024285D01*
X063248Y024235D01*
X063248Y022335D01*
X063298Y022285D01*
X063298Y022135D01*
X063296Y022118D01*
X063292Y022101D01*
X063285Y022085D01*
X063275Y022071D01*
X063262Y022058D01*
X063248Y022048D01*
X063232Y022041D01*
X063215Y022037D01*
X063198Y022035D01*
X062498Y022035D01*
X062481Y022037D01*
X062464Y022041D01*
X062448Y022048D01*
X062434Y022058D01*
X062421Y022071D01*
X062411Y022085D01*
X062404Y022101D01*
X062400Y022118D01*
X062398Y022135D01*
X060998Y024835D02*
X060848Y024835D01*
X060798Y024885D01*
X058898Y024885D01*
X058848Y024835D01*
X058698Y024835D01*
X058681Y024837D01*
X058664Y024841D01*
X058648Y024848D01*
X058634Y024858D01*
X058621Y024871D01*
X058611Y024885D01*
X058604Y024901D01*
X058600Y024918D01*
X058598Y024935D01*
X058598Y025635D01*
X058600Y025652D01*
X058604Y025669D01*
X058611Y025685D01*
X058621Y025699D01*
X058634Y025712D01*
X058648Y025722D01*
X058664Y025729D01*
X058681Y025733D01*
X058698Y025735D01*
X058848Y025735D01*
X058898Y025685D01*
X060798Y025685D01*
X060848Y025735D01*
X060998Y025735D01*
X061015Y025733D01*
X061032Y025729D01*
X061048Y025722D01*
X061062Y025712D01*
X061075Y025699D01*
X061085Y025685D01*
X061092Y025669D01*
X061096Y025652D01*
X061098Y025635D01*
X061098Y024935D01*
X061096Y024918D01*
X061092Y024901D01*
X061085Y024885D01*
X061075Y024871D01*
X061062Y024858D01*
X061048Y024848D01*
X061032Y024841D01*
X061015Y024837D01*
X060998Y024835D01*
X056998Y029535D02*
X055048Y029535D01*
X054848Y029735D01*
X054848Y033785D01*
X055198Y033785D01*
X057198Y033785D01*
X057198Y033735D01*
X057198Y029735D01*
X056998Y029535D01*
X055378Y030785D02*
X055380Y030835D01*
X055386Y030885D01*
X055396Y030935D01*
X055409Y030983D01*
X055426Y031031D01*
X055447Y031077D01*
X055471Y031121D01*
X055499Y031163D01*
X055530Y031203D01*
X055564Y031240D01*
X055601Y031275D01*
X055640Y031306D01*
X055681Y031335D01*
X055725Y031360D01*
X055771Y031382D01*
X055818Y031400D01*
X055866Y031414D01*
X055915Y031425D01*
X055965Y031432D01*
X056015Y031435D01*
X056066Y031434D01*
X056116Y031429D01*
X056166Y031420D01*
X056214Y031408D01*
X056262Y031391D01*
X056308Y031371D01*
X056353Y031348D01*
X056396Y031321D01*
X056436Y031291D01*
X056474Y031258D01*
X056509Y031222D01*
X056542Y031183D01*
X056571Y031142D01*
X056597Y031099D01*
X056620Y031054D01*
X056639Y031007D01*
X056654Y030959D01*
X056666Y030910D01*
X056674Y030860D01*
X056678Y030810D01*
X056678Y030760D01*
X056674Y030710D01*
X056666Y030660D01*
X056654Y030611D01*
X056639Y030563D01*
X056620Y030516D01*
X056597Y030471D01*
X056571Y030428D01*
X056542Y030387D01*
X056509Y030348D01*
X056474Y030312D01*
X056436Y030279D01*
X056396Y030249D01*
X056353Y030222D01*
X056308Y030199D01*
X056262Y030179D01*
X056214Y030162D01*
X056166Y030150D01*
X056116Y030141D01*
X056066Y030136D01*
X056015Y030135D01*
X055965Y030138D01*
X055915Y030145D01*
X055866Y030156D01*
X055818Y030170D01*
X055771Y030188D01*
X055725Y030210D01*
X055681Y030235D01*
X055640Y030264D01*
X055601Y030295D01*
X055564Y030330D01*
X055530Y030367D01*
X055499Y030407D01*
X055471Y030449D01*
X055447Y030493D01*
X055426Y030539D01*
X055409Y030587D01*
X055396Y030635D01*
X055386Y030685D01*
X055380Y030735D01*
X055378Y030785D01*
X054748Y033485D02*
X054748Y033785D01*
X054848Y033785D01*
X054748Y033785D02*
X047448Y033785D01*
X047448Y033485D01*
X054748Y033485D01*
X054898Y033785D02*
X054928Y033787D01*
X054958Y033792D01*
X054987Y033801D01*
X055014Y033814D01*
X055040Y033829D01*
X055064Y033848D01*
X055085Y033869D01*
X055104Y033893D01*
X055119Y033919D01*
X055132Y033946D01*
X055141Y033975D01*
X055146Y034005D01*
X055148Y034035D01*
X055148Y034985D01*
X055198Y034985D01*
X055198Y035185D01*
X056198Y035185D01*
X057198Y035185D01*
X057198Y034985D01*
X057198Y033785D01*
X057198Y035185D02*
X057198Y035385D01*
X054148Y035385D01*
X048048Y035385D01*
X044998Y035385D01*
X044998Y035185D01*
X045998Y035185D01*
X046998Y035185D01*
X055198Y035185D01*
X054548Y035385D02*
X054518Y035387D01*
X054488Y035392D01*
X054459Y035401D01*
X054432Y035414D01*
X054406Y035429D01*
X054382Y035448D01*
X054361Y035469D01*
X054342Y035493D01*
X054327Y035519D01*
X054314Y035546D01*
X054305Y035575D01*
X054300Y035605D01*
X054298Y035635D01*
X054298Y037635D01*
X054296Y037661D01*
X054291Y037687D01*
X054283Y037712D01*
X054271Y037735D01*
X054257Y037757D01*
X054239Y037776D01*
X054220Y037794D01*
X054198Y037808D01*
X054175Y037820D01*
X054150Y037828D01*
X054124Y037833D01*
X054098Y037835D01*
X053998Y037835D01*
X048198Y037835D01*
X048098Y037835D01*
X048072Y037833D01*
X048046Y037828D01*
X048021Y037820D01*
X047998Y037808D01*
X047976Y037794D01*
X047957Y037776D01*
X047939Y037757D01*
X047925Y037735D01*
X047913Y037712D01*
X047905Y037687D01*
X047900Y037661D01*
X047898Y037635D01*
X047898Y035635D01*
X047896Y035605D01*
X047891Y035575D01*
X047882Y035546D01*
X047869Y035519D01*
X047854Y035493D01*
X047835Y035469D01*
X047814Y035448D01*
X047790Y035429D01*
X047764Y035414D01*
X047737Y035401D01*
X047708Y035392D01*
X047678Y035387D01*
X047648Y035385D01*
X046998Y035185D02*
X046998Y034985D01*
X047048Y034985D01*
X047048Y034035D01*
X047050Y034005D01*
X047055Y033975D01*
X047064Y033946D01*
X047077Y033919D01*
X047092Y033893D01*
X047111Y033869D01*
X047132Y033848D01*
X047156Y033829D01*
X047182Y033814D01*
X047209Y033801D01*
X047238Y033792D01*
X047268Y033787D01*
X047298Y033785D01*
X047348Y033785D02*
X047348Y029735D01*
X047148Y029535D01*
X045248Y029535D01*
X044998Y029785D01*
X044998Y033735D01*
X044998Y033785D01*
X044998Y034985D01*
X044998Y035185D01*
X044998Y033785D02*
X046998Y033785D01*
X047348Y033785D01*
X047448Y033785D01*
X045518Y030785D02*
X045520Y030835D01*
X045526Y030885D01*
X045536Y030935D01*
X045549Y030983D01*
X045566Y031031D01*
X045587Y031077D01*
X045611Y031121D01*
X045639Y031163D01*
X045670Y031203D01*
X045704Y031240D01*
X045741Y031275D01*
X045780Y031306D01*
X045821Y031335D01*
X045865Y031360D01*
X045911Y031382D01*
X045958Y031400D01*
X046006Y031414D01*
X046055Y031425D01*
X046105Y031432D01*
X046155Y031435D01*
X046206Y031434D01*
X046256Y031429D01*
X046306Y031420D01*
X046354Y031408D01*
X046402Y031391D01*
X046448Y031371D01*
X046493Y031348D01*
X046536Y031321D01*
X046576Y031291D01*
X046614Y031258D01*
X046649Y031222D01*
X046682Y031183D01*
X046711Y031142D01*
X046737Y031099D01*
X046760Y031054D01*
X046779Y031007D01*
X046794Y030959D01*
X046806Y030910D01*
X046814Y030860D01*
X046818Y030810D01*
X046818Y030760D01*
X046814Y030710D01*
X046806Y030660D01*
X046794Y030611D01*
X046779Y030563D01*
X046760Y030516D01*
X046737Y030471D01*
X046711Y030428D01*
X046682Y030387D01*
X046649Y030348D01*
X046614Y030312D01*
X046576Y030279D01*
X046536Y030249D01*
X046493Y030222D01*
X046448Y030199D01*
X046402Y030179D01*
X046354Y030162D01*
X046306Y030150D01*
X046256Y030141D01*
X046206Y030136D01*
X046155Y030135D01*
X046105Y030138D01*
X046055Y030145D01*
X046006Y030156D01*
X045958Y030170D01*
X045911Y030188D01*
X045865Y030210D01*
X045821Y030235D01*
X045780Y030264D01*
X045741Y030295D01*
X045704Y030330D01*
X045670Y030367D01*
X045639Y030407D01*
X045611Y030449D01*
X045587Y030493D01*
X045566Y030539D01*
X045549Y030587D01*
X045536Y030635D01*
X045526Y030685D01*
X045520Y030735D01*
X045518Y030785D01*
X050198Y025235D02*
X050348Y025235D01*
X050398Y025185D01*
X052298Y025185D01*
X052348Y025235D01*
X052498Y025235D01*
X052515Y025233D01*
X052532Y025229D01*
X052548Y025222D01*
X052562Y025212D01*
X052575Y025199D01*
X052585Y025185D01*
X052592Y025169D01*
X052596Y025152D01*
X052598Y025135D01*
X052598Y024435D01*
X052596Y024418D01*
X052592Y024401D01*
X052585Y024385D01*
X052575Y024371D01*
X052562Y024358D01*
X052548Y024348D01*
X052532Y024341D01*
X052515Y024337D01*
X052498Y024335D01*
X052348Y024335D01*
X052298Y024385D01*
X050398Y024385D01*
X050348Y024335D01*
X050198Y024335D01*
X050181Y024337D01*
X050164Y024341D01*
X050148Y024348D01*
X050134Y024358D01*
X050121Y024371D01*
X050111Y024385D01*
X050104Y024401D01*
X050100Y024418D01*
X050098Y024435D01*
X050098Y025135D01*
X050100Y025152D01*
X050104Y025169D01*
X050111Y025185D01*
X050121Y025199D01*
X050134Y025212D01*
X050148Y025222D01*
X050164Y025229D01*
X050181Y025233D01*
X050198Y025235D01*
X050198Y023735D02*
X050348Y023735D01*
X050398Y023685D01*
X052298Y023685D01*
X052348Y023735D01*
X052498Y023735D01*
X052515Y023733D01*
X052532Y023729D01*
X052548Y023722D01*
X052562Y023712D01*
X052575Y023699D01*
X052585Y023685D01*
X052592Y023669D01*
X052596Y023652D01*
X052598Y023635D01*
X052598Y022935D01*
X052596Y022918D01*
X052592Y022901D01*
X052585Y022885D01*
X052575Y022871D01*
X052562Y022858D01*
X052548Y022848D01*
X052532Y022841D01*
X052515Y022837D01*
X052498Y022835D01*
X052348Y022835D01*
X052298Y022885D01*
X050398Y022885D01*
X050348Y022835D01*
X050198Y022835D01*
X050181Y022837D01*
X050164Y022841D01*
X050148Y022848D01*
X050134Y022858D01*
X050121Y022871D01*
X050111Y022885D01*
X050104Y022901D01*
X050100Y022918D01*
X050098Y022935D01*
X050098Y023635D01*
X050100Y023652D01*
X050104Y023669D01*
X050111Y023685D01*
X050121Y023699D01*
X050134Y023712D01*
X050148Y023722D01*
X050164Y023729D01*
X050181Y023733D01*
X050198Y023735D01*
X047948Y020785D02*
X046798Y020785D01*
X047948Y020785D02*
X048048Y020685D01*
X048048Y016885D01*
X047948Y016785D01*
X046798Y016785D01*
X045598Y017935D02*
X045098Y017935D01*
X045072Y017937D01*
X045046Y017942D01*
X045021Y017950D01*
X044998Y017962D01*
X044976Y017976D01*
X044957Y017994D01*
X044939Y018013D01*
X044925Y018035D01*
X044913Y018058D01*
X044905Y018083D01*
X044900Y018109D01*
X044898Y018135D01*
X044898Y019435D01*
X044900Y019461D01*
X044905Y019487D01*
X044913Y019512D01*
X044925Y019535D01*
X044939Y019557D01*
X044957Y019576D01*
X044976Y019594D01*
X044998Y019608D01*
X045021Y019620D01*
X045046Y019628D01*
X045072Y019633D01*
X045098Y019635D01*
X045598Y019635D01*
X045624Y019633D01*
X045650Y019628D01*
X045675Y019620D01*
X045698Y019608D01*
X045720Y019594D01*
X045739Y019576D01*
X045757Y019557D01*
X045771Y019535D01*
X045783Y019512D01*
X045791Y019487D01*
X045796Y019461D01*
X045798Y019435D01*
X045798Y018135D01*
X045796Y018109D01*
X045791Y018083D01*
X045783Y018058D01*
X045771Y018035D01*
X045757Y018013D01*
X045739Y017994D01*
X045720Y017976D01*
X045698Y017962D01*
X045675Y017950D01*
X045650Y017942D01*
X045624Y017937D01*
X045598Y017935D01*
X042798Y018435D02*
X042798Y018685D01*
X041898Y018685D01*
X041898Y018435D01*
X042348Y018435D01*
X042798Y018435D01*
X042348Y018435D02*
X042348Y018335D01*
X040348Y018785D02*
X040350Y018874D01*
X040356Y018963D01*
X040366Y019052D01*
X040380Y019140D01*
X040397Y019227D01*
X040419Y019313D01*
X040445Y019399D01*
X040474Y019483D01*
X040507Y019566D01*
X040543Y019647D01*
X040584Y019727D01*
X040627Y019804D01*
X040674Y019880D01*
X040725Y019953D01*
X040778Y020024D01*
X040835Y020093D01*
X040895Y020159D01*
X040958Y020223D01*
X041023Y020283D01*
X041091Y020341D01*
X041162Y020395D01*
X041235Y020446D01*
X041310Y020494D01*
X041387Y020539D01*
X041466Y020580D01*
X041547Y020617D01*
X041629Y020651D01*
X041713Y020682D01*
X041798Y020708D01*
X041884Y020731D01*
X041971Y020749D01*
X042059Y020764D01*
X042148Y020775D01*
X042237Y020782D01*
X042326Y020785D01*
X042415Y020784D01*
X042504Y020779D01*
X042592Y020770D01*
X042681Y020757D01*
X042768Y020740D01*
X042855Y020720D01*
X042941Y020695D01*
X043025Y020667D01*
X043108Y020635D01*
X043190Y020599D01*
X043270Y020560D01*
X043348Y020517D01*
X043424Y020471D01*
X043498Y020421D01*
X043570Y020368D01*
X043639Y020312D01*
X043706Y020253D01*
X043770Y020191D01*
X043831Y020127D01*
X043890Y020059D01*
X043945Y019989D01*
X043997Y019917D01*
X044046Y019842D01*
X044091Y019766D01*
X044133Y019687D01*
X044171Y019607D01*
X044206Y019525D01*
X044237Y019441D01*
X044265Y019356D01*
X044288Y019270D01*
X044308Y019183D01*
X044324Y019096D01*
X044336Y019007D01*
X044344Y018919D01*
X044348Y018830D01*
X044348Y018740D01*
X044344Y018651D01*
X044336Y018563D01*
X044324Y018474D01*
X044308Y018387D01*
X044288Y018300D01*
X044265Y018214D01*
X044237Y018129D01*
X044206Y018045D01*
X044171Y017963D01*
X044133Y017883D01*
X044091Y017804D01*
X044046Y017728D01*
X043997Y017653D01*
X043945Y017581D01*
X043890Y017511D01*
X043831Y017443D01*
X043770Y017379D01*
X043706Y017317D01*
X043639Y017258D01*
X043570Y017202D01*
X043498Y017149D01*
X043424Y017099D01*
X043348Y017053D01*
X043270Y017010D01*
X043190Y016971D01*
X043108Y016935D01*
X043025Y016903D01*
X042941Y016875D01*
X042855Y016850D01*
X042768Y016830D01*
X042681Y016813D01*
X042592Y016800D01*
X042504Y016791D01*
X042415Y016786D01*
X042326Y016785D01*
X042237Y016788D01*
X042148Y016795D01*
X042059Y016806D01*
X041971Y016821D01*
X041884Y016839D01*
X041798Y016862D01*
X041713Y016888D01*
X041629Y016919D01*
X041547Y016953D01*
X041466Y016990D01*
X041387Y017031D01*
X041310Y017076D01*
X041235Y017124D01*
X041162Y017175D01*
X041091Y017229D01*
X041023Y017287D01*
X040958Y017347D01*
X040895Y017411D01*
X040835Y017477D01*
X040778Y017546D01*
X040725Y017617D01*
X040674Y017690D01*
X040627Y017766D01*
X040584Y017843D01*
X040543Y017923D01*
X040507Y018004D01*
X040474Y018087D01*
X040445Y018171D01*
X040419Y018257D01*
X040397Y018343D01*
X040380Y018430D01*
X040366Y018518D01*
X040356Y018607D01*
X040350Y018696D01*
X040348Y018785D01*
X039798Y019435D02*
X039798Y018135D01*
X039796Y018109D01*
X039791Y018083D01*
X039783Y018058D01*
X039771Y018035D01*
X039757Y018013D01*
X039739Y017994D01*
X039720Y017976D01*
X039698Y017962D01*
X039675Y017950D01*
X039650Y017942D01*
X039624Y017937D01*
X039598Y017935D01*
X039098Y017935D01*
X039072Y017937D01*
X039046Y017942D01*
X039021Y017950D01*
X038998Y017962D01*
X038976Y017976D01*
X038957Y017994D01*
X038939Y018013D01*
X038925Y018035D01*
X038913Y018058D01*
X038905Y018083D01*
X038900Y018109D01*
X038898Y018135D01*
X038898Y019435D01*
X038900Y019461D01*
X038905Y019487D01*
X038913Y019512D01*
X038925Y019535D01*
X038939Y019557D01*
X038957Y019576D01*
X038976Y019594D01*
X038998Y019608D01*
X039021Y019620D01*
X039046Y019628D01*
X039072Y019633D01*
X039098Y019635D01*
X039598Y019635D01*
X039624Y019633D01*
X039650Y019628D01*
X039675Y019620D01*
X039698Y019608D01*
X039720Y019594D01*
X039739Y019576D01*
X039757Y019557D01*
X039771Y019535D01*
X039783Y019512D01*
X039791Y019487D01*
X039796Y019461D01*
X039798Y019435D01*
X042348Y019235D02*
X042348Y019035D01*
X041848Y017435D02*
X041848Y017135D01*
X041698Y017285D02*
X041998Y017285D01*
X036798Y018435D02*
X036798Y018685D01*
X035898Y018685D01*
X035898Y018435D01*
X036348Y018435D01*
X036798Y018435D01*
X036348Y018435D02*
X036348Y018335D01*
X034348Y018785D02*
X034350Y018874D01*
X034356Y018963D01*
X034366Y019052D01*
X034380Y019140D01*
X034397Y019227D01*
X034419Y019313D01*
X034445Y019399D01*
X034474Y019483D01*
X034507Y019566D01*
X034543Y019647D01*
X034584Y019727D01*
X034627Y019804D01*
X034674Y019880D01*
X034725Y019953D01*
X034778Y020024D01*
X034835Y020093D01*
X034895Y020159D01*
X034958Y020223D01*
X035023Y020283D01*
X035091Y020341D01*
X035162Y020395D01*
X035235Y020446D01*
X035310Y020494D01*
X035387Y020539D01*
X035466Y020580D01*
X035547Y020617D01*
X035629Y020651D01*
X035713Y020682D01*
X035798Y020708D01*
X035884Y020731D01*
X035971Y020749D01*
X036059Y020764D01*
X036148Y020775D01*
X036237Y020782D01*
X036326Y020785D01*
X036415Y020784D01*
X036504Y020779D01*
X036592Y020770D01*
X036681Y020757D01*
X036768Y020740D01*
X036855Y020720D01*
X036941Y020695D01*
X037025Y020667D01*
X037108Y020635D01*
X037190Y020599D01*
X037270Y020560D01*
X037348Y020517D01*
X037424Y020471D01*
X037498Y020421D01*
X037570Y020368D01*
X037639Y020312D01*
X037706Y020253D01*
X037770Y020191D01*
X037831Y020127D01*
X037890Y020059D01*
X037945Y019989D01*
X037997Y019917D01*
X038046Y019842D01*
X038091Y019766D01*
X038133Y019687D01*
X038171Y019607D01*
X038206Y019525D01*
X038237Y019441D01*
X038265Y019356D01*
X038288Y019270D01*
X038308Y019183D01*
X038324Y019096D01*
X038336Y019007D01*
X038344Y018919D01*
X038348Y018830D01*
X038348Y018740D01*
X038344Y018651D01*
X038336Y018563D01*
X038324Y018474D01*
X038308Y018387D01*
X038288Y018300D01*
X038265Y018214D01*
X038237Y018129D01*
X038206Y018045D01*
X038171Y017963D01*
X038133Y017883D01*
X038091Y017804D01*
X038046Y017728D01*
X037997Y017653D01*
X037945Y017581D01*
X037890Y017511D01*
X037831Y017443D01*
X037770Y017379D01*
X037706Y017317D01*
X037639Y017258D01*
X037570Y017202D01*
X037498Y017149D01*
X037424Y017099D01*
X037348Y017053D01*
X037270Y017010D01*
X037190Y016971D01*
X037108Y016935D01*
X037025Y016903D01*
X036941Y016875D01*
X036855Y016850D01*
X036768Y016830D01*
X036681Y016813D01*
X036592Y016800D01*
X036504Y016791D01*
X036415Y016786D01*
X036326Y016785D01*
X036237Y016788D01*
X036148Y016795D01*
X036059Y016806D01*
X035971Y016821D01*
X035884Y016839D01*
X035798Y016862D01*
X035713Y016888D01*
X035629Y016919D01*
X035547Y016953D01*
X035466Y016990D01*
X035387Y017031D01*
X035310Y017076D01*
X035235Y017124D01*
X035162Y017175D01*
X035091Y017229D01*
X035023Y017287D01*
X034958Y017347D01*
X034895Y017411D01*
X034835Y017477D01*
X034778Y017546D01*
X034725Y017617D01*
X034674Y017690D01*
X034627Y017766D01*
X034584Y017843D01*
X034543Y017923D01*
X034507Y018004D01*
X034474Y018087D01*
X034445Y018171D01*
X034419Y018257D01*
X034397Y018343D01*
X034380Y018430D01*
X034366Y018518D01*
X034356Y018607D01*
X034350Y018696D01*
X034348Y018785D01*
X033848Y018485D02*
X032848Y018485D01*
X032848Y020085D01*
X033848Y020085D01*
X033848Y018485D01*
X033348Y019035D02*
X033348Y019285D01*
X033598Y019285D01*
X033348Y019285D02*
X033098Y019285D01*
X033348Y019285D02*
X033098Y019685D01*
X033598Y019685D01*
X033348Y019285D01*
X033348Y019885D01*
X032348Y020085D02*
X031348Y020085D01*
X031348Y018485D01*
X032348Y018485D01*
X032348Y020085D01*
X031848Y019535D02*
X031848Y019285D01*
X031598Y019285D01*
X031848Y019285D02*
X031598Y018885D01*
X032098Y018885D01*
X031848Y019285D01*
X032098Y019285D01*
X031848Y019285D02*
X031848Y018685D01*
X035698Y017285D02*
X035998Y017285D01*
X035848Y017435D02*
X035848Y017135D01*
X036348Y019035D02*
X036348Y019235D01*
X065198Y033285D02*
X065200Y033352D01*
X065206Y033420D01*
X065216Y033487D01*
X065230Y033553D01*
X065247Y033618D01*
X065269Y033682D01*
X065294Y033745D01*
X065323Y033806D01*
X065355Y033865D01*
X065391Y033922D01*
X065430Y033977D01*
X065472Y034030D01*
X065517Y034080D01*
X065565Y034127D01*
X065616Y034172D01*
X065669Y034213D01*
X065725Y034252D01*
X065783Y034287D01*
X065843Y034318D01*
X065904Y034346D01*
X065967Y034370D01*
X066031Y034391D01*
X066097Y034407D01*
X066163Y034420D01*
X066230Y034429D01*
X066297Y034434D01*
X066365Y034435D01*
X066432Y034432D01*
X066499Y034425D01*
X066566Y034414D01*
X066632Y034399D01*
X066697Y034381D01*
X066761Y034358D01*
X066823Y034332D01*
X066884Y034303D01*
X066942Y034269D01*
X066999Y034233D01*
X067054Y034193D01*
X067106Y034150D01*
X067155Y034104D01*
X067202Y034055D01*
X067246Y034004D01*
X067286Y033950D01*
X067324Y033894D01*
X067358Y033835D01*
X067388Y033775D01*
X067415Y033713D01*
X067439Y033650D01*
X067458Y033585D01*
X067474Y033520D01*
X067486Y033453D01*
X067494Y033386D01*
X067498Y033319D01*
X067498Y033251D01*
X067494Y033184D01*
X067486Y033117D01*
X067474Y033050D01*
X067458Y032985D01*
X067439Y032920D01*
X067415Y032857D01*
X067388Y032795D01*
X067358Y032735D01*
X067324Y032676D01*
X067286Y032620D01*
X067246Y032566D01*
X067202Y032515D01*
X067155Y032466D01*
X067106Y032420D01*
X067054Y032377D01*
X066999Y032337D01*
X066942Y032301D01*
X066884Y032267D01*
X066823Y032238D01*
X066761Y032212D01*
X066697Y032189D01*
X066632Y032171D01*
X066566Y032156D01*
X066499Y032145D01*
X066432Y032138D01*
X066365Y032135D01*
X066297Y032136D01*
X066230Y032141D01*
X066163Y032150D01*
X066097Y032163D01*
X066031Y032179D01*
X065967Y032200D01*
X065904Y032224D01*
X065843Y032252D01*
X065783Y032283D01*
X065725Y032318D01*
X065669Y032357D01*
X065616Y032398D01*
X065565Y032443D01*
X065517Y032490D01*
X065472Y032540D01*
X065430Y032593D01*
X065391Y032648D01*
X065355Y032705D01*
X065323Y032764D01*
X065294Y032825D01*
X065269Y032888D01*
X065247Y032952D01*
X065230Y033017D01*
X065216Y033083D01*
X065206Y033150D01*
X065200Y033218D01*
X065198Y033285D01*
X065198Y002285D02*
X065200Y002352D01*
X065206Y002420D01*
X065216Y002487D01*
X065230Y002553D01*
X065247Y002618D01*
X065269Y002682D01*
X065294Y002745D01*
X065323Y002806D01*
X065355Y002865D01*
X065391Y002922D01*
X065430Y002977D01*
X065472Y003030D01*
X065517Y003080D01*
X065565Y003127D01*
X065616Y003172D01*
X065669Y003213D01*
X065725Y003252D01*
X065783Y003287D01*
X065843Y003318D01*
X065904Y003346D01*
X065967Y003370D01*
X066031Y003391D01*
X066097Y003407D01*
X066163Y003420D01*
X066230Y003429D01*
X066297Y003434D01*
X066365Y003435D01*
X066432Y003432D01*
X066499Y003425D01*
X066566Y003414D01*
X066632Y003399D01*
X066697Y003381D01*
X066761Y003358D01*
X066823Y003332D01*
X066884Y003303D01*
X066942Y003269D01*
X066999Y003233D01*
X067054Y003193D01*
X067106Y003150D01*
X067155Y003104D01*
X067202Y003055D01*
X067246Y003004D01*
X067286Y002950D01*
X067324Y002894D01*
X067358Y002835D01*
X067388Y002775D01*
X067415Y002713D01*
X067439Y002650D01*
X067458Y002585D01*
X067474Y002520D01*
X067486Y002453D01*
X067494Y002386D01*
X067498Y002319D01*
X067498Y002251D01*
X067494Y002184D01*
X067486Y002117D01*
X067474Y002050D01*
X067458Y001985D01*
X067439Y001920D01*
X067415Y001857D01*
X067388Y001795D01*
X067358Y001735D01*
X067324Y001676D01*
X067286Y001620D01*
X067246Y001566D01*
X067202Y001515D01*
X067155Y001466D01*
X067106Y001420D01*
X067054Y001377D01*
X066999Y001337D01*
X066942Y001301D01*
X066884Y001267D01*
X066823Y001238D01*
X066761Y001212D01*
X066697Y001189D01*
X066632Y001171D01*
X066566Y001156D01*
X066499Y001145D01*
X066432Y001138D01*
X066365Y001135D01*
X066297Y001136D01*
X066230Y001141D01*
X066163Y001150D01*
X066097Y001163D01*
X066031Y001179D01*
X065967Y001200D01*
X065904Y001224D01*
X065843Y001252D01*
X065783Y001283D01*
X065725Y001318D01*
X065669Y001357D01*
X065616Y001398D01*
X065565Y001443D01*
X065517Y001490D01*
X065472Y001540D01*
X065430Y001593D01*
X065391Y001648D01*
X065355Y001705D01*
X065323Y001764D01*
X065294Y001825D01*
X065269Y001888D01*
X065247Y001952D01*
X065230Y002017D01*
X065216Y002083D01*
X065206Y002150D01*
X065200Y002218D01*
X065198Y002285D01*
X001198Y033285D02*
X001200Y033352D01*
X001206Y033420D01*
X001216Y033487D01*
X001230Y033553D01*
X001247Y033618D01*
X001269Y033682D01*
X001294Y033745D01*
X001323Y033806D01*
X001355Y033865D01*
X001391Y033922D01*
X001430Y033977D01*
X001472Y034030D01*
X001517Y034080D01*
X001565Y034127D01*
X001616Y034172D01*
X001669Y034213D01*
X001725Y034252D01*
X001783Y034287D01*
X001843Y034318D01*
X001904Y034346D01*
X001967Y034370D01*
X002031Y034391D01*
X002097Y034407D01*
X002163Y034420D01*
X002230Y034429D01*
X002297Y034434D01*
X002365Y034435D01*
X002432Y034432D01*
X002499Y034425D01*
X002566Y034414D01*
X002632Y034399D01*
X002697Y034381D01*
X002761Y034358D01*
X002823Y034332D01*
X002884Y034303D01*
X002942Y034269D01*
X002999Y034233D01*
X003054Y034193D01*
X003106Y034150D01*
X003155Y034104D01*
X003202Y034055D01*
X003246Y034004D01*
X003286Y033950D01*
X003324Y033894D01*
X003358Y033835D01*
X003388Y033775D01*
X003415Y033713D01*
X003439Y033650D01*
X003458Y033585D01*
X003474Y033520D01*
X003486Y033453D01*
X003494Y033386D01*
X003498Y033319D01*
X003498Y033251D01*
X003494Y033184D01*
X003486Y033117D01*
X003474Y033050D01*
X003458Y032985D01*
X003439Y032920D01*
X003415Y032857D01*
X003388Y032795D01*
X003358Y032735D01*
X003324Y032676D01*
X003286Y032620D01*
X003246Y032566D01*
X003202Y032515D01*
X003155Y032466D01*
X003106Y032420D01*
X003054Y032377D01*
X002999Y032337D01*
X002942Y032301D01*
X002884Y032267D01*
X002823Y032238D01*
X002761Y032212D01*
X002697Y032189D01*
X002632Y032171D01*
X002566Y032156D01*
X002499Y032145D01*
X002432Y032138D01*
X002365Y032135D01*
X002297Y032136D01*
X002230Y032141D01*
X002163Y032150D01*
X002097Y032163D01*
X002031Y032179D01*
X001967Y032200D01*
X001904Y032224D01*
X001843Y032252D01*
X001783Y032283D01*
X001725Y032318D01*
X001669Y032357D01*
X001616Y032398D01*
X001565Y032443D01*
X001517Y032490D01*
X001472Y032540D01*
X001430Y032593D01*
X001391Y032648D01*
X001355Y032705D01*
X001323Y032764D01*
X001294Y032825D01*
X001269Y032888D01*
X001247Y032952D01*
X001230Y033017D01*
X001216Y033083D01*
X001206Y033150D01*
X001200Y033218D01*
X001198Y033285D01*
D11*
X054348Y021205D03*
X054348Y018365D03*
X054348Y014705D03*
X054348Y011865D03*
X062848Y021865D03*
X062848Y024705D03*
D12*
X045648Y018915D02*
X045048Y018915D01*
X045048Y018665D02*
X045648Y018665D01*
X039648Y018665D02*
X039048Y018665D01*
X039048Y018915D02*
X039648Y018915D01*
X039648Y013915D02*
X039048Y013915D01*
X039048Y013665D02*
X039648Y013665D01*
X045048Y013655D02*
X045648Y013655D01*
X045648Y013905D02*
X045048Y013905D01*
D13*
X042348Y014010D03*
X036348Y014010D03*
X036348Y019010D03*
X042348Y019010D03*
X051348Y018510D03*
X051348Y013510D03*
D14*
X052841Y010172D02*
X052798Y010139D01*
X052768Y010175D01*
X052735Y010208D01*
X052699Y010238D01*
X052661Y010265D01*
X052621Y010289D01*
X052579Y010310D01*
X052535Y010327D01*
X052490Y010340D01*
X052444Y010350D01*
X052398Y010356D01*
X052351Y010358D01*
X052351Y010411D01*
X052351Y010412D01*
X052398Y010410D01*
X052445Y010405D01*
X052491Y010396D01*
X052536Y010383D01*
X052580Y010367D01*
X052623Y010348D01*
X052665Y010326D01*
X052705Y010301D01*
X052742Y010273D01*
X052778Y010242D01*
X052811Y010208D01*
X052841Y010172D01*
X052837Y010169D01*
X052807Y010205D01*
X052774Y010238D01*
X052739Y010269D01*
X052702Y010297D01*
X052662Y010322D01*
X052621Y010344D01*
X052579Y010363D01*
X052535Y010378D01*
X052490Y010391D01*
X052444Y010400D01*
X052398Y010405D01*
X052351Y010407D01*
X052351Y010402D01*
X052397Y010400D01*
X052443Y010395D01*
X052489Y010386D01*
X052533Y010374D01*
X052577Y010358D01*
X052619Y010339D01*
X052660Y010317D01*
X052699Y010293D01*
X052736Y010265D01*
X052771Y010234D01*
X052803Y010201D01*
X052833Y010166D01*
X052829Y010163D01*
X052800Y010198D01*
X052767Y010231D01*
X052733Y010261D01*
X052696Y010288D01*
X052657Y010313D01*
X052617Y010335D01*
X052575Y010353D01*
X052532Y010369D01*
X052487Y010381D01*
X052442Y010390D01*
X052397Y010395D01*
X052351Y010397D01*
X052351Y010392D01*
X052396Y010390D01*
X052442Y010385D01*
X052486Y010376D01*
X052530Y010364D01*
X052573Y010349D01*
X052615Y010330D01*
X052655Y010309D01*
X052693Y010284D01*
X052730Y010257D01*
X052764Y010227D01*
X052796Y010195D01*
X052825Y010160D01*
X052821Y010157D01*
X052792Y010191D01*
X052760Y010223D01*
X052726Y010253D01*
X052690Y010280D01*
X052652Y010304D01*
X052613Y010326D01*
X052571Y010344D01*
X052529Y010359D01*
X052485Y010371D01*
X052441Y010380D01*
X052396Y010385D01*
X052351Y010387D01*
X052351Y010382D01*
X052396Y010380D01*
X052440Y010375D01*
X052484Y010366D01*
X052527Y010354D01*
X052569Y010339D01*
X052610Y010321D01*
X052650Y010300D01*
X052687Y010276D01*
X052723Y010249D01*
X052757Y010220D01*
X052788Y010188D01*
X052817Y010154D01*
X052813Y010151D01*
X052785Y010185D01*
X052754Y010216D01*
X052720Y010245D01*
X052685Y010272D01*
X052647Y010296D01*
X052608Y010317D01*
X052568Y010335D01*
X052526Y010350D01*
X052483Y010361D01*
X052439Y010370D01*
X052395Y010375D01*
X052351Y010377D01*
X052351Y010372D01*
X052395Y010370D01*
X052439Y010365D01*
X052482Y010357D01*
X052524Y010345D01*
X052566Y010330D01*
X052606Y010312D01*
X052645Y010292D01*
X052682Y010268D01*
X052717Y010242D01*
X052750Y010213D01*
X052781Y010181D01*
X052810Y010148D01*
X052806Y010145D01*
X052775Y010181D01*
X052741Y010214D01*
X052705Y010245D01*
X052666Y010273D01*
X052625Y010297D01*
X052582Y010318D01*
X052538Y010335D01*
X052492Y010349D01*
X052446Y010359D01*
X052399Y010365D01*
X052351Y010367D01*
X052351Y010362D01*
X052398Y010360D01*
X052445Y010354D01*
X052491Y010344D01*
X052536Y010330D01*
X052580Y010313D01*
X052622Y010293D01*
X052663Y010268D01*
X052701Y010241D01*
X052738Y010211D01*
X052771Y010177D01*
X052802Y010142D01*
X051840Y009419D02*
X051884Y009450D01*
X051883Y009450D02*
X051911Y009414D01*
X051942Y009381D01*
X051974Y009351D01*
X052010Y009323D01*
X052047Y009298D01*
X052086Y009276D01*
X052126Y009257D01*
X052169Y009241D01*
X052212Y009228D01*
X052256Y009219D01*
X052300Y009214D01*
X052345Y009212D01*
X052345Y009159D01*
X052345Y009158D01*
X052296Y009160D01*
X052247Y009166D01*
X052199Y009176D01*
X052152Y009190D01*
X052106Y009207D01*
X052061Y009227D01*
X052018Y009252D01*
X051978Y009279D01*
X051939Y009310D01*
X051903Y009343D01*
X051870Y009379D01*
X051840Y009418D01*
X051844Y009421D01*
X051874Y009383D01*
X051907Y009347D01*
X051942Y009314D01*
X051980Y009283D01*
X052021Y009256D01*
X052063Y009232D01*
X052108Y009211D01*
X052153Y009194D01*
X052200Y009181D01*
X052248Y009171D01*
X052296Y009165D01*
X052345Y009163D01*
X052345Y009168D01*
X052297Y009170D01*
X052249Y009176D01*
X052201Y009186D01*
X052155Y009199D01*
X052109Y009216D01*
X052066Y009236D01*
X052024Y009260D01*
X051983Y009287D01*
X051946Y009317D01*
X051910Y009350D01*
X051877Y009386D01*
X051848Y009424D01*
X051852Y009427D01*
X051881Y009389D01*
X051914Y009354D01*
X051949Y009321D01*
X051986Y009291D01*
X052026Y009264D01*
X052068Y009241D01*
X052111Y009221D01*
X052156Y009204D01*
X052202Y009191D01*
X052249Y009181D01*
X052297Y009175D01*
X052345Y009173D01*
X052345Y009178D01*
X052297Y009180D01*
X052250Y009186D01*
X052204Y009195D01*
X052158Y009209D01*
X052113Y009225D01*
X052070Y009245D01*
X052029Y009269D01*
X051989Y009295D01*
X051952Y009325D01*
X051917Y009357D01*
X051885Y009392D01*
X051856Y009430D01*
X051860Y009433D01*
X051889Y009396D01*
X051921Y009361D01*
X051955Y009329D01*
X051992Y009299D01*
X052031Y009273D01*
X052073Y009250D01*
X052115Y009230D01*
X052159Y009213D01*
X052205Y009200D01*
X052251Y009191D01*
X052298Y009185D01*
X052345Y009183D01*
X052345Y009188D01*
X052298Y009190D01*
X052252Y009196D01*
X052206Y009205D01*
X052161Y009218D01*
X052117Y009234D01*
X052075Y009254D01*
X052034Y009277D01*
X051995Y009303D01*
X051959Y009332D01*
X051924Y009364D01*
X051893Y009399D01*
X051864Y009436D01*
X051868Y009438D01*
X051897Y009402D01*
X051928Y009368D01*
X051962Y009336D01*
X051998Y009307D01*
X052037Y009281D01*
X052077Y009259D01*
X052119Y009239D01*
X052163Y009223D01*
X052207Y009210D01*
X052253Y009201D01*
X052299Y009195D01*
X052345Y009193D01*
X052345Y009198D01*
X052299Y009200D01*
X052253Y009206D01*
X052208Y009215D01*
X052164Y009228D01*
X052121Y009244D01*
X052079Y009263D01*
X052039Y009286D01*
X052001Y009311D01*
X051965Y009340D01*
X051932Y009371D01*
X051900Y009405D01*
X051872Y009441D01*
X051876Y009444D01*
X051904Y009408D01*
X051935Y009375D01*
X051968Y009344D01*
X052004Y009315D01*
X052042Y009290D01*
X052082Y009268D01*
X052123Y009248D01*
X052166Y009232D01*
X052210Y009220D01*
X052254Y009211D01*
X052299Y009205D01*
X052345Y009203D01*
X052345Y009208D01*
X052300Y009210D01*
X052255Y009216D01*
X052211Y009225D01*
X052167Y009237D01*
X052125Y009253D01*
X052084Y009272D01*
X052045Y009294D01*
X052007Y009319D01*
X051972Y009348D01*
X051939Y009378D01*
X051908Y009412D01*
X051880Y009447D01*
X052350Y009159D02*
X052350Y009213D01*
X052351Y009212D02*
X052395Y009214D01*
X052438Y009219D01*
X052481Y009228D01*
X052523Y009239D01*
X052564Y009254D01*
X052604Y009272D01*
X052643Y009294D01*
X052679Y009317D01*
X052714Y009344D01*
X052747Y009373D01*
X052777Y009405D01*
X052805Y009439D01*
X052847Y009407D01*
X052848Y009406D01*
X052817Y009369D01*
X052784Y009335D01*
X052749Y009303D01*
X052711Y009273D01*
X052670Y009247D01*
X052628Y009224D01*
X052585Y009204D01*
X052540Y009188D01*
X052494Y009175D01*
X052446Y009166D01*
X052399Y009160D01*
X052351Y009158D01*
X052351Y009163D01*
X052399Y009165D01*
X052446Y009171D01*
X052492Y009180D01*
X052538Y009193D01*
X052583Y009209D01*
X052626Y009229D01*
X052668Y009252D01*
X052708Y009278D01*
X052745Y009306D01*
X052781Y009338D01*
X052814Y009373D01*
X052844Y009409D01*
X052840Y009412D01*
X052810Y009376D01*
X052777Y009342D01*
X052742Y009310D01*
X052705Y009282D01*
X052665Y009256D01*
X052624Y009233D01*
X052581Y009214D01*
X052537Y009198D01*
X052491Y009185D01*
X052445Y009176D01*
X052398Y009170D01*
X052351Y009168D01*
X052351Y009173D01*
X052398Y009175D01*
X052444Y009181D01*
X052490Y009190D01*
X052535Y009202D01*
X052579Y009218D01*
X052622Y009238D01*
X052663Y009260D01*
X052702Y009286D01*
X052739Y009314D01*
X052774Y009345D01*
X052806Y009379D01*
X052836Y009415D01*
X052832Y009418D01*
X052802Y009383D01*
X052770Y009349D01*
X052736Y009318D01*
X052699Y009290D01*
X052660Y009264D01*
X052619Y009242D01*
X052577Y009223D01*
X052534Y009207D01*
X052489Y009195D01*
X052443Y009186D01*
X052397Y009180D01*
X052351Y009178D01*
X052351Y009183D01*
X052397Y009185D01*
X052443Y009190D01*
X052488Y009199D01*
X052532Y009212D01*
X052575Y009228D01*
X052617Y009247D01*
X052658Y009269D01*
X052696Y009294D01*
X052733Y009322D01*
X052767Y009353D01*
X052799Y009386D01*
X052828Y009421D01*
X052824Y009424D01*
X052795Y009389D01*
X052763Y009356D01*
X052729Y009326D01*
X052693Y009298D01*
X052655Y009273D01*
X052615Y009251D01*
X052573Y009232D01*
X052531Y009217D01*
X052487Y009204D01*
X052442Y009195D01*
X052397Y009190D01*
X052351Y009188D01*
X052351Y009193D01*
X052396Y009195D01*
X052441Y009200D01*
X052485Y009209D01*
X052529Y009221D01*
X052572Y009237D01*
X052613Y009255D01*
X052652Y009277D01*
X052690Y009302D01*
X052726Y009330D01*
X052760Y009360D01*
X052791Y009392D01*
X052820Y009427D01*
X052816Y009430D01*
X052787Y009396D01*
X052756Y009363D01*
X052723Y009333D01*
X052687Y009306D01*
X052650Y009282D01*
X052611Y009260D01*
X052570Y009241D01*
X052528Y009226D01*
X052484Y009214D01*
X052440Y009205D01*
X052396Y009200D01*
X052351Y009198D01*
X052351Y009203D01*
X052395Y009205D01*
X052440Y009210D01*
X052483Y009219D01*
X052526Y009231D01*
X052568Y009246D01*
X052608Y009264D01*
X052647Y009286D01*
X052684Y009310D01*
X052720Y009337D01*
X052753Y009367D01*
X052784Y009399D01*
X052812Y009433D01*
X052808Y009436D01*
X052780Y009402D01*
X052749Y009370D01*
X052717Y009341D01*
X052682Y009314D01*
X052645Y009290D01*
X052606Y009269D01*
X052566Y009251D01*
X052524Y009236D01*
X052482Y009224D01*
X052439Y009215D01*
X052395Y009210D01*
X052351Y009208D01*
X052345Y010411D02*
X052345Y010357D01*
X052345Y010358D02*
X052298Y010356D01*
X052252Y010350D01*
X052206Y010340D01*
X052161Y010327D01*
X052117Y010310D01*
X052075Y010289D01*
X052035Y010265D01*
X051997Y010238D01*
X051961Y010208D01*
X051928Y010175D01*
X051898Y010139D01*
X051855Y010172D01*
X051885Y010208D01*
X051918Y010242D01*
X051954Y010273D01*
X051991Y010301D01*
X052031Y010326D01*
X052073Y010348D01*
X052116Y010367D01*
X052160Y010383D01*
X052205Y010396D01*
X052251Y010405D01*
X052298Y010410D01*
X052345Y010412D01*
X052345Y010407D01*
X052298Y010405D01*
X052252Y010400D01*
X052206Y010391D01*
X052161Y010378D01*
X052117Y010363D01*
X052075Y010344D01*
X052034Y010322D01*
X051994Y010297D01*
X051957Y010269D01*
X051922Y010238D01*
X051889Y010205D01*
X051859Y010169D01*
X051863Y010166D01*
X051893Y010201D01*
X051925Y010234D01*
X051960Y010265D01*
X051997Y010293D01*
X052036Y010317D01*
X052077Y010339D01*
X052119Y010358D01*
X052163Y010374D01*
X052207Y010386D01*
X052253Y010395D01*
X052299Y010400D01*
X052345Y010402D01*
X052345Y010397D01*
X052299Y010395D01*
X052254Y010390D01*
X052209Y010381D01*
X052164Y010369D01*
X052121Y010353D01*
X052079Y010335D01*
X052039Y010313D01*
X052000Y010288D01*
X051963Y010261D01*
X051929Y010231D01*
X051896Y010198D01*
X051867Y010163D01*
X051871Y010160D01*
X051900Y010195D01*
X051932Y010227D01*
X051966Y010257D01*
X052003Y010284D01*
X052041Y010309D01*
X052081Y010330D01*
X052123Y010349D01*
X052166Y010364D01*
X052210Y010376D01*
X052254Y010385D01*
X052300Y010390D01*
X052345Y010392D01*
X052345Y010387D01*
X052300Y010385D01*
X052255Y010380D01*
X052211Y010371D01*
X052167Y010359D01*
X052125Y010344D01*
X052083Y010326D01*
X052044Y010304D01*
X052006Y010280D01*
X051970Y010253D01*
X051936Y010223D01*
X051904Y010191D01*
X051875Y010157D01*
X051879Y010154D01*
X051908Y010188D01*
X051939Y010220D01*
X051973Y010249D01*
X052009Y010276D01*
X052046Y010300D01*
X052086Y010321D01*
X052127Y010339D01*
X052169Y010354D01*
X052212Y010366D01*
X052256Y010375D01*
X052300Y010380D01*
X052345Y010382D01*
X052345Y010377D01*
X052301Y010375D01*
X052257Y010370D01*
X052213Y010361D01*
X052170Y010350D01*
X052128Y010335D01*
X052088Y010317D01*
X052049Y010296D01*
X052011Y010272D01*
X051976Y010245D01*
X051942Y010216D01*
X051911Y010185D01*
X051883Y010151D01*
X051886Y010148D01*
X051915Y010181D01*
X051946Y010213D01*
X051979Y010242D01*
X052014Y010268D01*
X052051Y010292D01*
X052090Y010312D01*
X052130Y010330D01*
X052172Y010345D01*
X052214Y010357D01*
X052257Y010365D01*
X052301Y010370D01*
X052345Y010372D01*
X052345Y010367D01*
X052297Y010365D01*
X052250Y010359D01*
X052204Y010349D01*
X052158Y010335D01*
X052114Y010318D01*
X052071Y010297D01*
X052030Y010273D01*
X051991Y010245D01*
X051955Y010214D01*
X051921Y010181D01*
X051890Y010145D01*
X051894Y010142D01*
X051925Y010177D01*
X051958Y010211D01*
X051995Y010241D01*
X052033Y010268D01*
X052074Y010293D01*
X052116Y010313D01*
X052160Y010330D01*
X052205Y010344D01*
X052251Y010354D01*
X052298Y010360D01*
X052345Y010362D01*
X052346Y022411D02*
X052346Y022357D01*
X052345Y022358D02*
X052301Y022356D01*
X052258Y022351D01*
X052215Y022342D01*
X052173Y022331D01*
X052132Y022316D01*
X052092Y022298D01*
X052053Y022276D01*
X052017Y022253D01*
X051982Y022226D01*
X051949Y022197D01*
X051919Y022165D01*
X051891Y022131D01*
X051849Y022163D01*
X051848Y022164D01*
X051879Y022201D01*
X051912Y022235D01*
X051947Y022267D01*
X051985Y022297D01*
X052026Y022323D01*
X052068Y022346D01*
X052111Y022366D01*
X052156Y022382D01*
X052202Y022395D01*
X052250Y022404D01*
X052297Y022410D01*
X052345Y022412D01*
X052345Y022407D01*
X052297Y022405D01*
X052250Y022399D01*
X052204Y022390D01*
X052158Y022377D01*
X052113Y022361D01*
X052070Y022341D01*
X052028Y022318D01*
X051988Y022292D01*
X051951Y022264D01*
X051915Y022232D01*
X051882Y022197D01*
X051852Y022161D01*
X051856Y022158D01*
X051886Y022194D01*
X051919Y022228D01*
X051954Y022260D01*
X051991Y022288D01*
X052031Y022314D01*
X052072Y022337D01*
X052115Y022356D01*
X052159Y022372D01*
X052205Y022385D01*
X052251Y022394D01*
X052298Y022400D01*
X052345Y022402D01*
X052345Y022397D01*
X052298Y022395D01*
X052252Y022389D01*
X052206Y022380D01*
X052161Y022368D01*
X052117Y022352D01*
X052074Y022332D01*
X052033Y022310D01*
X051994Y022284D01*
X051957Y022256D01*
X051922Y022225D01*
X051890Y022191D01*
X051860Y022155D01*
X051864Y022152D01*
X051894Y022187D01*
X051926Y022221D01*
X051960Y022252D01*
X051997Y022280D01*
X052036Y022306D01*
X052077Y022328D01*
X052119Y022347D01*
X052162Y022363D01*
X052207Y022375D01*
X052253Y022384D01*
X052299Y022390D01*
X052345Y022392D01*
X052345Y022387D01*
X052299Y022385D01*
X052253Y022380D01*
X052208Y022371D01*
X052164Y022358D01*
X052121Y022342D01*
X052079Y022323D01*
X052038Y022301D01*
X052000Y022276D01*
X051963Y022248D01*
X051929Y022217D01*
X051897Y022184D01*
X051868Y022149D01*
X051872Y022146D01*
X051901Y022181D01*
X051933Y022214D01*
X051967Y022244D01*
X052003Y022272D01*
X052041Y022297D01*
X052081Y022319D01*
X052123Y022338D01*
X052165Y022353D01*
X052209Y022366D01*
X052254Y022375D01*
X052299Y022380D01*
X052345Y022382D01*
X052345Y022377D01*
X052300Y022375D01*
X052255Y022370D01*
X052211Y022361D01*
X052167Y022349D01*
X052124Y022333D01*
X052083Y022315D01*
X052044Y022293D01*
X052006Y022268D01*
X051970Y022240D01*
X051936Y022210D01*
X051905Y022178D01*
X051876Y022143D01*
X051880Y022140D01*
X051909Y022174D01*
X051940Y022207D01*
X051973Y022237D01*
X052009Y022264D01*
X052046Y022288D01*
X052085Y022310D01*
X052126Y022329D01*
X052168Y022344D01*
X052212Y022356D01*
X052256Y022365D01*
X052300Y022370D01*
X052345Y022372D01*
X052345Y022367D01*
X052301Y022365D01*
X052256Y022360D01*
X052213Y022351D01*
X052170Y022339D01*
X052128Y022324D01*
X052088Y022306D01*
X052049Y022284D01*
X052012Y022260D01*
X051976Y022233D01*
X051943Y022203D01*
X051912Y022171D01*
X051884Y022137D01*
X051888Y022134D01*
X051916Y022168D01*
X051947Y022200D01*
X051979Y022229D01*
X052014Y022256D01*
X052051Y022280D01*
X052090Y022301D01*
X052130Y022319D01*
X052172Y022334D01*
X052214Y022346D01*
X052257Y022355D01*
X052301Y022360D01*
X052345Y022362D01*
X051855Y021398D02*
X051898Y021431D01*
X051928Y021395D01*
X051961Y021362D01*
X051997Y021332D01*
X052035Y021305D01*
X052075Y021281D01*
X052117Y021260D01*
X052161Y021243D01*
X052206Y021230D01*
X052252Y021220D01*
X052298Y021214D01*
X052345Y021212D01*
X052345Y021159D01*
X052345Y021158D01*
X052298Y021160D01*
X052251Y021165D01*
X052205Y021174D01*
X052160Y021187D01*
X052116Y021203D01*
X052073Y021222D01*
X052031Y021244D01*
X051991Y021269D01*
X051954Y021297D01*
X051918Y021328D01*
X051885Y021362D01*
X051855Y021398D01*
X051859Y021401D01*
X051889Y021365D01*
X051922Y021332D01*
X051957Y021301D01*
X051994Y021273D01*
X052034Y021248D01*
X052075Y021226D01*
X052117Y021207D01*
X052161Y021192D01*
X052206Y021179D01*
X052252Y021170D01*
X052298Y021165D01*
X052345Y021163D01*
X052345Y021168D01*
X052299Y021170D01*
X052253Y021175D01*
X052207Y021184D01*
X052163Y021196D01*
X052119Y021212D01*
X052077Y021231D01*
X052036Y021253D01*
X051997Y021277D01*
X051960Y021305D01*
X051925Y021336D01*
X051893Y021369D01*
X051863Y021404D01*
X051867Y021407D01*
X051896Y021372D01*
X051929Y021339D01*
X051963Y021309D01*
X052000Y021282D01*
X052039Y021257D01*
X052079Y021235D01*
X052121Y021217D01*
X052164Y021201D01*
X052209Y021189D01*
X052254Y021180D01*
X052299Y021175D01*
X052345Y021173D01*
X052345Y021178D01*
X052300Y021180D01*
X052254Y021185D01*
X052210Y021194D01*
X052166Y021206D01*
X052123Y021221D01*
X052081Y021240D01*
X052041Y021261D01*
X052003Y021286D01*
X051966Y021313D01*
X051932Y021343D01*
X051900Y021375D01*
X051871Y021410D01*
X051875Y021413D01*
X051904Y021379D01*
X051936Y021347D01*
X051970Y021317D01*
X052006Y021290D01*
X052044Y021266D01*
X052083Y021244D01*
X052125Y021226D01*
X052167Y021211D01*
X052211Y021199D01*
X052255Y021190D01*
X052300Y021185D01*
X052345Y021183D01*
X052345Y021188D01*
X052300Y021190D01*
X052256Y021195D01*
X052212Y021204D01*
X052169Y021216D01*
X052127Y021231D01*
X052086Y021249D01*
X052046Y021270D01*
X052009Y021294D01*
X051973Y021321D01*
X051939Y021350D01*
X051908Y021382D01*
X051879Y021416D01*
X051883Y021419D01*
X051911Y021385D01*
X051942Y021354D01*
X051976Y021325D01*
X052011Y021298D01*
X052049Y021274D01*
X052088Y021253D01*
X052128Y021235D01*
X052170Y021220D01*
X052213Y021209D01*
X052257Y021200D01*
X052301Y021195D01*
X052345Y021193D01*
X052345Y021198D01*
X052301Y021200D01*
X052257Y021205D01*
X052214Y021213D01*
X052172Y021225D01*
X052130Y021240D01*
X052090Y021258D01*
X052051Y021278D01*
X052014Y021302D01*
X051979Y021328D01*
X051946Y021357D01*
X051915Y021389D01*
X051886Y021422D01*
X051890Y021425D01*
X051921Y021389D01*
X051955Y021356D01*
X051991Y021325D01*
X052030Y021297D01*
X052071Y021273D01*
X052114Y021252D01*
X052158Y021235D01*
X052204Y021221D01*
X052250Y021211D01*
X052297Y021205D01*
X052345Y021203D01*
X052345Y021208D01*
X052298Y021210D01*
X052251Y021216D01*
X052205Y021226D01*
X052160Y021240D01*
X052116Y021257D01*
X052074Y021277D01*
X052033Y021302D01*
X051995Y021329D01*
X051958Y021359D01*
X051925Y021393D01*
X051894Y021428D01*
X052856Y022151D02*
X052812Y022120D01*
X052813Y022120D02*
X052785Y022156D01*
X052754Y022189D01*
X052722Y022219D01*
X052686Y022247D01*
X052649Y022272D01*
X052610Y022294D01*
X052570Y022313D01*
X052527Y022329D01*
X052484Y022342D01*
X052440Y022351D01*
X052396Y022356D01*
X052351Y022358D01*
X052351Y022411D01*
X052351Y022412D01*
X052400Y022410D01*
X052449Y022404D01*
X052497Y022394D01*
X052544Y022380D01*
X052590Y022363D01*
X052635Y022343D01*
X052678Y022318D01*
X052718Y022291D01*
X052757Y022260D01*
X052793Y022227D01*
X052826Y022191D01*
X052856Y022152D01*
X052852Y022149D01*
X052822Y022187D01*
X052789Y022223D01*
X052754Y022256D01*
X052716Y022287D01*
X052675Y022314D01*
X052633Y022338D01*
X052588Y022359D01*
X052543Y022376D01*
X052496Y022389D01*
X052448Y022399D01*
X052400Y022405D01*
X052351Y022407D01*
X052351Y022402D01*
X052399Y022400D01*
X052447Y022394D01*
X052495Y022384D01*
X052541Y022371D01*
X052587Y022354D01*
X052630Y022334D01*
X052672Y022310D01*
X052713Y022283D01*
X052750Y022253D01*
X052786Y022220D01*
X052819Y022184D01*
X052848Y022146D01*
X052844Y022143D01*
X052815Y022181D01*
X052782Y022216D01*
X052747Y022249D01*
X052710Y022279D01*
X052670Y022306D01*
X052628Y022329D01*
X052585Y022349D01*
X052540Y022366D01*
X052494Y022379D01*
X052447Y022389D01*
X052399Y022395D01*
X052351Y022397D01*
X052351Y022392D01*
X052399Y022390D01*
X052446Y022384D01*
X052492Y022375D01*
X052538Y022361D01*
X052583Y022345D01*
X052626Y022325D01*
X052667Y022301D01*
X052707Y022275D01*
X052744Y022245D01*
X052779Y022213D01*
X052811Y022178D01*
X052840Y022140D01*
X052836Y022137D01*
X052807Y022174D01*
X052775Y022209D01*
X052741Y022241D01*
X052704Y022271D01*
X052665Y022297D01*
X052623Y022320D01*
X052581Y022340D01*
X052537Y022357D01*
X052491Y022370D01*
X052445Y022379D01*
X052398Y022385D01*
X052351Y022387D01*
X052351Y022382D01*
X052398Y022380D01*
X052444Y022374D01*
X052490Y022365D01*
X052535Y022352D01*
X052579Y022336D01*
X052621Y022316D01*
X052662Y022293D01*
X052701Y022267D01*
X052737Y022238D01*
X052772Y022206D01*
X052803Y022171D01*
X052832Y022134D01*
X052828Y022132D01*
X052799Y022168D01*
X052768Y022202D01*
X052734Y022234D01*
X052698Y022263D01*
X052659Y022289D01*
X052619Y022311D01*
X052577Y022331D01*
X052533Y022347D01*
X052489Y022360D01*
X052443Y022369D01*
X052397Y022375D01*
X052351Y022377D01*
X052351Y022372D01*
X052397Y022370D01*
X052443Y022364D01*
X052488Y022355D01*
X052532Y022342D01*
X052575Y022326D01*
X052617Y022307D01*
X052657Y022284D01*
X052695Y022259D01*
X052731Y022230D01*
X052764Y022199D01*
X052796Y022165D01*
X052824Y022129D01*
X052820Y022126D01*
X052792Y022162D01*
X052761Y022195D01*
X052728Y022226D01*
X052692Y022255D01*
X052654Y022280D01*
X052614Y022302D01*
X052573Y022322D01*
X052530Y022338D01*
X052486Y022350D01*
X052442Y022359D01*
X052397Y022365D01*
X052351Y022367D01*
X052351Y022362D01*
X052396Y022360D01*
X052441Y022354D01*
X052485Y022345D01*
X052529Y022333D01*
X052571Y022317D01*
X052612Y022298D01*
X052651Y022276D01*
X052689Y022251D01*
X052724Y022222D01*
X052757Y022192D01*
X052788Y022158D01*
X052816Y022123D01*
X052351Y021159D02*
X052351Y021213D01*
X052351Y021212D02*
X052398Y021214D01*
X052444Y021220D01*
X052490Y021230D01*
X052535Y021243D01*
X052579Y021260D01*
X052621Y021281D01*
X052661Y021305D01*
X052699Y021332D01*
X052735Y021362D01*
X052768Y021395D01*
X052798Y021431D01*
X052841Y021398D01*
X052811Y021362D01*
X052778Y021328D01*
X052742Y021297D01*
X052705Y021269D01*
X052665Y021244D01*
X052623Y021222D01*
X052580Y021203D01*
X052536Y021187D01*
X052491Y021174D01*
X052445Y021165D01*
X052398Y021160D01*
X052351Y021158D01*
X052351Y021163D01*
X052398Y021165D01*
X052444Y021170D01*
X052490Y021179D01*
X052535Y021192D01*
X052579Y021207D01*
X052621Y021226D01*
X052662Y021248D01*
X052702Y021273D01*
X052739Y021301D01*
X052774Y021332D01*
X052807Y021365D01*
X052837Y021401D01*
X052833Y021404D01*
X052803Y021369D01*
X052771Y021336D01*
X052736Y021305D01*
X052699Y021277D01*
X052660Y021253D01*
X052619Y021231D01*
X052577Y021212D01*
X052533Y021196D01*
X052489Y021184D01*
X052443Y021175D01*
X052397Y021170D01*
X052351Y021168D01*
X052351Y021173D01*
X052397Y021175D01*
X052442Y021180D01*
X052487Y021189D01*
X052532Y021201D01*
X052575Y021217D01*
X052617Y021235D01*
X052657Y021257D01*
X052696Y021282D01*
X052733Y021309D01*
X052767Y021339D01*
X052800Y021372D01*
X052829Y021407D01*
X052825Y021410D01*
X052796Y021375D01*
X052764Y021343D01*
X052730Y021313D01*
X052693Y021286D01*
X052655Y021261D01*
X052615Y021240D01*
X052573Y021221D01*
X052530Y021206D01*
X052486Y021194D01*
X052442Y021185D01*
X052396Y021180D01*
X052351Y021178D01*
X052351Y021183D01*
X052396Y021185D01*
X052441Y021190D01*
X052485Y021199D01*
X052529Y021211D01*
X052571Y021226D01*
X052613Y021244D01*
X052652Y021266D01*
X052690Y021290D01*
X052726Y021317D01*
X052760Y021347D01*
X052792Y021379D01*
X052821Y021413D01*
X052817Y021416D01*
X052788Y021382D01*
X052757Y021350D01*
X052723Y021321D01*
X052687Y021294D01*
X052650Y021270D01*
X052610Y021249D01*
X052569Y021231D01*
X052527Y021216D01*
X052484Y021204D01*
X052440Y021195D01*
X052396Y021190D01*
X052351Y021188D01*
X052351Y021193D01*
X052395Y021195D01*
X052439Y021200D01*
X052483Y021209D01*
X052526Y021220D01*
X052568Y021235D01*
X052608Y021253D01*
X052647Y021274D01*
X052685Y021298D01*
X052720Y021325D01*
X052754Y021354D01*
X052785Y021385D01*
X052813Y021419D01*
X052810Y021422D01*
X052781Y021389D01*
X052750Y021357D01*
X052717Y021328D01*
X052682Y021302D01*
X052645Y021278D01*
X052606Y021258D01*
X052566Y021240D01*
X052524Y021225D01*
X052482Y021213D01*
X052439Y021205D01*
X052395Y021200D01*
X052351Y021198D01*
X052351Y021203D01*
X052399Y021205D01*
X052446Y021211D01*
X052492Y021221D01*
X052538Y021235D01*
X052582Y021252D01*
X052625Y021273D01*
X052666Y021297D01*
X052705Y021325D01*
X052741Y021356D01*
X052775Y021389D01*
X052806Y021425D01*
X052802Y021428D01*
X052771Y021393D01*
X052738Y021359D01*
X052701Y021329D01*
X052663Y021302D01*
X052622Y021277D01*
X052580Y021257D01*
X052536Y021240D01*
X052491Y021226D01*
X052445Y021216D01*
X052398Y021210D01*
X052351Y021208D01*
D15*
X052343Y022629D02*
X052343Y022539D01*
X052343Y022540D02*
X052289Y022538D01*
X052236Y022532D01*
X052183Y022522D01*
X052131Y022508D01*
X052080Y022491D01*
X052031Y022470D01*
X051983Y022446D01*
X051937Y022418D01*
X051893Y022387D01*
X051851Y022353D01*
X051812Y022317D01*
X051775Y022277D01*
X051742Y022235D01*
X051711Y022191D01*
X051684Y022145D01*
X051605Y022187D01*
X051633Y022236D01*
X051665Y022282D01*
X051700Y022327D01*
X051737Y022369D01*
X051778Y022409D01*
X051821Y022445D01*
X051866Y022479D01*
X051913Y022510D01*
X051963Y022537D01*
X052014Y022561D01*
X052066Y022582D01*
X052120Y022599D01*
X052175Y022612D01*
X052230Y022622D01*
X052287Y022628D01*
X052343Y022630D01*
X052343Y022621D01*
X052287Y022619D01*
X052232Y022613D01*
X052177Y022603D01*
X052122Y022590D01*
X052069Y022573D01*
X052017Y022553D01*
X051967Y022529D01*
X051918Y022502D01*
X051871Y022472D01*
X051826Y022438D01*
X051784Y022402D01*
X051744Y022363D01*
X051707Y022321D01*
X051672Y022277D01*
X051641Y022231D01*
X051613Y022183D01*
X051621Y022179D01*
X051649Y022226D01*
X051680Y022272D01*
X051714Y022315D01*
X051750Y022357D01*
X051790Y022395D01*
X051832Y022431D01*
X051876Y022464D01*
X051922Y022494D01*
X051971Y022521D01*
X052021Y022544D01*
X052072Y022565D01*
X052125Y022581D01*
X052178Y022594D01*
X052233Y022604D01*
X052288Y022610D01*
X052343Y022612D01*
X052343Y022603D01*
X052288Y022601D01*
X052234Y022595D01*
X052180Y022586D01*
X052127Y022573D01*
X052075Y022556D01*
X052024Y022536D01*
X051975Y022513D01*
X051927Y022486D01*
X051881Y022457D01*
X051837Y022424D01*
X051796Y022389D01*
X051757Y022350D01*
X051720Y022310D01*
X051687Y022267D01*
X051656Y022221D01*
X051629Y022174D01*
X051637Y022170D01*
X051664Y022217D01*
X051694Y022261D01*
X051727Y022304D01*
X051763Y022344D01*
X051802Y022382D01*
X051843Y022417D01*
X051886Y022449D01*
X051932Y022479D01*
X051979Y022505D01*
X052028Y022528D01*
X052078Y022548D01*
X052130Y022564D01*
X052182Y022577D01*
X052235Y022586D01*
X052289Y022592D01*
X052343Y022594D01*
X052343Y022585D01*
X052290Y022583D01*
X052237Y022577D01*
X052184Y022568D01*
X052132Y022555D01*
X052081Y022539D01*
X052031Y022520D01*
X051983Y022497D01*
X051936Y022471D01*
X051892Y022442D01*
X051849Y022410D01*
X051808Y022375D01*
X051770Y022338D01*
X051734Y022298D01*
X051701Y022256D01*
X051671Y022212D01*
X051644Y022166D01*
X051652Y022162D01*
X051679Y022207D01*
X051709Y022251D01*
X051741Y022292D01*
X051776Y022332D01*
X051814Y022369D01*
X051854Y022403D01*
X051897Y022435D01*
X051941Y022463D01*
X051987Y022489D01*
X052035Y022511D01*
X052084Y022531D01*
X052134Y022547D01*
X052186Y022559D01*
X052238Y022568D01*
X052290Y022574D01*
X052343Y022576D01*
X052343Y022567D01*
X052287Y022565D01*
X052232Y022558D01*
X052177Y022548D01*
X052123Y022534D01*
X052071Y022516D01*
X052019Y022495D01*
X051970Y022469D01*
X051922Y022441D01*
X051876Y022409D01*
X051833Y022374D01*
X051793Y022336D01*
X051755Y022295D01*
X051720Y022251D01*
X051689Y022205D01*
X051660Y022157D01*
X051668Y022153D01*
X051696Y022201D01*
X051727Y022246D01*
X051762Y022289D01*
X051799Y022329D01*
X051839Y022367D01*
X051882Y022402D01*
X051927Y022433D01*
X051974Y022462D01*
X052023Y022486D01*
X052074Y022508D01*
X052126Y022525D01*
X052179Y022539D01*
X052233Y022549D01*
X052288Y022556D01*
X052343Y022558D01*
X052343Y022549D01*
X052289Y022547D01*
X052235Y022541D01*
X052181Y022531D01*
X052129Y022517D01*
X052077Y022499D01*
X052027Y022478D01*
X051978Y022454D01*
X051932Y022426D01*
X051887Y022394D01*
X051845Y022360D01*
X051806Y022323D01*
X051769Y022283D01*
X051735Y022241D01*
X051704Y022196D01*
X051676Y022149D01*
X051617Y021362D02*
X051695Y021407D01*
X051695Y021406D02*
X051723Y021362D01*
X051754Y021320D01*
X051787Y021280D01*
X051823Y021242D01*
X051862Y021207D01*
X051903Y021175D01*
X051947Y021145D01*
X051992Y021119D01*
X052039Y021096D01*
X052087Y021076D01*
X052137Y021060D01*
X052187Y021047D01*
X052239Y021038D01*
X052291Y021032D01*
X052343Y021030D01*
X052344Y020941D01*
X052343Y020940D01*
X052288Y020942D01*
X052234Y020948D01*
X052179Y020957D01*
X052126Y020970D01*
X052074Y020986D01*
X052022Y021005D01*
X051972Y021028D01*
X051924Y021054D01*
X051877Y021083D01*
X051833Y021115D01*
X051790Y021150D01*
X051750Y021188D01*
X051713Y021228D01*
X051678Y021270D01*
X051646Y021315D01*
X051617Y021361D01*
X051625Y021366D01*
X051653Y021320D01*
X051685Y021276D01*
X051720Y021234D01*
X051757Y021194D01*
X051796Y021157D01*
X051838Y021122D01*
X051882Y021091D01*
X051928Y021062D01*
X051976Y021036D01*
X052026Y021014D01*
X052076Y020994D01*
X052128Y020978D01*
X052181Y020966D01*
X052235Y020957D01*
X052289Y020951D01*
X052343Y020949D01*
X052343Y020958D01*
X052289Y020960D01*
X052236Y020966D01*
X052183Y020975D01*
X052131Y020987D01*
X052079Y021003D01*
X052029Y021022D01*
X051980Y021044D01*
X051933Y021070D01*
X051887Y021098D01*
X051844Y021130D01*
X051802Y021164D01*
X051763Y021200D01*
X051726Y021240D01*
X051692Y021281D01*
X051661Y021325D01*
X051632Y021370D01*
X051640Y021375D01*
X051670Y021327D01*
X051704Y021281D01*
X051740Y021238D01*
X051780Y021197D01*
X051822Y021159D01*
X051866Y021124D01*
X051913Y021092D01*
X051962Y021064D01*
X052013Y021039D01*
X052066Y021017D01*
X052119Y021000D01*
X052174Y020986D01*
X052230Y020976D01*
X052286Y020969D01*
X052343Y020967D01*
X052343Y020976D01*
X052287Y020978D01*
X052231Y020984D01*
X052176Y020994D01*
X052122Y021008D01*
X052069Y021026D01*
X052017Y021047D01*
X051966Y021072D01*
X051918Y021100D01*
X051872Y021131D01*
X051827Y021166D01*
X051786Y021203D01*
X051747Y021244D01*
X051711Y021286D01*
X051678Y021332D01*
X051648Y021379D01*
X051656Y021384D01*
X051685Y021337D01*
X051718Y021292D01*
X051754Y021250D01*
X051792Y021210D01*
X051833Y021173D01*
X051877Y021138D01*
X051923Y021107D01*
X051971Y021080D01*
X052020Y021055D01*
X052072Y021034D01*
X052124Y021017D01*
X052178Y021003D01*
X052233Y020993D01*
X052288Y020987D01*
X052343Y020985D01*
X052343Y020994D01*
X052288Y020996D01*
X052234Y021002D01*
X052180Y021012D01*
X052127Y021026D01*
X052075Y021043D01*
X052024Y021063D01*
X051975Y021088D01*
X051928Y021115D01*
X051882Y021146D01*
X051839Y021179D01*
X051798Y021216D01*
X051760Y021256D01*
X051725Y021298D01*
X051693Y021342D01*
X051664Y021388D01*
X051672Y021393D01*
X051700Y021347D01*
X051732Y021303D01*
X051767Y021262D01*
X051805Y021223D01*
X051845Y021186D01*
X051887Y021153D01*
X051932Y021123D01*
X051979Y021095D01*
X052028Y021072D01*
X052078Y021051D01*
X052129Y021034D01*
X052182Y021021D01*
X052235Y021011D01*
X052289Y021005D01*
X052343Y021003D01*
X052343Y021012D01*
X052290Y021014D01*
X052236Y021020D01*
X052184Y021030D01*
X052132Y021043D01*
X052081Y021060D01*
X052031Y021080D01*
X051983Y021103D01*
X051937Y021130D01*
X051893Y021160D01*
X051851Y021193D01*
X051811Y021229D01*
X051774Y021268D01*
X051739Y021309D01*
X051708Y021352D01*
X051679Y021397D01*
X051687Y021402D01*
X051715Y021357D01*
X051746Y021314D01*
X051780Y021274D01*
X051817Y021236D01*
X051856Y021200D01*
X051898Y021168D01*
X051942Y021138D01*
X051988Y021111D01*
X052035Y021088D01*
X052084Y021068D01*
X052134Y021051D01*
X052186Y021038D01*
X052238Y021029D01*
X052290Y021023D01*
X052343Y021021D01*
X052352Y020941D02*
X052352Y021031D01*
X052353Y021030D02*
X052407Y021032D01*
X052460Y021038D01*
X052513Y021048D01*
X052565Y021062D01*
X052616Y021079D01*
X052666Y021100D01*
X052714Y021124D01*
X052760Y021152D01*
X052804Y021183D01*
X052845Y021217D01*
X052885Y021254D01*
X052921Y021293D01*
X052989Y021236D01*
X052990Y021235D01*
X052952Y021194D01*
X052912Y021156D01*
X052869Y021120D01*
X052824Y021087D01*
X052777Y021057D01*
X052729Y021031D01*
X052678Y021007D01*
X052626Y020987D01*
X052573Y020971D01*
X052519Y020957D01*
X052464Y020948D01*
X052409Y020942D01*
X052353Y020940D01*
X052353Y020949D01*
X052408Y020951D01*
X052463Y020957D01*
X052517Y020966D01*
X052571Y020979D01*
X052623Y020996D01*
X052675Y021015D01*
X052725Y021039D01*
X052773Y021065D01*
X052819Y021095D01*
X052864Y021127D01*
X052906Y021162D01*
X052946Y021201D01*
X052983Y021241D01*
X052976Y021247D01*
X052939Y021207D01*
X052900Y021169D01*
X052858Y021134D01*
X052814Y021102D01*
X052768Y021073D01*
X052720Y021047D01*
X052671Y021024D01*
X052620Y021004D01*
X052568Y020988D01*
X052515Y020975D01*
X052462Y020966D01*
X052407Y020960D01*
X052353Y020958D01*
X052353Y020967D01*
X052407Y020969D01*
X052460Y020975D01*
X052513Y020984D01*
X052566Y020997D01*
X052617Y021013D01*
X052668Y021032D01*
X052716Y021055D01*
X052764Y021080D01*
X052809Y021109D01*
X052853Y021141D01*
X052894Y021176D01*
X052933Y021213D01*
X052969Y021253D01*
X052962Y021259D01*
X052926Y021219D01*
X052888Y021182D01*
X052847Y021148D01*
X052804Y021117D01*
X052759Y021088D01*
X052712Y021063D01*
X052664Y021040D01*
X052614Y021021D01*
X052563Y021005D01*
X052512Y020993D01*
X052459Y020984D01*
X052406Y020978D01*
X052353Y020976D01*
X052353Y020985D01*
X052406Y020987D01*
X052458Y020993D01*
X052510Y021002D01*
X052561Y021014D01*
X052611Y021030D01*
X052661Y021049D01*
X052708Y021071D01*
X052755Y021096D01*
X052799Y021124D01*
X052841Y021155D01*
X052882Y021189D01*
X052920Y021226D01*
X052955Y021264D01*
X052949Y021270D01*
X052913Y021232D01*
X052876Y021196D01*
X052836Y021162D01*
X052794Y021132D01*
X052750Y021104D01*
X052704Y021079D01*
X052657Y021057D01*
X052608Y021038D01*
X052559Y021023D01*
X052508Y021010D01*
X052457Y021002D01*
X052405Y020996D01*
X052353Y020994D01*
X052353Y021003D01*
X052409Y021005D01*
X052464Y021012D01*
X052519Y021022D01*
X052573Y021036D01*
X052626Y021054D01*
X052677Y021076D01*
X052727Y021101D01*
X052775Y021130D01*
X052820Y021162D01*
X052863Y021197D01*
X052904Y021235D01*
X052942Y021276D01*
X052935Y021282D01*
X052898Y021241D01*
X052857Y021204D01*
X052815Y021169D01*
X052770Y021137D01*
X052722Y021109D01*
X052673Y021084D01*
X052622Y021062D01*
X052570Y021045D01*
X052517Y021031D01*
X052463Y021021D01*
X052408Y021014D01*
X052353Y021012D01*
X052353Y021021D01*
X052407Y021023D01*
X052461Y021029D01*
X052515Y021039D01*
X052568Y021053D01*
X052619Y021071D01*
X052669Y021092D01*
X052718Y021117D01*
X052765Y021145D01*
X052809Y021176D01*
X052851Y021210D01*
X052891Y021248D01*
X052928Y021288D01*
X052993Y022329D02*
X052924Y022272D01*
X052925Y022272D02*
X052888Y022312D01*
X052849Y022350D01*
X052807Y022384D01*
X052763Y022416D01*
X052717Y022444D01*
X052668Y022469D01*
X052618Y022490D01*
X052567Y022508D01*
X052514Y022521D01*
X052461Y022531D01*
X052407Y022538D01*
X052353Y022540D01*
X052352Y022629D01*
X052353Y022630D01*
X052409Y022628D01*
X052465Y022622D01*
X052520Y022612D01*
X052575Y022599D01*
X052628Y022582D01*
X052681Y022562D01*
X052732Y022538D01*
X052781Y022511D01*
X052828Y022480D01*
X052873Y022447D01*
X052916Y022411D01*
X052956Y022372D01*
X052994Y022330D01*
X052987Y022324D01*
X052950Y022365D01*
X052910Y022404D01*
X052868Y022440D01*
X052823Y022473D01*
X052776Y022503D01*
X052728Y022530D01*
X052677Y022553D01*
X052625Y022574D01*
X052572Y022590D01*
X052518Y022603D01*
X052464Y022613D01*
X052409Y022619D01*
X052353Y022621D01*
X052353Y022612D01*
X052408Y022610D01*
X052463Y022604D01*
X052517Y022595D01*
X052570Y022582D01*
X052622Y022565D01*
X052674Y022545D01*
X052723Y022522D01*
X052772Y022495D01*
X052818Y022466D01*
X052862Y022433D01*
X052904Y022397D01*
X052943Y022359D01*
X052980Y022318D01*
X052973Y022313D01*
X052937Y022353D01*
X052898Y022391D01*
X052856Y022426D01*
X052813Y022458D01*
X052767Y022488D01*
X052719Y022514D01*
X052670Y022537D01*
X052620Y022557D01*
X052568Y022573D01*
X052515Y022586D01*
X052461Y022595D01*
X052407Y022601D01*
X052353Y022603D01*
X052353Y022594D01*
X052407Y022592D01*
X052460Y022586D01*
X052513Y022577D01*
X052565Y022564D01*
X052617Y022548D01*
X052667Y022529D01*
X052715Y022506D01*
X052762Y022480D01*
X052808Y022451D01*
X052851Y022419D01*
X052892Y022384D01*
X052930Y022347D01*
X052966Y022307D01*
X052959Y022301D01*
X052924Y022340D01*
X052886Y022377D01*
X052845Y022412D01*
X052802Y022443D01*
X052758Y022472D01*
X052711Y022498D01*
X052663Y022520D01*
X052614Y022540D01*
X052563Y022556D01*
X052511Y022568D01*
X052459Y022577D01*
X052406Y022583D01*
X052353Y022585D01*
X052353Y022576D01*
X052405Y022574D01*
X052458Y022568D01*
X052509Y022559D01*
X052560Y022547D01*
X052611Y022531D01*
X052660Y022512D01*
X052707Y022490D01*
X052753Y022464D01*
X052797Y022436D01*
X052839Y022405D01*
X052880Y022371D01*
X052917Y022334D01*
X052952Y022295D01*
X052946Y022289D01*
X052911Y022328D01*
X052873Y022364D01*
X052834Y022398D01*
X052792Y022429D01*
X052748Y022457D01*
X052703Y022482D01*
X052656Y022504D01*
X052608Y022523D01*
X052558Y022538D01*
X052508Y022551D01*
X052456Y022559D01*
X052405Y022565D01*
X052353Y022567D01*
X052353Y022558D01*
X052404Y022556D01*
X052455Y022551D01*
X052506Y022542D01*
X052556Y022530D01*
X052605Y022514D01*
X052652Y022496D01*
X052699Y022474D01*
X052744Y022449D01*
X052787Y022421D01*
X052828Y022391D01*
X052867Y022358D01*
X052904Y022322D01*
X052939Y022284D01*
X052932Y022278D01*
X052895Y022319D01*
X052855Y022357D01*
X052813Y022391D01*
X052768Y022423D01*
X052721Y022452D01*
X052672Y022477D01*
X052621Y022498D01*
X052570Y022516D01*
X052516Y022530D01*
X052462Y022540D01*
X052408Y022547D01*
X052353Y022549D01*
X052353Y008941D02*
X052353Y009031D01*
X052353Y009030D02*
X052407Y009032D01*
X052460Y009038D01*
X052513Y009048D01*
X052565Y009062D01*
X052616Y009079D01*
X052665Y009100D01*
X052713Y009124D01*
X052759Y009152D01*
X052803Y009183D01*
X052845Y009217D01*
X052884Y009253D01*
X052921Y009293D01*
X052954Y009335D01*
X052985Y009379D01*
X053012Y009425D01*
X053091Y009383D01*
X053063Y009334D01*
X053031Y009288D01*
X052996Y009243D01*
X052959Y009201D01*
X052918Y009161D01*
X052875Y009125D01*
X052830Y009091D01*
X052783Y009060D01*
X052733Y009033D01*
X052682Y009009D01*
X052630Y008988D01*
X052576Y008971D01*
X052521Y008958D01*
X052466Y008948D01*
X052409Y008942D01*
X052353Y008940D01*
X052353Y008949D01*
X052409Y008951D01*
X052464Y008957D01*
X052519Y008967D01*
X052574Y008980D01*
X052627Y008997D01*
X052679Y009017D01*
X052729Y009041D01*
X052778Y009068D01*
X052825Y009098D01*
X052870Y009132D01*
X052912Y009168D01*
X052952Y009207D01*
X052989Y009249D01*
X053024Y009293D01*
X053055Y009339D01*
X053083Y009387D01*
X053075Y009391D01*
X053047Y009344D01*
X053016Y009298D01*
X052982Y009255D01*
X052946Y009213D01*
X052906Y009175D01*
X052864Y009139D01*
X052820Y009106D01*
X052774Y009076D01*
X052725Y009049D01*
X052675Y009026D01*
X052624Y009005D01*
X052571Y008989D01*
X052518Y008976D01*
X052463Y008966D01*
X052408Y008960D01*
X052353Y008958D01*
X052353Y008967D01*
X052408Y008969D01*
X052462Y008975D01*
X052516Y008984D01*
X052569Y008997D01*
X052621Y009014D01*
X052672Y009034D01*
X052721Y009057D01*
X052769Y009084D01*
X052815Y009113D01*
X052859Y009146D01*
X052900Y009181D01*
X052939Y009220D01*
X052976Y009260D01*
X053009Y009303D01*
X053040Y009349D01*
X053067Y009396D01*
X053059Y009400D01*
X053032Y009353D01*
X053002Y009309D01*
X052969Y009266D01*
X052933Y009226D01*
X052894Y009188D01*
X052853Y009153D01*
X052810Y009121D01*
X052764Y009091D01*
X052717Y009065D01*
X052668Y009042D01*
X052618Y009022D01*
X052566Y009006D01*
X052514Y008993D01*
X052461Y008984D01*
X052407Y008978D01*
X052353Y008976D01*
X052353Y008985D01*
X052406Y008987D01*
X052459Y008993D01*
X052512Y009002D01*
X052564Y009015D01*
X052615Y009031D01*
X052665Y009050D01*
X052713Y009073D01*
X052760Y009099D01*
X052804Y009128D01*
X052847Y009160D01*
X052888Y009195D01*
X052926Y009232D01*
X052962Y009272D01*
X052995Y009314D01*
X053025Y009358D01*
X053052Y009404D01*
X053044Y009408D01*
X053017Y009363D01*
X052987Y009319D01*
X052955Y009278D01*
X052920Y009238D01*
X052882Y009201D01*
X052842Y009167D01*
X052799Y009135D01*
X052755Y009107D01*
X052709Y009081D01*
X052661Y009059D01*
X052612Y009039D01*
X052562Y009023D01*
X052510Y009011D01*
X052458Y009002D01*
X052406Y008996D01*
X052353Y008994D01*
X052353Y009003D01*
X052409Y009005D01*
X052464Y009012D01*
X052519Y009022D01*
X052573Y009036D01*
X052625Y009054D01*
X052677Y009075D01*
X052726Y009101D01*
X052774Y009129D01*
X052820Y009161D01*
X052863Y009196D01*
X052903Y009234D01*
X052941Y009275D01*
X052976Y009319D01*
X053007Y009365D01*
X053036Y009413D01*
X053028Y009417D01*
X053000Y009369D01*
X052969Y009324D01*
X052934Y009281D01*
X052897Y009241D01*
X052857Y009203D01*
X052814Y009168D01*
X052769Y009137D01*
X052722Y009108D01*
X052673Y009084D01*
X052622Y009062D01*
X052570Y009045D01*
X052517Y009031D01*
X052463Y009021D01*
X052408Y009014D01*
X052353Y009012D01*
X052353Y009021D01*
X052407Y009023D01*
X052461Y009029D01*
X052515Y009039D01*
X052567Y009053D01*
X052619Y009071D01*
X052669Y009092D01*
X052718Y009116D01*
X052764Y009144D01*
X052809Y009176D01*
X052851Y009210D01*
X052890Y009247D01*
X052927Y009287D01*
X052961Y009329D01*
X052992Y009374D01*
X053020Y009421D01*
X053079Y010208D02*
X053001Y010163D01*
X053001Y010164D02*
X052973Y010208D01*
X052942Y010250D01*
X052909Y010290D01*
X052873Y010328D01*
X052834Y010363D01*
X052793Y010395D01*
X052749Y010425D01*
X052704Y010451D01*
X052657Y010474D01*
X052609Y010494D01*
X052559Y010510D01*
X052509Y010523D01*
X052457Y010532D01*
X052405Y010538D01*
X052353Y010540D01*
X052352Y010629D01*
X052353Y010630D01*
X052408Y010628D01*
X052462Y010622D01*
X052517Y010613D01*
X052570Y010600D01*
X052622Y010584D01*
X052674Y010565D01*
X052724Y010542D01*
X052772Y010516D01*
X052819Y010487D01*
X052863Y010455D01*
X052906Y010420D01*
X052946Y010382D01*
X052983Y010342D01*
X053018Y010300D01*
X053050Y010255D01*
X053079Y010209D01*
X053071Y010204D01*
X053043Y010250D01*
X053011Y010294D01*
X052976Y010336D01*
X052939Y010376D01*
X052900Y010413D01*
X052858Y010448D01*
X052814Y010479D01*
X052768Y010508D01*
X052720Y010534D01*
X052670Y010556D01*
X052620Y010576D01*
X052568Y010592D01*
X052515Y010604D01*
X052461Y010613D01*
X052407Y010619D01*
X052353Y010621D01*
X052353Y010612D01*
X052407Y010610D01*
X052460Y010604D01*
X052513Y010595D01*
X052565Y010583D01*
X052617Y010567D01*
X052667Y010548D01*
X052716Y010526D01*
X052763Y010500D01*
X052809Y010472D01*
X052852Y010440D01*
X052894Y010406D01*
X052933Y010370D01*
X052970Y010330D01*
X053004Y010289D01*
X053035Y010245D01*
X053064Y010200D01*
X053056Y010195D01*
X053026Y010243D01*
X052992Y010289D01*
X052956Y010332D01*
X052916Y010373D01*
X052874Y010411D01*
X052830Y010446D01*
X052783Y010478D01*
X052734Y010506D01*
X052683Y010531D01*
X052630Y010553D01*
X052577Y010570D01*
X052522Y010584D01*
X052466Y010594D01*
X052410Y010601D01*
X052353Y010603D01*
X052353Y010594D01*
X052409Y010592D01*
X052465Y010586D01*
X052520Y010576D01*
X052574Y010562D01*
X052627Y010544D01*
X052679Y010523D01*
X052730Y010498D01*
X052778Y010470D01*
X052824Y010439D01*
X052869Y010404D01*
X052910Y010367D01*
X052949Y010326D01*
X052985Y010284D01*
X053018Y010238D01*
X053048Y010191D01*
X053040Y010186D01*
X053011Y010233D01*
X052978Y010278D01*
X052942Y010320D01*
X052904Y010360D01*
X052863Y010397D01*
X052819Y010432D01*
X052773Y010463D01*
X052725Y010490D01*
X052676Y010515D01*
X052624Y010536D01*
X052572Y010553D01*
X052518Y010567D01*
X052463Y010577D01*
X052408Y010583D01*
X052353Y010585D01*
X052353Y010576D01*
X052408Y010574D01*
X052462Y010568D01*
X052516Y010558D01*
X052569Y010544D01*
X052621Y010527D01*
X052672Y010507D01*
X052721Y010482D01*
X052768Y010455D01*
X052814Y010424D01*
X052857Y010391D01*
X052898Y010354D01*
X052936Y010314D01*
X052971Y010272D01*
X053003Y010228D01*
X053032Y010182D01*
X053024Y010177D01*
X052996Y010223D01*
X052964Y010267D01*
X052929Y010308D01*
X052891Y010347D01*
X052851Y010384D01*
X052809Y010417D01*
X052764Y010447D01*
X052717Y010475D01*
X052668Y010498D01*
X052618Y010519D01*
X052567Y010536D01*
X052514Y010549D01*
X052461Y010559D01*
X052407Y010565D01*
X052353Y010567D01*
X052353Y010558D01*
X052406Y010556D01*
X052460Y010550D01*
X052512Y010540D01*
X052564Y010527D01*
X052615Y010510D01*
X052665Y010490D01*
X052713Y010467D01*
X052759Y010440D01*
X052803Y010410D01*
X052845Y010377D01*
X052885Y010341D01*
X052922Y010302D01*
X052957Y010261D01*
X052988Y010218D01*
X053017Y010173D01*
X053009Y010168D01*
X052981Y010213D01*
X052950Y010256D01*
X052916Y010296D01*
X052879Y010334D01*
X052840Y010370D01*
X052798Y010402D01*
X052754Y010432D01*
X052708Y010459D01*
X052661Y010482D01*
X052612Y010502D01*
X052562Y010519D01*
X052510Y010532D01*
X052458Y010541D01*
X052406Y010547D01*
X052353Y010549D01*
X052344Y010629D02*
X052344Y010539D01*
X052343Y010540D02*
X052289Y010538D01*
X052236Y010532D01*
X052183Y010522D01*
X052131Y010508D01*
X052080Y010491D01*
X052030Y010470D01*
X051982Y010446D01*
X051936Y010418D01*
X051892Y010387D01*
X051851Y010353D01*
X051811Y010316D01*
X051775Y010277D01*
X051707Y010334D01*
X051706Y010335D01*
X051744Y010376D01*
X051784Y010414D01*
X051827Y010450D01*
X051872Y010483D01*
X051919Y010513D01*
X051967Y010539D01*
X052018Y010563D01*
X052070Y010583D01*
X052123Y010599D01*
X052177Y010613D01*
X052232Y010622D01*
X052287Y010628D01*
X052343Y010630D01*
X052343Y010621D01*
X052288Y010619D01*
X052233Y010613D01*
X052179Y010604D01*
X052125Y010591D01*
X052073Y010574D01*
X052021Y010555D01*
X051971Y010531D01*
X051923Y010505D01*
X051877Y010475D01*
X051832Y010443D01*
X051790Y010408D01*
X051750Y010369D01*
X051713Y010329D01*
X051720Y010323D01*
X051757Y010363D01*
X051796Y010401D01*
X051838Y010436D01*
X051882Y010468D01*
X051928Y010497D01*
X051976Y010523D01*
X052025Y010546D01*
X052076Y010566D01*
X052128Y010582D01*
X052181Y010595D01*
X052234Y010604D01*
X052289Y010610D01*
X052343Y010612D01*
X052343Y010603D01*
X052289Y010601D01*
X052236Y010595D01*
X052183Y010586D01*
X052130Y010573D01*
X052079Y010557D01*
X052028Y010538D01*
X051980Y010515D01*
X051932Y010490D01*
X051887Y010461D01*
X051843Y010429D01*
X051802Y010394D01*
X051763Y010357D01*
X051727Y010317D01*
X051734Y010311D01*
X051770Y010351D01*
X051808Y010388D01*
X051849Y010422D01*
X051892Y010453D01*
X051937Y010482D01*
X051984Y010507D01*
X052032Y010530D01*
X052082Y010549D01*
X052133Y010565D01*
X052184Y010577D01*
X052237Y010586D01*
X052290Y010592D01*
X052343Y010594D01*
X052343Y010585D01*
X052290Y010583D01*
X052238Y010577D01*
X052186Y010568D01*
X052135Y010556D01*
X052085Y010540D01*
X052035Y010521D01*
X051988Y010499D01*
X051941Y010474D01*
X051897Y010446D01*
X051855Y010415D01*
X051814Y010381D01*
X051776Y010344D01*
X051741Y010306D01*
X051747Y010300D01*
X051783Y010338D01*
X051820Y010374D01*
X051860Y010408D01*
X051902Y010438D01*
X051946Y010466D01*
X051992Y010491D01*
X052039Y010513D01*
X052088Y010532D01*
X052137Y010547D01*
X052188Y010560D01*
X052239Y010568D01*
X052291Y010574D01*
X052343Y010576D01*
X052343Y010567D01*
X052287Y010565D01*
X052232Y010558D01*
X052177Y010548D01*
X052123Y010534D01*
X052070Y010516D01*
X052019Y010494D01*
X051969Y010469D01*
X051921Y010440D01*
X051876Y010408D01*
X051833Y010373D01*
X051792Y010335D01*
X051754Y010294D01*
X051761Y010288D01*
X051798Y010329D01*
X051839Y010366D01*
X051881Y010401D01*
X051926Y010433D01*
X051974Y010461D01*
X052023Y010486D01*
X052074Y010508D01*
X052126Y010525D01*
X052179Y010539D01*
X052233Y010549D01*
X052288Y010556D01*
X052343Y010558D01*
X052343Y010549D01*
X052289Y010547D01*
X052235Y010541D01*
X052181Y010531D01*
X052128Y010517D01*
X052077Y010499D01*
X052027Y010478D01*
X051978Y010453D01*
X051931Y010425D01*
X051887Y010394D01*
X051845Y010360D01*
X051805Y010322D01*
X051768Y010282D01*
X051703Y009241D02*
X051772Y009298D01*
X051771Y009298D02*
X051808Y009258D01*
X051847Y009220D01*
X051889Y009186D01*
X051933Y009154D01*
X051979Y009126D01*
X052028Y009101D01*
X052078Y009080D01*
X052129Y009062D01*
X052182Y009049D01*
X052235Y009039D01*
X052289Y009032D01*
X052343Y009030D01*
X052344Y008941D01*
X052343Y008940D01*
X052287Y008942D01*
X052231Y008948D01*
X052176Y008958D01*
X052121Y008971D01*
X052068Y008988D01*
X052015Y009008D01*
X051964Y009032D01*
X051915Y009059D01*
X051868Y009090D01*
X051823Y009123D01*
X051780Y009159D01*
X051740Y009198D01*
X051702Y009240D01*
X051709Y009246D01*
X051746Y009205D01*
X051786Y009166D01*
X051828Y009130D01*
X051873Y009097D01*
X051920Y009067D01*
X051968Y009040D01*
X052019Y009017D01*
X052071Y008996D01*
X052124Y008980D01*
X052178Y008967D01*
X052232Y008957D01*
X052287Y008951D01*
X052343Y008949D01*
X052343Y008958D01*
X052288Y008960D01*
X052233Y008966D01*
X052179Y008975D01*
X052126Y008988D01*
X052074Y009005D01*
X052022Y009025D01*
X051973Y009048D01*
X051924Y009075D01*
X051878Y009104D01*
X051834Y009137D01*
X051792Y009173D01*
X051753Y009211D01*
X051716Y009252D01*
X051723Y009257D01*
X051759Y009217D01*
X051798Y009179D01*
X051840Y009144D01*
X051883Y009112D01*
X051929Y009082D01*
X051977Y009056D01*
X052026Y009033D01*
X052076Y009013D01*
X052128Y008997D01*
X052181Y008984D01*
X052235Y008975D01*
X052289Y008969D01*
X052343Y008967D01*
X052343Y008976D01*
X052289Y008978D01*
X052236Y008984D01*
X052183Y008993D01*
X052131Y009006D01*
X052079Y009022D01*
X052029Y009041D01*
X051981Y009064D01*
X051934Y009090D01*
X051888Y009119D01*
X051845Y009151D01*
X051804Y009186D01*
X051766Y009223D01*
X051730Y009263D01*
X051737Y009269D01*
X051772Y009230D01*
X051810Y009193D01*
X051851Y009158D01*
X051894Y009127D01*
X051938Y009098D01*
X051985Y009072D01*
X052033Y009050D01*
X052082Y009030D01*
X052133Y009014D01*
X052185Y009002D01*
X052237Y008993D01*
X052290Y008987D01*
X052343Y008985D01*
X052343Y008994D01*
X052291Y008996D01*
X052238Y009002D01*
X052187Y009011D01*
X052136Y009023D01*
X052085Y009039D01*
X052036Y009058D01*
X051989Y009080D01*
X051943Y009106D01*
X051899Y009134D01*
X051857Y009165D01*
X051816Y009199D01*
X051779Y009236D01*
X051744Y009275D01*
X051750Y009281D01*
X051785Y009242D01*
X051823Y009206D01*
X051862Y009172D01*
X051904Y009141D01*
X051948Y009113D01*
X051993Y009088D01*
X052040Y009066D01*
X052088Y009047D01*
X052138Y009032D01*
X052188Y009019D01*
X052240Y009011D01*
X052291Y009005D01*
X052343Y009003D01*
X052343Y009012D01*
X052292Y009014D01*
X052241Y009019D01*
X052190Y009028D01*
X052140Y009040D01*
X052091Y009056D01*
X052044Y009074D01*
X051997Y009096D01*
X051952Y009121D01*
X051909Y009149D01*
X051868Y009179D01*
X051829Y009212D01*
X051792Y009248D01*
X051757Y009286D01*
X051764Y009292D01*
X051801Y009251D01*
X051841Y009213D01*
X051883Y009179D01*
X051928Y009147D01*
X051975Y009118D01*
X052024Y009093D01*
X052075Y009072D01*
X052126Y009054D01*
X052180Y009040D01*
X052234Y009030D01*
X052288Y009023D01*
X052343Y009021D01*
D16*
X033348Y014835D03*
X031848Y013735D03*
X033348Y018735D03*
X031848Y019835D03*
D17*
X031848Y020460D03*
X033348Y020460D03*
X033348Y018110D03*
X031848Y018110D03*
X031848Y015460D03*
X033348Y015460D03*
X033348Y013110D03*
X031848Y013110D03*
D18*
X048123Y030060D02*
X048423Y030060D01*
X048273Y030060D02*
X048273Y030510D01*
X048123Y030360D01*
X048198Y031060D02*
X048348Y031060D01*
X048423Y031135D01*
X048423Y031210D01*
X048348Y031285D01*
X048123Y031285D01*
X048123Y031135D01*
X048198Y031060D01*
X048123Y031285D02*
X048273Y031435D01*
X048423Y031510D01*
X048658Y034160D02*
X048583Y034235D01*
X048884Y034535D01*
X048884Y034235D01*
X048809Y034160D01*
X048658Y034160D01*
X048583Y034235D02*
X048583Y034535D01*
X048658Y034610D01*
X048809Y034610D01*
X048884Y034535D01*
X049044Y034535D02*
X049044Y034460D01*
X049119Y034385D01*
X049344Y034385D01*
X049344Y034235D02*
X049344Y034535D01*
X049269Y034610D01*
X049119Y034610D01*
X049044Y034535D01*
X049044Y034235D02*
X049119Y034160D01*
X049269Y034160D01*
X049344Y034235D01*
X048423Y034610D02*
X048123Y034610D01*
X048123Y034160D01*
X048123Y034385D02*
X048273Y034385D01*
X053873Y031435D02*
X053873Y031360D01*
X053948Y031285D01*
X054173Y031285D01*
X054173Y031135D02*
X054173Y031435D01*
X054098Y031510D01*
X053948Y031510D01*
X053873Y031435D01*
X053873Y031135D02*
X053948Y031060D01*
X054098Y031060D01*
X054173Y031135D01*
X054173Y030510D02*
X053873Y030510D01*
X053873Y030285D01*
X054023Y030360D01*
X054098Y030360D01*
X054173Y030285D01*
X054173Y030135D01*
X054098Y030060D01*
X053948Y030060D01*
X053873Y030135D01*
X056523Y031885D02*
X056598Y031810D01*
X056523Y031885D02*
X056523Y032035D01*
X056598Y032110D01*
X056673Y032110D01*
X056973Y031810D01*
X056973Y032110D01*
X057123Y032270D02*
X056973Y032421D01*
X056973Y032345D01*
X056898Y032345D01*
X056898Y032421D01*
X056973Y032421D01*
X056898Y032577D02*
X056973Y032652D01*
X056973Y032803D01*
X056898Y032878D01*
X056748Y032878D01*
X056673Y032803D01*
X056673Y032727D01*
X056748Y032577D01*
X056523Y032577D01*
X056523Y032878D01*
X056748Y033038D02*
X056748Y033338D01*
X056973Y033263D02*
X056523Y033263D01*
X056748Y033038D01*
D19*
X051098Y033635D03*
D20*
X051098Y035285D03*
D21*
X051088Y032060D03*
X052178Y032060D03*
X053258Y032060D03*
X050018Y032060D03*
X048938Y032060D03*
D22*
X049478Y032560D03*
X050558Y032560D03*
X051628Y032560D03*
X052718Y032560D03*
D23*
X058428Y025285D03*
X061268Y025285D03*
X052768Y024785D03*
X052768Y023285D03*
X049928Y023285D03*
X049928Y024785D03*
D24*
X047808Y016965D03*
X047808Y011465D03*
D25*
X046598Y011560D03*
X046598Y015010D03*
X046598Y017060D03*
X046598Y020510D03*
D26*
X046498Y019785D03*
X046498Y018785D03*
X046498Y017785D03*
X046498Y014285D03*
X046498Y013285D03*
X046498Y012285D03*
D27*
X046598Y012785D03*
X046598Y013785D03*
X046598Y018285D03*
X046598Y019285D03*
D28*
X001757Y002285D02*
X001759Y002333D01*
X001765Y002381D01*
X001775Y002428D01*
X001788Y002474D01*
X001806Y002519D01*
X001826Y002563D01*
X001851Y002605D01*
X001879Y002644D01*
X001909Y002681D01*
X001943Y002715D01*
X001980Y002747D01*
X002018Y002776D01*
X002059Y002801D01*
X002102Y002823D01*
X002147Y002841D01*
X002193Y002855D01*
X002240Y002866D01*
X002288Y002873D01*
X002336Y002876D01*
X002384Y002875D01*
X002432Y002870D01*
X002480Y002861D01*
X002526Y002849D01*
X002571Y002832D01*
X002615Y002812D01*
X002657Y002789D01*
X002697Y002762D01*
X002735Y002732D01*
X002770Y002699D01*
X002802Y002663D01*
X002832Y002625D01*
X002858Y002584D01*
X002880Y002541D01*
X002900Y002497D01*
X002915Y002452D01*
X002927Y002405D01*
X002935Y002357D01*
X002939Y002309D01*
X002939Y002261D01*
X002935Y002213D01*
X002927Y002165D01*
X002915Y002118D01*
X002900Y002073D01*
X002880Y002029D01*
X002858Y001986D01*
X002832Y001945D01*
X002802Y001907D01*
X002770Y001871D01*
X002735Y001838D01*
X002697Y001808D01*
X002657Y001781D01*
X002615Y001758D01*
X002571Y001738D01*
X002526Y001721D01*
X002480Y001709D01*
X002432Y001700D01*
X002384Y001695D01*
X002336Y001694D01*
X002288Y001697D01*
X002240Y001704D01*
X002193Y001715D01*
X002147Y001729D01*
X002102Y001747D01*
X002059Y001769D01*
X002018Y001794D01*
X001980Y001823D01*
X001943Y001855D01*
X001909Y001889D01*
X001879Y001926D01*
X001851Y001965D01*
X001826Y002007D01*
X001806Y002051D01*
X001788Y002096D01*
X001775Y002142D01*
X001765Y002189D01*
X001759Y002237D01*
X001757Y002285D01*
X001757Y033285D02*
X001759Y033333D01*
X001765Y033381D01*
X001775Y033428D01*
X001788Y033474D01*
X001806Y033519D01*
X001826Y033563D01*
X001851Y033605D01*
X001879Y033644D01*
X001909Y033681D01*
X001943Y033715D01*
X001980Y033747D01*
X002018Y033776D01*
X002059Y033801D01*
X002102Y033823D01*
X002147Y033841D01*
X002193Y033855D01*
X002240Y033866D01*
X002288Y033873D01*
X002336Y033876D01*
X002384Y033875D01*
X002432Y033870D01*
X002480Y033861D01*
X002526Y033849D01*
X002571Y033832D01*
X002615Y033812D01*
X002657Y033789D01*
X002697Y033762D01*
X002735Y033732D01*
X002770Y033699D01*
X002802Y033663D01*
X002832Y033625D01*
X002858Y033584D01*
X002880Y033541D01*
X002900Y033497D01*
X002915Y033452D01*
X002927Y033405D01*
X002935Y033357D01*
X002939Y033309D01*
X002939Y033261D01*
X002935Y033213D01*
X002927Y033165D01*
X002915Y033118D01*
X002900Y033073D01*
X002880Y033029D01*
X002858Y032986D01*
X002832Y032945D01*
X002802Y032907D01*
X002770Y032871D01*
X002735Y032838D01*
X002697Y032808D01*
X002657Y032781D01*
X002615Y032758D01*
X002571Y032738D01*
X002526Y032721D01*
X002480Y032709D01*
X002432Y032700D01*
X002384Y032695D01*
X002336Y032694D01*
X002288Y032697D01*
X002240Y032704D01*
X002193Y032715D01*
X002147Y032729D01*
X002102Y032747D01*
X002059Y032769D01*
X002018Y032794D01*
X001980Y032823D01*
X001943Y032855D01*
X001909Y032889D01*
X001879Y032926D01*
X001851Y032965D01*
X001826Y033007D01*
X001806Y033051D01*
X001788Y033096D01*
X001775Y033142D01*
X001765Y033189D01*
X001759Y033237D01*
X001757Y033285D01*
X065757Y033285D02*
X065759Y033333D01*
X065765Y033381D01*
X065775Y033428D01*
X065788Y033474D01*
X065806Y033519D01*
X065826Y033563D01*
X065851Y033605D01*
X065879Y033644D01*
X065909Y033681D01*
X065943Y033715D01*
X065980Y033747D01*
X066018Y033776D01*
X066059Y033801D01*
X066102Y033823D01*
X066147Y033841D01*
X066193Y033855D01*
X066240Y033866D01*
X066288Y033873D01*
X066336Y033876D01*
X066384Y033875D01*
X066432Y033870D01*
X066480Y033861D01*
X066526Y033849D01*
X066571Y033832D01*
X066615Y033812D01*
X066657Y033789D01*
X066697Y033762D01*
X066735Y033732D01*
X066770Y033699D01*
X066802Y033663D01*
X066832Y033625D01*
X066858Y033584D01*
X066880Y033541D01*
X066900Y033497D01*
X066915Y033452D01*
X066927Y033405D01*
X066935Y033357D01*
X066939Y033309D01*
X066939Y033261D01*
X066935Y033213D01*
X066927Y033165D01*
X066915Y033118D01*
X066900Y033073D01*
X066880Y033029D01*
X066858Y032986D01*
X066832Y032945D01*
X066802Y032907D01*
X066770Y032871D01*
X066735Y032838D01*
X066697Y032808D01*
X066657Y032781D01*
X066615Y032758D01*
X066571Y032738D01*
X066526Y032721D01*
X066480Y032709D01*
X066432Y032700D01*
X066384Y032695D01*
X066336Y032694D01*
X066288Y032697D01*
X066240Y032704D01*
X066193Y032715D01*
X066147Y032729D01*
X066102Y032747D01*
X066059Y032769D01*
X066018Y032794D01*
X065980Y032823D01*
X065943Y032855D01*
X065909Y032889D01*
X065879Y032926D01*
X065851Y032965D01*
X065826Y033007D01*
X065806Y033051D01*
X065788Y033096D01*
X065775Y033142D01*
X065765Y033189D01*
X065759Y033237D01*
X065757Y033285D01*
X065757Y002285D02*
X065759Y002333D01*
X065765Y002381D01*
X065775Y002428D01*
X065788Y002474D01*
X065806Y002519D01*
X065826Y002563D01*
X065851Y002605D01*
X065879Y002644D01*
X065909Y002681D01*
X065943Y002715D01*
X065980Y002747D01*
X066018Y002776D01*
X066059Y002801D01*
X066102Y002823D01*
X066147Y002841D01*
X066193Y002855D01*
X066240Y002866D01*
X066288Y002873D01*
X066336Y002876D01*
X066384Y002875D01*
X066432Y002870D01*
X066480Y002861D01*
X066526Y002849D01*
X066571Y002832D01*
X066615Y002812D01*
X066657Y002789D01*
X066697Y002762D01*
X066735Y002732D01*
X066770Y002699D01*
X066802Y002663D01*
X066832Y002625D01*
X066858Y002584D01*
X066880Y002541D01*
X066900Y002497D01*
X066915Y002452D01*
X066927Y002405D01*
X066935Y002357D01*
X066939Y002309D01*
X066939Y002261D01*
X066935Y002213D01*
X066927Y002165D01*
X066915Y002118D01*
X066900Y002073D01*
X066880Y002029D01*
X066858Y001986D01*
X066832Y001945D01*
X066802Y001907D01*
X066770Y001871D01*
X066735Y001838D01*
X066697Y001808D01*
X066657Y001781D01*
X066615Y001758D01*
X066571Y001738D01*
X066526Y001721D01*
X066480Y001709D01*
X066432Y001700D01*
X066384Y001695D01*
X066336Y001694D01*
X066288Y001697D01*
X066240Y001704D01*
X066193Y001715D01*
X066147Y001729D01*
X066102Y001747D01*
X066059Y001769D01*
X066018Y001794D01*
X065980Y001823D01*
X065943Y001855D01*
X065909Y001889D01*
X065879Y001926D01*
X065851Y001965D01*
X065826Y002007D01*
X065806Y002051D01*
X065788Y002096D01*
X065775Y002142D01*
X065765Y002189D01*
X065759Y002237D01*
X065757Y002285D01*
M02*
